<svg width="842" height="556" viewBox="0 0 842 556" fill="none" xmlns="http://www.w3.org/2000/svg">
<mask id="mask0_286_38675" style="mask-type:alpha" maskUnits="userSpaceOnUse" x="-277" y="0" width="1119" height="1119">
<circle cx="282.26" cy="559.184" r="559.018" fill="#D9D9D9"/>
</mask>
<g mask="url(#mask0_286_38675)">
<g clip-path="url(#clip0_286_38675)">
<circle cx="558.773" cy="558.773" r="558.773" transform="matrix(-1 8.74228e-08 8.74228e-08 1 841.988 -0.329102)" fill="url(#paint0_radial_286_38675)"/>
</g>
<g style="mix-blend-mode:soft-light">
<path d="M352.662 815.978C368.375 815.978 384.019 815.105 399.537 813.346C494.356 802.597 578.944 759.304 631.601 694.57C660.82 658.645 681.924 615.501 696.109 562.678C707.258 521.154 713.856 475.125 716.879 417.818C718.075 395.067 718.741 371.914 719.385 349.532C721.397 279.464 723.477 207.017 742.432 139.766C744.788 131.397 740.547 122.58 732.535 119.2C724.523 115.82 715.247 118.947 710.902 126.477C659.108 216.352 585.968 294.053 499.379 351.164C447.998 385.054 406.169 399.62 367.754 396.999C321.132 393.814 273.752 362.66 241.027 313.653C210.21 267.509 194.071 212.282 178.473 158.884C175.806 149.744 166.231 144.491 157.093 147.169C147.955 149.836 142.714 159.413 145.38 168.552C161.714 224.456 178.599 282.258 212.359 332.805C230.21 359.533 252.682 382.583 277.361 399.447C305.339 418.576 334.96 429.325 365.421 431.406C426.308 435.567 481.873 404.034 518.379 379.962C585.209 335.875 644.417 280.143 692.718 216.237C687.465 260.393 686.177 304.916 684.936 348.543C684.304 370.719 683.637 393.653 682.465 416.001C678.235 496.369 665.591 598.188 604.876 672.808C557.863 730.61 481.608 769.34 395.675 779.088C381.628 780.686 367.467 781.468 353.306 781.468C235.199 781.468 115.943 727.161 40.4347 636.55C-44.1194 535.076 -74.0169 387.813 -35.7285 261.393C-32.9697 252.276 -38.1193 242.654 -47.2345 239.895C-56.3497 237.136 -65.9707 242.287 -68.7294 251.403C-89.2702 319.229 -92.3967 393.182 -77.7641 465.25C-63.1315 537.318 -31.418 604.189 13.9511 658.634C59.3203 713.079 119.368 756.326 187.611 783.71C240.82 805.057 297.097 816.001 352.685 816.001L352.662 815.978Z" fill="white"/>
<path d="M477.679 620.41C486.932 620.41 494.576 613.076 494.898 603.764C495.22 594.246 487.772 586.268 478.254 585.934C380.343 582.566 285.605 545.411 211.499 481.321C137.394 417.232 86.967 328.84 69.5182 232.423C67.817 223.054 58.8513 216.835 49.4832 218.525C40.1151 220.226 33.8965 229.193 35.5862 238.562C44.9198 290.087 63.0352 339.692 89.4498 385.997C115.864 432.303 149.337 473.148 188.935 507.406C228.534 541.652 273.777 568.897 323.41 588.36C373.033 607.822 424.735 618.606 477.059 620.41C477.265 620.41 477.461 620.41 477.668 620.41H477.679Z" fill="white"/>
<path d="M361.15 155.792C390.496 155.792 420.819 146.641 446.509 128.742C484.384 102.359 512.522 58.6288 525.718 5.58664C537.753 -42.7882 536.546 -93.2207 533.776 -136.181C533.167 -145.688 524.971 -152.896 515.465 -152.275C505.959 -151.666 498.752 -143.458 499.373 -133.962C501.97 -93.6576 503.166 -46.5358 492.269 -2.74791C481.085 42.1781 457.843 78.8271 426.819 100.428C392.335 124.443 347.644 128.225 315.597 109.855C307.333 105.118 296.804 107.981 292.068 116.235C287.332 124.5 290.183 135.031 298.447 139.767C317.16 150.504 338.885 155.781 361.162 155.781L361.15 155.792Z" fill="white"/>
<path d="M282.614 21.5082C287.752 21.5082 292.833 19.2206 296.235 14.8521C302.086 7.3338 300.741 -3.49537 293.224 -9.34679L182.531 -95.5316C175.013 -101.383 164.185 -100.038 158.335 -92.5197C152.484 -85.0014 153.829 -74.1722 161.346 -68.3208L272.039 17.8641C275.189 20.3127 278.913 21.4968 282.614 21.4968V21.5082Z" fill="white"/>
<path d="M-266.397 8.35809C-265.972 8.35809 -265.547 8.34662 -265.11 8.31213L-22.7697 -9.51804C-16.9765 -9.94339 -11.7924 -13.2542 -8.96475 -18.3354C-6.13708 -23.4166 -6.06812 -29.5669 -8.75784 -34.7171C-46.736 -107.302 -32.8964 -202.672 24.1282 -261.485C81.1643 -320.287 176.052 -337.025 249.755 -301.273C258.319 -297.123 268.641 -300.698 272.79 -309.262C276.94 -317.827 273.365 -328.15 264.802 -332.3C178.098 -374.352 66.4627 -354.671 -0.631165 -285.489C-61.7594 -222.468 -80.7024 -123.753 -49.805 -42.1089L-267.639 -26.0836C-277.133 -25.3824 -284.271 -17.1169 -283.57 -7.62122C-282.904 1.44904 -275.34 8.35809 -266.397 8.35809Z" fill="white"/>
<path d="M103.623 76.0105C105.071 76.0105 106.543 75.8265 108.014 75.4357C117.221 73.0215 122.727 63.5949 120.313 54.3752L84.1971 -83.2884C81.7833 -92.4966 72.3578 -98.0146 63.1391 -95.589C53.932 -93.1748 48.426 -83.7482 50.8399 -74.5285L86.9559 63.1351C88.9904 70.8833 95.9791 76.0105 103.623 76.0105Z" fill="white"/>
<path d="M748.928 30.269C757.515 30.269 764.952 23.8542 766.021 15.1058C777.757 -81.1264 727.318 -182.176 643.362 -230.631C559.406 -279.086 446.69 -272.212 369.251 -213.916C361.641 -208.191 360.113 -197.373 365.848 -189.763C371.573 -182.153 382.389 -180.624 389.998 -186.36C456.713 -236.586 553.819 -242.506 626.143 -200.764C698.467 -159.023 741.917 -71.9642 731.813 10.9328C730.663 20.3824 737.388 28.9814 746.836 30.1425C747.549 30.2344 748.25 30.269 748.94 30.269H748.928Z" fill="white"/>
<path d="M125.667 640.333C127.988 640.333 130.356 639.861 132.621 638.861C141.334 635.022 145.276 624.836 141.437 616.122C130.149 590.532 130.701 560.241 142.92 535.088C147.081 526.523 143.506 516.2 134.943 512.038C126.379 507.877 116.057 511.452 111.896 520.016C95.3094 554.171 94.5507 595.303 109.885 630.055C112.735 636.505 119.046 640.344 125.667 640.344V640.333Z" fill="white"/>
<path d="M656.158 54.1566C658.514 54.1566 660.917 53.6738 663.204 52.6391C671.894 48.742 675.779 38.5336 671.883 29.8542L622.352 -80.6215C618.456 -89.3124 608.26 -93.198 599.57 -89.3009C590.88 -85.4038 586.995 -75.2069 590.892 -66.516L640.422 43.9597C643.296 50.3629 649.583 54.1566 656.17 54.1566H656.158Z" fill="white"/>
<path d="M508.702 177.91C511.771 177.91 514.886 177.094 517.702 175.358L618.326 113.625C626.441 108.647 628.981 98.0249 624.004 89.9088C619.027 81.7927 608.406 79.2521 600.291 84.2298L499.667 145.963C491.552 150.941 489.012 161.563 493.989 169.679C497.242 174.979 502.908 177.91 508.702 177.91Z" fill="white"/>
<path d="M496.679 281.235C505.634 281.235 513.197 274.314 513.852 265.244C514.542 255.748 507.415 247.483 497.909 246.793C472.828 244.954 448.747 229.56 436.54 207.569C431.919 199.246 421.424 196.234 413.102 200.855C404.78 205.477 401.769 215.972 406.389 224.295C424.355 256.679 458.46 278.476 495.392 281.177C495.817 281.212 496.243 281.223 496.668 281.223L496.679 281.235Z" fill="white"/>
<path d="M362.033 309.802C368.309 309.802 374.366 306.353 377.412 300.375C381.734 291.891 378.355 281.51 369.86 277.188C337.25 260.588 311.249 229.836 300.318 194.912C297.467 185.818 287.801 180.772 278.708 183.611C269.616 186.462 264.558 196.13 267.409 205.223C281.26 249.471 312.905 286.902 354.216 307.928C356.722 309.204 359.389 309.802 362.021 309.802H362.033Z" fill="white"/>
<path d="M623.857 558.632C625.891 558.632 627.914 558.632 629.937 558.609C635.593 558.563 640.857 555.746 644.041 551.079C647.225 546.412 647.915 540.468 645.892 535.192C625.294 481.448 626.064 420.094 648.007 366.88C651.639 358.074 647.444 347.992 638.639 344.359C629.834 340.727 619.753 344.923 616.121 353.729C594.017 407.334 590.569 468.101 605.937 523.914C551.418 522.546 497.175 514.901 444.369 501.141C435.15 498.738 425.736 504.268 423.334 513.476C420.932 522.695 426.46 532.111 435.668 534.513C497.095 550.516 560.372 558.632 623.845 558.632H623.857Z" fill="white"/>
<path d="M548.141 504.865C549.532 504.865 550.946 504.693 552.348 504.348C558.038 502.922 562.705 498.818 564.854 493.369C569.153 482.437 563.141 473.171 549.969 452.869C546.992 448.271 542.417 441.224 540.095 437.039C540.106 435.188 539.83 433.303 539.221 431.464C536.382 422.888 527.416 417.967 518.657 420.163C517.588 420.428 516.554 420.795 515.565 421.244L472.403 439.189C463.61 442.845 459.449 452.938 463.104 461.732C466.759 470.527 476.852 474.688 485.645 471.033L513.301 459.525C515.496 463.112 518.083 467.101 521.037 471.642C524.014 476.24 528.589 483.287 530.911 487.472C530.899 488.909 531.072 490.369 531.428 491.829C533.394 499.657 540.417 504.877 548.141 504.877V504.865Z" fill="white"/>
<path d="M334.395 520.051C336.315 520.051 338.246 519.73 340.131 519.063L381.925 504.314C390.902 501.141 395.615 491.289 392.443 482.31C389.27 473.332 379.419 468.619 370.442 471.792L339.211 482.816C331.935 475.884 321.337 466.906 307.371 455.18C294.003 443.96 275.704 428.59 271.979 423.624C266.267 416.002 255.462 414.462 247.841 420.175C240.22 425.888 238.68 436.695 244.392 444.316C250.082 451.915 263.611 463.469 285.198 481.598C298.566 492.818 316.866 508.188 320.59 513.154C323.912 517.58 329.073 520.051 334.384 520.051H334.395Z" fill="white"/>
<path d="M200.061 410.817C204.107 410.817 208.165 409.403 211.441 406.529C218.59 400.241 219.291 389.342 213.004 382.192L169.336 332.518C163.048 325.368 152.152 324.666 145.002 330.955C137.852 337.243 137.151 348.141 143.439 355.292L187.107 404.965C190.52 408.84 195.279 410.828 200.061 410.828V410.817Z" fill="white"/>
<path d="M121.528 266.969C122.125 266.969 122.723 266.934 123.332 266.877C132.804 265.888 139.689 257.416 138.7 247.943L134.356 206.087C133.367 196.614 124.895 189.728 115.424 190.717C105.952 191.705 99.0672 200.178 100.056 209.65L104.401 251.507C105.32 260.37 112.803 266.969 121.528 266.969Z" fill="white"/>
<path d="M55.7102 192.406C57.9747 192.406 60.2621 191.958 62.4805 191.015C71.2394 187.279 75.3085 177.139 71.5612 168.38L39.1005 92.3801C35.3648 83.6202 25.2266 79.5506 16.4677 83.2983C7.70882 87.0345 3.63979 97.1739 7.38702 105.934L39.8477 181.933C42.6409 188.486 49.0204 192.406 55.7102 192.406Z" fill="white"/>
<path d="M59.519 507.819C64.5996 507.819 69.6228 505.589 73.0252 501.301C78.9449 493.84 77.7035 483 70.255 477.068C29.2423 444.477 13.5982 381.376 34.6332 333.403C38.4609 324.678 34.4839 314.516 25.771 310.687C17.0466 306.859 6.88535 310.837 3.05766 319.551C-24.4144 382.192 -4.74718 461.525 48.8061 504.072C51.9786 506.589 55.7603 507.819 59.519 507.819Z" fill="white"/>
<path d="M186.127 613.248C193.621 613.248 200.518 608.317 202.69 600.752L211.909 568.61C214.53 559.459 209.242 549.906 200.093 547.273C190.943 544.652 181.391 549.94 178.77 559.091L169.551 591.234C166.931 600.384 172.218 609.937 181.368 612.558C182.954 613.018 184.552 613.225 186.127 613.225V613.248Z" fill="white"/>
<path d="M785.171 156.597C786.642 156.597 788.136 156.413 789.619 156.011C798.815 153.562 804.286 144.113 801.838 134.904C792.343 99.313 763.124 70.5273 727.399 61.572C718.157 59.2613 708.801 64.8713 706.49 74.114C704.18 83.3567 709.789 92.7144 719.031 95.0251C742.422 100.888 762.319 120.477 768.526 143.791C770.584 151.505 777.55 156.597 785.171 156.597Z" fill="white"/>
<path d="M425.686 19.6803C430.928 19.6803 436.112 17.3007 439.503 12.7713C452.388 -4.42659 458.595 -26.7517 458.48 -55.4914C458.446 -65.194 457.756 -74.7471 457.078 -83.9783C456.273 -95.0374 455.526 -105.476 455.848 -115.788C456.285 -129.56 459.216 -148.585 470.745 -160.978C478.849 -169.692 494.102 -174.739 503.884 -168.347C511.861 -163.139 522.54 -165.381 527.747 -173.359C532.954 -181.337 530.712 -192.017 522.735 -197.225C510.907 -204.95 496.114 -207.49 481.044 -204.398C467.469 -201.604 454.848 -194.534 445.491 -184.476C430.606 -168.473 422.272 -145.102 421.376 -116.88C420.996 -104.774 421.847 -92.9336 422.686 -81.4837C423.341 -72.4249 423.962 -63.8835 423.997 -55.3535C424.077 -34.6838 420.008 -18.716 411.904 -7.89838C406.191 -0.276581 407.743 10.5296 415.364 16.243C418.468 18.5652 422.088 19.6918 425.686 19.6918V19.6803Z" fill="white"/>
<path d="M761.156 459.353C765.593 459.353 770.019 457.652 773.387 454.261C787.387 440.155 804.824 422.601 811.549 398.77C817.629 377.226 813.503 355.2 810.181 337.508L784.41 200.028C782.651 190.671 773.64 184.497 764.283 186.256C754.926 188.015 748.754 197.017 750.512 206.386L776.283 343.865C779.077 358.752 782.238 375.628 778.352 389.401C774.053 404.633 760.697 418.083 748.915 429.947C742.202 436.706 742.236 447.627 748.995 454.33C752.363 457.675 756.754 459.342 761.145 459.342L761.156 459.353Z" fill="white"/>
<path d="M793.101 816.909C797.975 816.909 802.814 814.852 806.216 810.863C835.275 776.823 851.264 731.633 850.068 686.891C848.873 642.149 830.505 597.889 799.665 565.448C794.791 560.321 789.595 555.377 784.561 550.607C768.411 535.26 753.158 520.775 751.629 503.45C750.79 493.966 742.433 486.965 732.939 487.781C723.456 488.621 716.444 496.99 717.271 506.474C719.938 536.789 741.651 557.412 760.813 575.61C765.744 580.301 770.411 584.726 774.675 589.21C799.711 615.547 814.631 651.483 815.596 687.81C816.562 724.137 803.596 760.821 779.997 788.457C773.813 795.7 774.675 806.586 781.917 812.771C785.17 815.541 789.147 816.898 793.101 816.898V816.909Z" fill="white"/>
<path d="M-1.72516 224.894C-0.644672 224.894 0.447344 224.79 1.53933 224.583C10.8959 222.79 17.0225 213.754 15.2293 204.396L5.33253 152.78C3.53937 143.422 -5.49537 137.295 -14.852 139.088C-24.2085 140.881 -30.3351 149.917 -28.542 159.275L-18.6452 210.892C-17.0589 219.146 -9.84028 224.894 -1.7366 224.894H-1.72516Z" fill="white"/>
<path d="M322.396 96.7605C343.488 96.7605 358.58 89.8859 367.397 76.2403C375.65 63.4683 376.225 46.4314 368.949 30.6935C363.454 18.7952 354.891 9.93186 347.327 2.12613C340.706 -4.72543 329.798 -4.90938 322.947 1.71226C316.096 8.33391 315.913 19.2436 322.533 26.0951C328.465 32.2339 334.591 38.5682 337.637 45.1668C339.787 49.8227 340.109 54.9153 338.419 57.5364C335.557 61.9738 325.177 63.4109 310.671 61.3761C265.992 55.1223 222.657 42.1434 181.886 22.8073C173.276 18.7262 163 22.3934 158.92 31.0039C154.839 39.6143 158.506 49.8917 167.115 53.9727C211.047 74.8033 257.738 88.7938 305.889 95.5304C311.74 96.3466 317.246 96.7605 322.396 96.7605Z" fill="white"/>
<path d="M238.191 176.129C241.847 176.129 245.525 174.979 248.651 172.588C256.215 166.805 257.663 155.988 251.881 148.412L227.409 116.373C221.628 108.809 210.811 107.36 203.236 113.142C195.673 118.925 194.225 129.743 200.006 137.318L224.478 169.357C227.869 173.795 233.007 176.129 238.191 176.129Z" fill="white"/>
<path d="M376.455 371.604C377.524 371.604 378.605 371.501 379.685 371.294C407.617 365.994 433.767 351.716 453.331 331.093C459.883 324.184 459.595 313.274 452.687 306.71C445.779 300.157 434.87 300.445 428.307 307.354C413.686 322.77 394.134 333.449 373.248 337.404C363.891 339.174 357.742 348.199 359.523 357.556C361.098 365.822 368.328 371.593 376.444 371.593L376.455 371.604Z" fill="white"/>
<path d="M363.917 229.94C372.665 229.94 380.159 223.307 381.056 214.409L383.516 189.819C384.458 180.347 377.55 171.897 368.078 170.943C358.595 170 350.158 176.909 349.204 186.382L346.744 210.972C345.802 220.444 352.71 228.894 362.182 229.848C362.768 229.906 363.343 229.94 363.917 229.94Z" fill="white"/>
<path d="M574.913 244.126C578.913 244.126 582.89 243.379 586.545 241.827C601.212 235.619 607.787 221.559 611.707 213.156L636.96 159.114C640.995 150.48 637.271 140.226 628.638 136.191C620.017 132.156 609.753 135.88 605.718 144.514L580.464 198.556C579.717 200.166 578.257 203.269 576.694 205.867C574.395 201.867 570.499 198.786 565.648 197.659C556.372 195.498 547.107 201.269 544.946 210.546C542.705 220.191 546.096 229.928 554.027 236.608C559.866 241.528 567.441 244.137 574.901 244.137L574.913 244.126Z" fill="white"/>
<path d="M565.806 67.756C573.691 67.756 580.818 62.3069 582.611 54.2828L594.761 0.160063C596.842 -9.12863 591.002 -18.3599 581.715 -20.4406C572.416 -22.5214 563.197 -16.6815 561.116 -7.39276L548.967 46.73C546.886 56.0187 552.725 65.2499 562.013 67.3307C563.289 67.6181 564.553 67.756 565.806 67.756Z" fill="white"/>
<path d="M63.9763 601.179C65.1028 601.179 66.2293 601.075 67.3787 600.845C76.7123 598.983 82.7699 589.89 80.9078 580.555L75.9882 555.965C74.126 546.631 65.0338 540.572 55.7002 542.435C46.3666 544.297 40.3089 553.39 42.171 562.725L47.0908 587.315C48.7345 595.511 55.9301 601.179 63.9763 601.179Z" fill="white"/>
<path d="M804.517 53.2373C805.459 53.2373 806.425 53.1569 807.39 52.9959C816.781 51.421 823.115 42.5347 821.54 33.1425C813.735 -13.4159 816.379 -62.0322 829.207 -107.464C831.793 -116.626 826.46 -126.156 817.299 -128.743C808.137 -131.33 798.608 -125.995 796.022 -116.833C781.826 -66.5271 778.895 -12.6917 787.539 38.8445C788.953 47.271 796.252 53.2373 804.528 53.2373H804.517Z" fill="white"/>
<path d="M2.54823 50.4668C5.67476 50.4668 8.82428 49.6161 11.6749 47.8457L31.3422 35.5566C39.4228 30.5099 41.8712 19.8762 36.8251 11.7945C31.779 3.7129 21.1465 1.26425 13.0658 6.31096L-6.60148 18.6001C-14.6707 23.6468 -17.1305 34.2805 -12.0843 42.3622C-8.80839 47.5928 -3.19906 50.4668 2.54823 50.4668Z" fill="white"/>
<path d="M153.522 32.867C155.579 32.867 157.66 32.4991 159.694 31.7174C168.58 28.3031 173.028 18.3246 169.614 9.43829C153.28 -33.0966 149.395 -81.092 158.671 -125.708C160.614 -135.031 154.625 -144.159 145.303 -146.101C135.981 -148.033 126.854 -142.055 124.912 -132.732C114.302 -81.7243 118.751 -26.8428 137.418 21.7964C140.05 28.6595 146.59 32.867 153.522 32.867Z" fill="white"/>
</g>
</g>
<defs>
<radialGradient id="paint0_radial_286_38675" cx="0" cy="0" r="1" gradientUnits="userSpaceOnUse" gradientTransform="translate(558.773 558.773) rotate(90) scale(558.773)">
<stop stop-color="#FFF2BA"/>
<stop offset="1" stop-color="#FCD52C"/>
</radialGradient>
<clipPath id="clip0_286_38675">
<rect width="1118.04" height="559.519" fill="white" transform="matrix(-1 8.74228e-08 8.74228e-08 1 841.988 -0.329102)"/>
</clipPath>
</defs>
</svg>
