<svg xmlns="http://www.w3.org/2000/svg" width="843" height="556" fill="none" viewBox="0 0 843 556"><mask id="a" width="1119" height="1119" x="-276" y="0" maskUnits="userSpaceOnUse" style="mask-type:alpha"><circle cx="283.261" cy="559.184" r="559.018" fill="#d9d9d9"/></mask><g mask="url(#a)"><g clip-path="url(#b)"><circle cx="558.773" cy="558.773" r="558.773" fill="url(#c)" transform="matrix(-1 0 0 1 842.989 -.33)"/></g><g fill="#fff" style="mix-blend-mode:soft-light"><path d="M353.662 815.979c15.713 0 31.357-.874 46.875-2.633 94.818-10.748 179.407-54.042 232.064-118.775 29.219-35.925 50.323-79.069 64.507-131.893 11.15-41.523 17.748-87.553 20.771-144.86 1.196-22.75 1.862-45.903 2.506-68.286 2.011-70.067 4.092-142.514 23.047-209.765 2.356-8.37-1.886-17.187-9.897-20.567s-17.288-.253-21.633 7.277c-51.795 89.875-124.935 167.576-211.523 224.688-51.381 33.89-93.21 48.455-131.625 45.834-46.622-3.184-94.003-34.338-126.728-83.345-30.817-46.145-46.955-101.371-62.553-154.77-2.667-9.139-12.242-14.393-21.38-11.714-9.138 2.667-14.38 12.243-11.713 21.382 16.334 55.905 33.219 113.706 66.979 164.254 17.851 26.728 40.323 49.777 65.002 66.642 27.978 19.129 57.599 29.878 88.06 31.958 60.887 4.162 116.451-27.371 152.958-51.444 66.83-44.087 126.038-99.819 174.338-163.725-5.253 44.156-6.54 88.68-7.781 132.307-.633 22.175-1.299 45.11-2.472 67.458-4.23 80.368-16.874 182.187-77.588 256.807-47.013 57.801-123.268 96.531-209.202 106.28a375 375 0 0 1-42.369 2.379c-118.106 0-237.363-54.306-312.87-144.917C-43.12 535.076-73.018 387.814-34.73 261.393c2.759-9.116-2.39-18.738-11.506-21.497s-18.736 2.391-21.495 11.507c-20.54 67.826-23.667 141.779-9.034 213.847 14.632 72.068 46.346 138.94 91.715 193.384 45.369 54.445 105.417 97.693 173.66 125.076 53.208 21.348 109.486 32.292 165.074 32.292z"/><path d="M478.68 620.41c9.253 0 16.897-7.334 17.219-16.646.322-9.518-7.127-17.496-16.644-17.83-97.911-3.368-192.649-40.523-266.755-104.613C138.394 417.232 87.968 328.84 70.519 232.423c-1.701-9.369-10.667-15.588-20.035-13.898-9.368 1.701-15.587 10.668-13.897 20.037 9.333 51.525 27.449 101.13 53.864 147.435s59.886 87.151 99.485 121.409c39.599 34.246 84.842 61.491 134.475 80.954 49.622 19.462 101.325 30.246 153.648 32.05zM362.15 155.792c29.346 0 59.669-9.151 85.359-27.05 37.875-26.383 66.013-70.113 79.209-123.155 12.035-48.375 10.828-98.808 8.058-141.768-.609-9.507-8.805-16.715-18.311-16.094-9.506.609-16.713 8.817-16.092 18.313 2.597 40.304 3.793 87.426-7.104 131.214-11.184 44.926-34.426 81.575-65.45 103.176-34.484 24.015-79.175 27.797-111.222 9.427-8.264-4.737-18.793-1.874-23.529 6.38-4.736 8.265-1.885 18.796 6.379 23.532 18.713 10.737 40.438 16.014 62.715 16.014zM283.614 21.508a17.22 17.22 0 0 0 13.621-6.656c5.851-7.518 4.506-18.347-3.012-24.199L183.53-95.532c-7.517-5.851-18.345-4.506-24.196 3.012-5.85 7.519-4.506 18.348 3.012 24.2l110.693 86.184a17.16 17.16 0 0 0 10.575 3.633zm-549.011-13.15c.425 0 .85-.012 1.287-.046l242.34-17.83a17.25 17.25 0 0 0 14.012-25.2c-37.978-72.585-24.138-167.955 32.886-226.768 57.037-58.802 151.924-75.54 225.628-39.787 8.563 4.15 18.885.574 23.035-7.99s.574-18.888-7.989-23.038C179.098-374.353 67.462-354.672.369-285.489c-61.128 63.02-80.071 161.736-49.174 243.38l-217.834 16.025c-9.494.701-16.632 8.967-15.931 18.462.667 9.07 8.23 15.98 17.173 15.98"/><path d="M104.624 76.01c1.449 0 2.92-.184 4.391-.574 9.208-2.415 14.713-11.841 12.3-21.06L85.199-83.289c-2.414-9.209-11.84-14.727-21.058-12.301-9.208 2.414-14.714 11.84-12.3 21.06L87.957 63.135c2.035 7.748 9.024 12.875 16.667 12.875m645.305-45.741c8.587 0 16.024-6.415 17.093-15.163 11.736-96.232-38.702-197.282-122.659-245.737-83.956-48.455-196.672-41.581-274.111 16.715-7.609 5.725-9.138 16.543-3.402 24.153 5.724 7.61 16.54 9.139 24.15 3.403 66.714-50.226 163.82-56.146 236.144-14.404 72.324 41.741 115.774 128.8 105.67 211.697-1.149 9.45 5.575 18.048 15.023 19.21.713.091 1.414.126 2.104.126zM126.668 640.333c2.322 0 4.69-.472 6.954-1.472 8.713-3.839 12.656-14.025 8.816-22.739-11.287-25.59-10.736-55.881 1.483-81.034 4.161-8.565.586-18.888-7.977-23.05s-18.886-.586-23.047 7.978c-16.586 34.155-17.345 75.287-2.011 110.039 2.85 6.45 9.161 10.289 15.782 10.289z"/><path d="M657.159 54.157c2.356 0 4.759-.483 7.046-1.518 8.69-3.897 12.575-14.105 8.678-22.785L623.353-80.62c-3.896-8.691-14.092-12.577-22.782-8.68s-12.575 14.094-8.678 22.785l49.53 110.476c2.873 6.403 9.161 10.197 15.747 10.197zM509.703 177.91c3.069 0 6.184-.816 9-2.552l100.624-61.733c8.115-4.978 10.655-15.6 5.678-23.716s-15.598-10.657-23.713-5.68l-100.624 61.734c-8.115 4.978-10.655 15.6-5.678 23.716a17.25 17.25 0 0 0 14.713 8.231m-12.024 103.325c8.954 0 16.518-6.921 17.173-15.991.69-9.496-6.437-17.761-15.943-18.451-25.081-1.839-49.162-17.233-61.37-39.224-4.62-8.323-15.115-11.335-23.437-6.714s-11.334 15.117-6.713 23.44c17.966 32.384 52.071 54.181 89.003 56.882.425.035.85.046 1.276.046zm-134.647 28.567c6.276 0 12.334-3.449 15.38-9.427 4.322-8.484.943-18.865-7.552-23.187-32.61-16.6-58.611-47.352-69.542-82.276-2.851-9.094-12.518-14.14-21.61-11.301-9.092 2.851-14.15 12.519-11.299 21.612 13.851 44.248 45.495 81.679 86.807 102.705a17.14 17.14 0 0 0 7.805 1.874zm261.825 248.83c2.035 0 4.058 0 6.081-.023a17.243 17.243 0 0 0 15.954-23.417c-20.598-53.744-19.828-115.098 2.115-168.312 3.633-8.806-.563-18.888-9.368-22.521s-18.885.564-22.518 9.37c-22.104 53.605-25.552 114.372-10.184 170.185a711.7 711.7 0 0 1-161.568-22.773c-9.218-2.403-18.633 3.127-21.035 12.335-2.402 9.219 3.127 18.635 12.334 21.037a746.7 746.7 0 0 0 188.178 24.119z"/><path d="M549.142 504.865c1.391 0 2.804-.172 4.207-.517a18.23 18.23 0 0 0 12.506-10.979c4.299-10.932-1.713-20.198-14.886-40.5-2.977-4.598-7.552-11.645-9.873-15.83a17.4 17.4 0 0 0-.874-5.575c-2.839-8.576-11.805-13.497-20.564-11.301a18 18 0 0 0-3.092 1.081l-43.162 17.945c-8.793 3.656-12.954 13.749-9.299 22.543 3.655 8.795 13.747 12.956 22.541 9.301l27.656-11.508c2.195 3.587 4.781 7.576 7.736 12.117 2.977 4.598 7.552 11.645 9.873 15.83a17.8 17.8 0 0 0 .518 4.357c1.965 7.828 8.988 13.048 16.713 13.048zm-213.746 15.186c1.92 0 3.851-.321 5.736-.988l41.794-14.749c8.978-3.173 13.69-13.025 10.518-22.004-3.173-8.978-13.024-13.691-22.001-10.518l-31.231 11.024c-7.276-6.932-17.874-15.91-31.84-27.636-13.368-11.22-31.667-26.59-35.391-31.556-5.713-7.622-16.518-9.162-24.139-3.449s-9.161 16.52-3.448 24.141c5.689 7.599 19.219 19.153 40.805 37.282 13.369 11.22 31.668 26.59 35.392 31.556a17.26 17.26 0 0 0 13.794 6.897zM201.061 410.817a17.2 17.2 0 0 0 11.38-4.288c7.149-6.288 7.851-17.187 1.563-24.337l-43.668-49.674c-6.287-7.15-17.184-7.852-24.334-1.563-7.149 6.288-7.851 17.186-1.563 24.337l43.668 49.673a17.22 17.22 0 0 0 12.954 5.863zm-78.532-143.848c.598 0 1.195-.035 1.804-.092 9.472-.989 16.357-9.461 15.369-18.934l-4.345-41.856c-.989-9.473-9.46-16.359-18.932-15.37-9.471.988-16.357 9.461-15.368 18.933l4.345 41.857c.919 8.863 8.402 15.462 17.127 15.462M56.71 192.406a17.2 17.2 0 0 0 6.77-1.391c8.76-3.736 12.829-13.875 9.081-22.635l-32.46-76c-3.736-8.76-13.874-12.829-22.633-9.081-8.759 3.736-12.828 13.875-9.08 22.635l32.46 76c2.793 6.552 9.173 10.472 15.863 10.472M60.52 507.82c5.08 0 10.104-2.23 13.506-6.518 5.92-7.461 4.679-18.302-2.77-24.234-41.012-32.591-56.657-95.692-35.621-143.664 3.827-8.726-.15-18.888-8.863-22.716-8.724-3.828-18.885.149-22.713 8.863-27.472 62.641-7.805 141.975 45.748 184.521a17.18 17.18 0 0 0 10.713 3.748m126.607 105.429c7.495 0 14.392-4.932 16.564-12.496l9.219-32.143c2.621-9.151-2.667-18.704-11.817-21.336-9.149-2.621-18.701 2.667-21.322 11.818l-9.219 32.142c-2.621 9.151 2.667 18.704 11.817 21.325 1.586.46 3.184.667 4.758.667zm599.044-456.652c1.471 0 2.965-.184 4.448-.586 9.196-2.449 14.667-11.898 12.219-21.107-9.495-35.591-38.714-64.377-74.439-73.332-9.242-2.31-18.598 3.3-20.909 12.542s3.299 18.6 12.541 20.911c23.391 5.863 43.289 25.452 49.496 48.766 2.057 7.714 9.023 12.806 16.644 12.806M426.687 19.68c5.242 0 10.426-2.38 13.816-6.91 12.886-17.197 19.093-39.522 18.978-68.262-.034-9.703-.724-19.256-1.402-28.487-.805-11.059-1.552-21.497-1.23-31.809.437-13.772 3.368-32.798 14.897-45.19 8.103-8.714 23.357-13.761 33.139-7.369 7.977 5.207 18.655 2.966 23.862-5.013 5.207-7.978 2.966-18.657-5.011-23.865-11.828-7.725-26.622-10.266-41.691-7.173-13.575 2.793-26.196 9.863-35.553 19.922-14.885 16.002-23.219 39.373-24.115 67.596-.38 12.105.471 23.946 1.31 35.396.655 9.059 1.276 17.6 1.31 26.13.081 20.67-3.988 36.638-12.092 47.455-5.713 7.622-4.161 18.428 3.46 24.142a17.17 17.17 0 0 0 10.322 3.448zm335.471 439.673c4.437 0 8.862-1.701 12.23-5.092 14-14.106 31.438-31.66 38.162-55.491 6.081-21.544 1.954-43.57-1.368-61.262l-25.771-137.48c-1.758-9.357-10.77-15.531-20.127-13.772s-15.529 10.761-13.77 20.13l25.771 137.479c2.793 14.887 5.954 31.763 2.069 45.536-4.299 15.232-17.656 28.682-29.438 40.546-6.713 6.759-6.678 17.68.08 24.383a17.18 17.18 0 0 0 12.15 5.012zm31.943 357.556c4.874 0 9.713-2.057 13.116-6.046 29.058-34.04 45.047-79.23 43.852-123.972s-19.564-89.002-50.404-121.443c-4.874-5.127-10.069-10.071-15.104-14.841-16.15-15.347-31.403-29.832-32.932-47.157-.839-9.484-9.196-16.485-18.69-15.669-9.483.84-16.495 9.209-15.667 18.693 2.666 30.315 24.38 50.938 43.541 69.136 4.931 4.691 9.598 9.116 13.863 13.6 25.035 26.337 39.955 62.273 40.92 98.6s-12 73.011-35.598 100.647c-6.184 7.243-5.322 18.129 1.919 24.314a17.2 17.2 0 0 0 11.184 4.127zM-.724 224.894c1.08 0 2.173-.103 3.265-.31 9.356-1.794 15.483-10.829 13.69-20.187L6.334 152.78c-1.793-9.357-10.828-15.485-20.185-13.691s-15.483 10.829-13.69 20.186l9.897 51.617c1.586 8.254 8.805 14.002 16.909 14.002zM323.397 96.76c21.092 0 36.185-6.874 45.001-20.52 8.253-12.772 8.828-29.809 1.552-45.546-5.495-11.899-14.058-20.762-21.622-28.568-6.62-6.851-17.529-7.035-24.38-.414s-7.034 17.532-.413 24.383c5.931 6.139 12.057 12.473 15.104 19.072 2.149 4.656 2.471 9.748.781 12.37-2.862 4.437-13.242 5.874-27.748 3.84a443.8 443.8 0 0 1-128.785-38.57c-8.609-4.08-18.886-.414-22.966 8.197s-.414 18.888 8.195 22.969A478.3 478.3 0 0 0 306.891 95.53c5.85.817 11.356 1.23 16.506 1.23m-84.205 79.369c3.655 0 7.333-1.15 10.46-3.541 7.563-5.783 9.011-16.6 3.23-24.176l-24.472-32.039c-5.782-7.564-16.599-9.013-24.173-3.231-7.564 5.783-9.012 16.601-3.23 24.176l24.472 32.039c3.39 4.438 8.529 6.772 13.713 6.772m138.264 195.475c1.069 0 2.15-.103 3.23-.31 27.932-5.3 54.082-19.578 73.646-40.201 6.552-6.909 6.265-17.819-.644-24.383-6.908-6.553-17.816-6.265-24.38.644-14.621 15.416-34.173 26.095-55.059 30.05-9.356 1.77-15.506 10.795-13.724 20.152 1.574 8.266 8.805 14.037 16.92 14.037zm-12.539-141.663c8.747 0 16.242-6.634 17.138-15.531l2.46-24.59c.943-9.473-5.965-17.922-15.437-18.877-9.483-.942-17.92 5.967-18.874 15.439l-2.46 24.59c-.942 9.473 5.966 17.922 15.437 18.877.587.057 1.161.092 1.736.092m210.995 14.185c4 0 7.978-.747 11.633-2.299 14.667-6.208 21.242-20.267 25.161-28.671l25.254-54.042c4.035-8.633.31-18.888-8.322-22.923-8.621-4.035-18.886-.31-22.92 8.323l-25.254 54.043c-.747 1.609-2.207 4.713-3.77 7.311a17.2 17.2 0 0 0-11.046-8.208c-9.276-2.161-18.541 3.61-20.702 12.887-2.242 9.645 1.149 19.382 9.081 26.061 5.839 4.92 13.414 7.53 20.874 7.53zm-9.105-176.37c7.885 0 15.012-5.45 16.805-13.473L595.761.16c2.081-9.289-3.758-18.52-13.046-20.6-9.299-2.081-18.518 3.759-20.598 13.047l-12.15 54.123c-2.08 9.289 3.759 18.52 13.046 20.6 1.276.288 2.541.426 3.794.426M64.977 601.179a17.2 17.2 0 0 0 3.402-.334c9.334-1.862 15.392-10.955 13.53-20.29l-4.92-24.59c-1.862-9.334-10.955-15.393-20.288-13.53-9.334 1.862-15.391 10.955-13.53 20.29l4.92 24.59c1.644 8.196 8.84 13.864 16.886 13.864m740.54-547.942c.942 0 1.908-.08 2.873-.241 9.391-1.575 15.725-10.461 14.15-19.854-7.805-46.558-5.161-95.174 7.667-140.606 2.586-9.162-2.747-18.692-11.908-21.279s-18.69 2.748-21.277 11.91c-14.196 50.306-17.127 104.141-8.483 155.678 1.414 8.426 8.713 14.392 16.989 14.392zM3.549 50.467c3.126 0 6.276-.85 9.127-2.621l19.667-12.29c8.08-5.046 10.529-15.68 5.483-23.761-5.046-8.082-15.679-10.53-23.76-5.484L-5.6 18.601c-8.07 5.046-10.529 15.68-5.483 23.761A17.23 17.23 0 0 0 3.55 50.467"/><path d="M154.523 32.867c2.057 0 4.138-.368 6.172-1.15 8.886-3.414 13.334-13.392 9.92-22.279-16.334-42.535-20.219-90.53-10.943-135.146 1.943-9.323-4.046-18.451-13.368-20.393-9.322-1.932-18.449 4.046-20.391 13.369-10.61 51.008-6.161 105.89 12.506 154.528 2.632 6.864 9.172 11.071 16.104 11.071"/></g></g><defs><radialGradient id="c" cx="0" cy="0" r="1" gradientTransform="rotate(90 0 558.773)scale(558.773)" gradientUnits="userSpaceOnUse"><stop stop-color="#4687ee"/><stop offset="1" stop-color="#1c4fa0"/></radialGradient><clipPath id="b"><path fill="#fff" d="m842.989-.33-1118.04.001V559.19h1118.04z"/></clipPath></defs></svg>