<svg width="843" height="556" viewBox="0 0 843 556" fill="none" xmlns="http://www.w3.org/2000/svg">
<mask id="mask0_286_44451" style="mask-type:alpha" maskUnits="userSpaceOnUse" x="-276" y="0" width="1119" height="1119">
<circle cx="283.261" cy="559.184" r="559.018" fill="#D9D9D9"/>
</mask>
<g mask="url(#mask0_286_44451)">
<g clip-path="url(#clip0_286_44451)">
<circle cx="558.773" cy="558.773" r="558.773" transform="matrix(-1 8.74228e-08 8.74228e-08 1 842.989 -0.329102)" fill="url(#paint0_radial_286_44451)"/>
</g>
<g style="mix-blend-mode:soft-light">
<path d="M353.662 815.979C369.375 815.979 385.019 815.105 400.537 813.346C495.355 802.598 579.944 759.304 632.601 694.571C661.82 658.646 682.924 615.502 697.108 562.678C708.258 521.155 714.856 475.125 717.879 417.818C719.075 395.068 719.741 371.915 720.385 349.532C722.396 279.465 724.477 207.018 743.432 139.767C745.788 131.397 741.546 122.58 733.535 119.2C725.523 115.821 716.247 118.947 711.902 126.477C660.107 216.352 586.967 294.053 500.379 351.165C448.998 385.055 407.169 399.62 368.754 396.999C322.132 393.815 274.751 362.661 242.026 313.654C211.209 267.509 195.071 212.283 179.473 158.884C176.806 149.745 167.231 144.491 158.093 147.17C148.955 149.837 143.713 159.413 146.38 168.552C162.714 224.457 179.599 282.258 213.359 332.806C231.21 359.534 253.682 382.583 278.361 399.448C306.339 418.577 335.96 429.326 366.421 431.406C427.308 435.568 482.872 404.035 519.379 379.962C586.209 335.875 645.417 280.143 693.717 216.237C688.464 260.393 687.177 304.917 685.936 348.544C685.303 370.719 684.637 393.654 683.464 416.002C679.234 496.37 666.59 598.189 605.876 672.809C558.863 730.61 482.608 769.34 396.674 779.089C382.628 780.687 368.467 781.468 354.305 781.468C236.199 781.468 116.942 727.162 41.4344 636.551C-43.1197 535.076 -73.0172 387.814 -34.7287 261.393C-31.97 252.277 -37.1196 242.655 -46.2347 239.896C-55.35 237.137 -64.9709 242.287 -67.7296 251.403C-88.2704 319.229 -91.397 393.182 -76.7643 465.25C-62.1318 537.318 -30.4182 604.19 14.9509 658.634C60.32 713.079 120.368 756.327 188.611 783.71C241.819 805.058 298.097 816.002 353.685 816.002L353.662 815.979Z" fill="white"/>
<path d="M478.68 620.41C487.933 620.41 495.577 613.076 495.899 603.764C496.221 594.246 488.772 586.268 479.255 585.934C381.344 582.566 286.606 545.411 212.5 481.321C138.394 417.232 87.9677 328.84 70.519 232.423C68.8177 223.054 59.852 216.835 50.4839 218.525C41.1158 220.226 34.8972 229.193 36.5869 238.562C45.9205 290.087 64.0359 339.692 90.4505 385.997C116.865 432.303 150.337 473.148 189.936 507.406C229.535 541.652 274.778 568.897 324.411 588.36C374.033 607.822 425.736 618.606 478.059 620.41C478.266 620.41 478.462 620.41 478.669 620.41H478.68Z" fill="white"/>
<path d="M362.15 155.792C391.496 155.792 421.819 146.641 447.509 128.742C485.384 102.359 513.522 58.6288 526.718 5.58664C538.753 -42.7882 537.546 -93.2207 534.776 -136.181C534.167 -145.688 525.971 -152.896 516.465 -152.275C506.959 -151.666 499.752 -143.458 500.373 -133.962C502.97 -93.6576 504.166 -46.5358 493.269 -2.74791C482.085 42.1781 458.843 78.8271 427.819 100.428C393.335 124.443 348.644 128.225 316.597 109.855C308.333 105.118 297.804 107.981 293.068 116.235C288.332 124.5 291.183 135.031 299.447 139.767C318.16 150.504 339.885 155.781 362.162 155.781L362.15 155.792Z" fill="white"/>
<path d="M283.614 21.5082C288.752 21.5082 293.832 19.2206 297.235 14.8521C303.086 7.3338 301.741 -3.49537 294.223 -9.34679L183.53 -95.5316C176.013 -101.383 165.185 -100.038 159.334 -92.5197C153.484 -85.0014 154.828 -74.1722 162.346 -68.3208L273.039 17.8641C276.188 20.3127 279.912 21.4968 283.614 21.4968V21.5082Z" fill="white"/>
<path d="M-265.397 8.3576C-264.972 8.3576 -264.547 8.34613 -264.11 8.31165L-21.7695 -9.51852C-15.9762 -9.94388 -10.7922 -13.2547 -7.96451 -18.3359C-5.13684 -23.4171 -5.06787 -29.5674 -7.7576 -34.7176C-45.7357 -107.303 -31.8962 -202.673 25.1284 -261.486C82.1646 -320.288 177.052 -337.026 250.756 -301.273C259.319 -297.123 269.641 -300.699 273.791 -309.263C277.94 -317.827 274.365 -328.151 265.802 -332.301C179.098 -374.353 67.4629 -354.672 0.36908 -285.489C-60.7591 -222.469 -79.7021 -123.753 -48.8047 -42.1094L-266.639 -26.0841C-276.133 -25.3829 -283.271 -17.1173 -282.57 -7.6217C-281.903 1.44855 -274.34 8.3576 -265.397 8.3576Z" fill="white"/>
<path d="M104.624 76.0105C106.073 76.0105 107.544 75.8265 109.015 75.4357C118.223 73.0215 123.728 63.5949 121.315 54.3752L85.1986 -83.2884C82.7847 -92.4966 73.3592 -98.0146 64.1406 -95.589C54.9334 -93.1748 49.4275 -83.7482 51.8414 -74.5285L87.9573 63.1351C89.9919 70.8833 96.9806 76.0105 104.624 76.0105Z" fill="white"/>
<path d="M749.929 30.269C758.516 30.269 765.953 23.8542 767.022 15.1058C778.758 -81.1264 728.32 -182.176 644.363 -230.631C560.407 -279.086 447.691 -272.212 370.252 -213.916C362.643 -208.191 361.114 -197.373 366.85 -189.763C372.574 -182.153 383.39 -180.624 391 -186.36C457.714 -236.586 554.82 -242.506 627.144 -200.764C699.468 -159.023 742.918 -71.9642 732.814 10.9328C731.665 20.3824 738.389 28.9814 747.837 30.1425C748.55 30.2344 749.251 30.269 749.941 30.269H749.929Z" fill="white"/>
<path d="M126.668 640.333C128.99 640.333 131.358 639.861 133.622 638.861C142.335 635.022 146.278 624.836 142.438 616.122C131.151 590.532 131.702 560.241 143.921 535.088C148.082 526.523 144.507 516.2 135.944 512.038C127.38 507.877 117.058 511.452 112.897 520.016C96.3106 554.171 95.552 595.303 110.886 630.055C113.736 636.505 120.047 640.344 126.668 640.344V640.333Z" fill="white"/>
<path d="M657.159 54.1566C659.515 54.1566 661.918 53.6738 664.205 52.6391C672.895 48.742 676.78 38.5336 672.883 29.8542L623.353 -80.6215C619.457 -89.3124 609.261 -93.198 600.571 -89.3009C591.881 -85.4038 587.996 -75.2069 591.893 -66.516L641.423 43.9597C644.296 50.3629 650.584 54.1566 657.17 54.1566H657.159Z" fill="white"/>
<path d="M509.703 177.91C512.772 177.91 515.887 177.094 518.703 175.358L619.327 113.625C627.442 108.647 629.982 98.0249 625.005 89.9088C620.028 81.7927 609.407 79.2521 601.292 84.2298L500.668 145.963C492.553 150.941 490.013 161.563 494.99 169.679C498.243 174.979 503.91 177.91 509.703 177.91Z" fill="white"/>
<path d="M497.679 281.235C506.633 281.235 514.197 274.314 514.852 265.244C515.542 255.748 508.415 247.483 498.909 246.793C473.828 244.954 449.747 229.56 437.539 207.569C432.919 199.246 422.424 196.234 414.102 200.855C405.78 205.477 402.768 215.972 407.389 224.295C425.355 256.679 459.46 278.476 496.392 281.177C496.817 281.212 497.242 281.223 497.668 281.223L497.679 281.235Z" fill="white"/>
<path d="M363.032 309.802C369.308 309.802 375.366 306.353 378.412 300.375C382.734 291.891 379.355 281.51 370.86 277.188C338.25 260.588 312.249 229.836 301.318 194.912C298.467 185.818 288.8 180.772 279.708 183.611C270.616 186.462 265.558 196.13 268.409 205.223C282.26 249.471 313.904 286.902 355.216 307.928C357.722 309.204 360.389 309.802 363.021 309.802H363.032Z" fill="white"/>
<path d="M624.857 558.632C626.892 558.632 628.915 558.632 630.938 558.609C636.593 558.563 641.858 555.746 645.042 551.079C648.226 546.412 648.915 540.468 646.892 535.192C626.294 481.448 627.064 420.094 649.007 366.88C652.64 358.074 648.444 347.992 639.639 344.359C630.834 340.727 620.754 344.923 617.121 353.729C595.017 407.334 591.569 468.101 606.937 523.914C552.418 522.546 498.175 514.901 445.369 501.141C436.151 498.738 426.736 504.268 424.334 513.476C421.932 522.695 427.461 532.111 436.668 534.513C498.095 550.516 561.373 558.632 624.846 558.632H624.857Z" fill="white"/>
<path d="M549.142 504.865C550.533 504.865 551.946 504.693 553.349 504.348C559.039 502.922 563.705 498.818 565.855 493.369C570.154 482.437 564.142 473.171 550.969 452.869C547.992 448.271 543.417 441.224 541.096 437.039C541.107 435.188 540.831 433.303 540.222 431.464C537.383 422.888 528.417 417.967 519.658 420.163C518.589 420.428 517.555 420.795 516.566 421.244L473.404 439.189C464.611 442.845 460.45 452.938 464.105 461.732C467.76 470.527 477.852 474.688 486.646 471.033L514.302 459.525C516.497 463.112 519.083 467.101 522.038 471.642C525.015 476.24 529.59 483.287 531.911 487.472C531.9 488.909 532.072 490.369 532.429 491.829C534.394 499.657 541.417 504.877 549.142 504.877V504.865Z" fill="white"/>
<path d="M335.396 520.051C337.316 520.051 339.247 519.73 341.132 519.063L382.926 504.314C391.904 501.141 396.616 491.289 393.444 482.31C390.271 473.332 380.42 468.619 371.443 471.792L340.212 482.816C332.936 475.884 322.338 466.906 308.372 455.18C295.004 443.96 276.705 428.59 272.981 423.624C267.268 416.002 256.463 414.462 248.842 420.175C241.221 425.888 239.681 436.695 245.394 444.316C251.083 451.915 264.613 463.469 286.199 481.598C299.568 492.818 317.867 508.188 321.591 513.154C324.913 517.58 330.074 520.051 335.385 520.051H335.396Z" fill="white"/>
<path d="M201.061 410.817C205.107 410.817 209.165 409.403 212.441 406.529C219.59 400.241 220.292 389.342 214.004 382.192L170.336 332.518C164.049 325.368 153.152 324.666 146.002 330.955C138.853 337.243 138.151 348.141 144.439 355.292L188.107 404.965C191.521 408.84 196.279 410.828 201.061 410.828V410.817Z" fill="white"/>
<path d="M122.529 266.969C123.127 266.969 123.724 266.934 124.333 266.877C133.805 265.888 140.69 257.416 139.702 247.943L135.357 206.087C134.368 196.614 125.897 189.728 116.425 190.717C106.954 191.705 100.068 200.178 101.057 209.65L105.402 251.507C106.321 260.37 113.804 266.969 122.529 266.969Z" fill="white"/>
<path d="M56.7105 192.406C58.9749 192.406 61.2623 191.958 63.4808 191.015C72.2397 187.279 76.3087 177.14 72.5615 168.38L40.1008 92.3806C36.365 83.6207 26.2268 79.5511 17.4679 83.2988C8.70907 87.035 4.64003 97.1744 8.38727 105.934L40.848 181.934C43.6411 188.486 50.0206 192.406 56.7105 192.406Z" fill="white"/>
<path d="M60.5203 507.82C65.6009 507.82 70.624 505.59 74.0264 501.302C79.9461 493.841 78.7047 483 71.2562 477.068C30.2436 444.477 14.5994 381.376 35.6345 333.404C39.4622 324.678 35.4851 314.516 26.7722 310.688C18.0478 306.86 7.88657 310.837 4.05888 319.551C-23.4132 382.192 -3.74596 461.526 49.8073 504.072C52.9798 506.59 56.7615 507.82 60.5203 507.82Z" fill="white"/>
<path d="M187.127 613.249C194.622 613.249 201.519 608.317 203.691 600.753L212.91 568.61C215.531 559.459 210.243 549.906 201.093 547.274C191.944 544.653 182.392 549.941 179.771 559.092L170.552 591.234C167.931 600.385 173.219 609.938 182.369 612.559C183.955 613.019 185.553 613.226 187.127 613.226V613.249Z" fill="white"/>
<path d="M786.171 156.597C787.642 156.597 789.136 156.413 790.619 156.011C799.815 153.562 805.286 144.113 802.838 134.904C793.343 99.313 764.124 70.5273 728.399 61.572C719.157 59.2613 709.801 64.8713 707.49 74.114C705.18 83.3567 710.789 92.7144 720.031 95.0251C743.422 100.888 763.32 120.477 769.527 143.791C771.584 151.505 778.55 156.597 786.171 156.597Z" fill="white"/>
<path d="M426.687 19.6798C431.929 19.6798 437.113 17.3002 440.503 12.7708C453.389 -4.42708 459.596 -26.7522 459.481 -55.4919C459.447 -65.1945 458.757 -74.7476 458.079 -83.9788C457.274 -95.0379 456.527 -105.476 456.849 -115.788C457.286 -129.56 460.217 -148.586 471.746 -160.978C479.849 -169.692 495.103 -174.739 504.885 -168.347C512.862 -163.14 523.54 -165.381 528.747 -173.36C533.954 -181.338 531.713 -192.017 523.736 -197.225C511.908 -204.95 497.114 -207.491 482.045 -204.398C468.47 -201.605 455.849 -194.535 446.492 -184.476C431.607 -168.474 423.273 -145.103 422.377 -116.88C421.997 -104.775 422.848 -92.9341 423.687 -81.4842C424.342 -72.4254 424.963 -63.8839 424.997 -55.354C425.078 -34.6843 421.009 -18.7165 412.905 -7.89886C407.192 -0.277069 408.744 10.5291 416.365 16.2426C419.468 18.5647 423.089 19.6913 426.687 19.6913V19.6798Z" fill="white"/>
<path d="M762.158 459.353C766.595 459.353 771.02 457.652 774.388 454.261C788.388 440.155 805.826 422.601 812.55 398.77C818.631 377.226 814.504 355.2 811.182 337.508L785.411 200.028C783.653 190.671 774.641 184.497 765.284 186.256C755.928 188.015 749.755 197.017 751.514 206.386L777.285 343.865C780.078 358.752 783.239 375.628 779.354 389.401C775.055 404.633 761.698 418.083 749.916 429.947C743.203 436.706 743.238 447.627 749.996 454.33C753.364 457.675 757.755 459.342 762.146 459.342L762.158 459.353Z" fill="white"/>
<path d="M794.101 816.909C798.975 816.909 803.814 814.852 807.217 810.863C836.275 776.823 852.264 731.633 851.069 686.891C849.873 642.149 831.505 597.889 800.665 565.448C795.791 560.321 790.596 555.377 785.561 550.607C769.411 535.26 754.158 520.775 752.629 503.45C751.79 493.966 743.433 486.965 733.939 487.781C724.456 488.621 717.444 496.99 718.272 506.474C720.938 536.789 742.652 557.412 761.813 575.61C766.744 580.301 771.411 584.726 775.676 589.21C800.711 615.547 815.631 651.483 816.596 687.81C817.562 724.137 804.596 760.821 780.998 788.457C774.814 795.7 775.676 806.586 782.917 812.771C786.17 815.541 790.147 816.898 794.101 816.898V816.909Z" fill="white"/>
<path d="M-0.723942 224.894C0.356548 224.894 1.44856 224.791 2.54055 224.584C11.8971 222.79 18.0237 213.755 16.2306 204.397L6.33375 152.78C4.54059 143.423 -4.49414 137.295 -13.8507 139.089C-23.2073 140.882 -29.3339 149.918 -27.5407 159.275L-17.6439 210.892C-16.0577 219.146 -8.83906 224.894 -0.735378 224.894H-0.723942Z" fill="white"/>
<path d="M323.397 96.7605C344.489 96.7605 359.582 89.8859 368.398 76.2403C376.651 63.4683 377.226 46.4314 369.95 30.6935C364.455 18.7952 355.892 9.93186 348.328 2.12613C341.708 -4.72543 330.799 -4.90938 323.948 1.71226C317.098 8.33391 316.914 19.2436 323.535 26.0951C329.466 32.2339 335.592 38.5682 338.639 45.1668C340.788 49.8227 341.11 54.9153 339.42 57.5364C336.558 61.9738 326.178 63.4109 311.672 61.3761C266.993 55.1223 223.658 42.1434 182.887 22.8073C174.278 18.7262 164.001 22.3934 159.921 31.0039C155.84 39.6143 159.507 49.8917 168.116 53.9727C212.049 74.8033 258.74 88.7938 306.891 95.5304C312.741 96.3466 318.247 96.7605 323.397 96.7605Z" fill="white"/>
<path d="M239.192 176.129C242.847 176.129 246.525 174.979 249.652 172.588C257.215 166.805 258.663 155.988 252.882 148.412L228.41 116.373C222.628 108.809 211.811 107.36 204.237 113.142C196.673 118.925 195.225 129.743 201.007 137.318L225.479 169.357C228.869 173.795 234.008 176.129 239.192 176.129Z" fill="white"/>
<path d="M377.456 371.604C378.525 371.604 379.606 371.501 380.686 371.294C408.618 365.994 434.768 351.716 454.332 331.093C460.884 324.184 460.597 313.274 453.688 306.71C446.78 300.157 435.872 300.445 429.308 307.354C414.687 322.77 395.135 333.449 374.249 337.404C364.893 339.174 358.743 348.199 360.525 357.556C362.099 365.822 369.33 371.593 377.445 371.593L377.456 371.604Z" fill="white"/>
<path d="M364.917 229.941C373.664 229.941 381.159 223.307 382.055 214.41L384.515 189.82C385.458 180.347 378.55 171.898 369.078 170.943C359.595 170.001 351.158 176.91 350.204 186.382L347.744 210.972C346.802 220.445 353.71 228.894 363.181 229.849C363.768 229.906 364.342 229.941 364.917 229.941Z" fill="white"/>
<path d="M575.912 244.126C579.912 244.126 583.89 243.379 587.545 241.827C602.212 235.619 608.787 221.56 612.706 213.156L637.96 159.114C641.995 150.481 638.27 140.226 629.638 136.191C621.017 132.156 610.752 135.881 606.718 144.514L581.464 198.557C580.717 200.166 579.257 203.27 577.694 205.868C575.395 201.867 571.498 198.786 566.648 197.66C557.372 195.499 548.107 201.27 545.946 210.547C543.704 220.192 547.095 229.929 555.027 236.608C560.866 241.528 568.441 244.138 575.901 244.138L575.912 244.126Z" fill="white"/>
<path d="M566.807 67.756C574.692 67.756 581.819 62.3069 583.612 54.2828L595.761 0.160063C597.842 -9.12863 592.003 -18.3599 582.715 -20.4406C573.416 -22.5214 564.197 -16.6815 562.117 -7.39276L549.967 46.73C547.887 56.0187 553.726 65.2499 563.013 67.3307C564.289 67.6181 565.554 67.756 566.807 67.756Z" fill="white"/>
<path d="M64.977 601.179C66.1035 601.179 67.23 601.075 68.3795 600.845C77.7131 598.983 83.7707 589.89 81.9085 580.555L76.9889 555.965C75.1268 546.631 66.0345 540.572 56.7009 542.435C47.3673 544.297 41.3097 553.39 43.1718 562.725L48.0915 587.315C49.7352 595.511 56.9308 601.179 64.977 601.179Z" fill="white"/>
<path d="M805.517 53.2373C806.459 53.2373 807.425 53.1569 808.39 52.9959C817.781 51.421 824.115 42.5347 822.54 33.1425C814.735 -13.4159 817.379 -62.0322 830.207 -107.464C832.793 -116.626 827.46 -126.156 818.299 -128.743C809.138 -131.33 799.609 -125.995 797.022 -116.833C782.826 -66.5271 779.895 -12.6917 788.539 38.8445C789.953 47.271 797.252 53.2373 805.528 53.2373H805.517Z" fill="white"/>
<path d="M3.54884 50.4668C6.67537 50.4668 9.82489 49.6161 12.6755 47.8457L32.3428 35.5566C40.4235 30.5099 42.8718 19.8762 37.8257 11.7945C32.7796 3.7129 22.1471 1.26425 14.0664 6.31096L-5.60087 18.6001C-13.6701 23.6468 -16.1299 34.2805 -11.0837 42.3622C-7.80778 47.5928 -2.19845 50.4668 3.54884 50.4668Z" fill="white"/>
<path d="M154.523 32.867C156.58 32.867 158.661 32.4991 160.695 31.7174C169.581 28.3031 174.029 18.3246 170.615 9.43829C154.281 -33.0966 150.396 -81.092 159.672 -125.708C161.615 -135.031 155.626 -144.159 146.304 -146.101C136.982 -148.033 127.855 -142.055 125.913 -132.732C115.303 -81.7243 119.752 -26.8428 138.419 21.7964C141.051 28.6595 147.591 32.867 154.523 32.867Z" fill="white"/>
</g>
</g>
<defs>
<radialGradient id="paint0_radial_286_44451" cx="0" cy="0" r="1" gradientUnits="userSpaceOnUse" gradientTransform="translate(558.773 558.773) rotate(90) scale(558.773)">
<stop stop-color="#4687EE"/>
<stop offset="1" stop-color="#1C4FA0"/>
</radialGradient>
<clipPath id="clip0_286_44451">
<rect width="1118.04" height="559.519" fill="white" transform="matrix(-1 8.74228e-08 8.74228e-08 1 842.989 -0.329102)"/>
</clipPath>
</defs>
</svg>
