<svg xmlns="http://www.w3.org/2000/svg" width="843" height="556" fill="none" viewBox="0 0 843 556"><mask id="a" width="1119" height="1119" x="-276" y="0" maskUnits="userSpaceOnUse" style="mask-type:alpha"><circle cx="283.26" cy="559.184" r="559.018" fill="#d9d9d9"/></mask><g mask="url(#a)"><g clip-path="url(#b)"><circle cx="283.729" cy="558.443" r="558.773" fill="url(#c)" transform="rotate(.3 283.729 558.443)"/></g><g fill="#fff" style="mix-blend-mode:soft-light"><path d="M353.661 815.979c15.713 0 31.357-.874 46.875-2.633 94.819-10.748 179.407-54.042 232.064-118.775 29.219-35.925 50.323-79.069 64.508-131.893 11.15-41.523 17.747-87.553 20.77-144.86 1.196-22.75 1.863-45.903 2.506-68.286 2.012-70.067 4.092-142.514 23.047-209.765 2.356-8.37-1.885-17.187-9.897-20.567s-17.288-.253-21.633 7.277c-51.794 89.875-124.934 167.576-211.523 224.688-51.381 33.89-93.21 48.455-131.624 45.834-46.622-3.184-94.003-34.338-126.728-83.345-30.817-46.145-46.956-101.371-62.554-154.77-2.667-9.139-12.241-14.393-21.38-11.714-9.138 2.667-14.379 12.243-11.713 21.382 16.334 55.905 33.22 113.706 66.979 164.254 17.851 26.728 40.323 49.777 65.002 66.642 27.978 19.129 57.599 29.878 88.06 31.958 60.887 4.162 116.452-27.371 152.959-51.444 66.829-44.087 126.038-99.819 174.338-163.725-5.253 44.156-6.541 88.68-7.782 132.307-.632 22.175-1.299 45.11-2.471 67.458-4.23 80.368-16.874 182.187-77.589 256.807-47.013 57.801-123.268 96.531-209.201 106.28a375 375 0 0 1-42.369 2.379c-118.107 0-237.363-54.306-312.871-144.917C-43.12 535.076-73.018 387.814-34.73 261.393c2.758-9.116-2.391-18.738-11.506-21.497s-18.737 2.391-21.495 11.507c-20.541 67.826-23.668 141.779-9.035 213.847s46.346 138.94 91.715 193.384c45.37 54.445 105.417 97.693 173.66 125.076 53.209 21.348 109.486 32.292 165.074 32.292z"/><path d="M478.679 620.41c9.254 0 16.897-7.334 17.219-16.646.322-9.519-7.126-17.497-16.644-17.83-97.911-3.369-192.649-40.523-266.755-104.613S87.967 328.839 70.519 232.423c-1.702-9.369-10.668-15.588-20.036-13.899-9.368 1.702-15.586 10.669-13.897 20.038 9.334 51.525 27.45 101.129 53.864 147.435s59.887 87.15 99.486 121.408c39.598 34.247 84.841 61.492 134.475 80.954 49.622 19.463 101.324 30.246 153.648 32.051zm-116.53-464.618c29.346 0 59.669-9.151 85.359-27.05 37.875-26.383 66.013-70.113 79.209-123.155 12.035-48.375 10.828-98.808 8.058-141.768-.609-9.507-8.805-16.715-18.311-16.094-9.506.609-16.713 8.817-16.092 18.313 2.597 40.304 3.793 87.426-7.104 131.214-11.184 44.926-34.426 81.575-65.45 103.176-34.484 24.015-79.175 27.797-111.222 9.427-8.264-4.737-18.793-1.874-23.529 6.38-4.736 8.265-1.885 18.796 6.379 23.532 18.714 10.737 40.438 16.014 62.715 16.014zM283.613 21.508a17.22 17.22 0 0 0 13.621-6.656c5.851-7.518 4.506-18.347-3.011-24.199L183.53-95.532c-7.518-5.851-18.345-4.506-24.196 3.012s-4.506 18.348 3.011 24.2l110.693 86.184a17.17 17.17 0 0 0 10.575 3.633zm-549.01-13.151c.425 0 .85-.011 1.287-.046l242.34-17.83a17.25 17.25 0 0 0 14.012-25.2c-37.978-72.584-24.138-167.954 32.886-226.767 57.036-58.802 151.924-75.54 225.627-39.788 8.564 4.15 18.886.575 23.036-7.989 4.149-8.565.574-18.888-7.989-23.038C179.098-374.353 67.462-354.672.369-285.49c-61.128 63.021-80.071 161.736-49.174 243.38l-217.834 16.025c-9.494.702-16.632 8.967-15.931 18.463.667 9.07 8.23 15.98 17.173 15.98"/><path d="M104.624 76.01c1.448 0 2.92-.184 4.391-.574 9.207-2.415 14.713-11.841 12.299-21.06L85.198-83.289c-2.414-9.209-11.84-14.727-21.058-12.301-9.207 2.414-14.713 11.84-12.299 21.06L87.957 63.135c2.035 7.748 9.023 12.875 16.667 12.875m645.304-45.741c8.587 0 16.024-6.415 17.093-15.163 11.736-96.232-38.702-197.282-122.659-245.737-83.956-48.455-196.672-41.581-274.111 16.715-7.61 5.725-9.138 16.543-3.403 24.153 5.725 7.61 16.541 9.139 24.151 3.403 66.714-50.226 163.82-56.146 236.144-14.404 72.324 41.741 115.774 128.8 105.67 211.697-1.15 9.45 5.575 18.048 15.023 19.21.713.091 1.414.126 2.104.126zm-623.26 610.064c2.322 0 4.689-.472 6.954-1.472 8.713-3.839 12.655-14.025 8.816-22.739-11.287-25.59-10.736-55.881 1.483-81.034 4.161-8.565.586-18.888-7.977-23.05s-18.886-.586-23.047 7.978c-16.586 34.155-17.345 75.287-2.011 110.039 2.85 6.45 9.161 10.289 15.782 10.289z"/><path d="M657.158 54.156c2.357 0 4.759-.483 7.046-1.517 8.69-3.898 12.575-14.106 8.679-22.785l-49.53-110.476c-3.897-8.69-14.093-12.576-22.783-8.68-8.69 3.898-12.575 14.095-8.678 22.786l49.53 110.475c2.874 6.403 9.161 10.197 15.748 10.197zM509.703 177.91c3.069 0 6.184-.816 9-2.552l100.624-61.733c8.115-4.978 10.655-15.6 5.678-23.716s-15.598-10.657-23.713-5.68l-100.624 61.734c-8.115 4.978-10.655 15.6-5.678 23.716a17.25 17.25 0 0 0 14.713 8.231m-12.024 103.324c8.954 0 16.517-6.92 17.172-15.991.69-9.495-6.437-17.761-15.943-18.451-25.081-1.839-49.162-17.232-61.369-39.224-4.621-8.323-15.116-11.335-23.438-6.713-8.322 4.621-11.333 15.117-6.712 23.44 17.966 32.384 52.07 54.18 89.002 56.882a16 16 0 0 0 1.276.046zm-134.647 28.568c6.276 0 12.333-3.449 15.379-9.427 4.322-8.484.943-18.865-7.552-23.187-32.61-16.6-58.61-47.352-69.542-82.276-2.85-9.094-12.517-14.14-21.61-11.301-9.092 2.851-14.149 12.519-11.299 21.612 13.851 44.248 45.496 81.679 86.807 102.705a17.14 17.14 0 0 0 7.805 1.874zm261.825 248.829c2.035 0 4.058 0 6.081-.023a17.24 17.24 0 0 0 14.103-7.53 17.25 17.25 0 0 0 1.851-15.887c-20.598-53.743-19.828-115.097 2.115-168.312 3.632-8.805-.563-18.887-9.368-22.52s-18.886.563-22.518 9.369c-22.104 53.606-25.552 114.373-10.184 170.186a711.7 711.7 0 0 1-161.568-22.774c-9.219-2.402-18.633 3.127-21.035 12.335-2.402 9.22 3.127 18.635 12.334 21.038a746.7 746.7 0 0 0 188.177 24.118z"/><path d="M549.141 504.865a17.6 17.6 0 0 0 4.207-.517 18.23 18.23 0 0 0 12.506-10.979c4.299-10.932-1.712-20.198-14.885-40.5-2.977-4.598-7.552-11.645-9.874-15.83a17.4 17.4 0 0 0-.874-5.575c-2.839-8.576-11.805-13.497-20.563-11.301a18 18 0 0 0-3.092 1.081l-43.163 17.945c-8.793 3.656-12.954 13.749-9.299 22.543 3.656 8.795 13.748 12.956 22.541 9.301l27.656-11.508c2.196 3.587 4.782 7.576 7.736 12.117 2.977 4.598 7.552 11.645 9.874 15.83a17.8 17.8 0 0 0 .517 4.357c1.966 7.828 8.989 13.048 16.713 13.048zm-213.746 15.186c1.92 0 3.851-.321 5.736-.988l41.794-14.749c8.977-3.173 13.69-13.025 10.518-22.004-3.173-8.978-13.024-13.691-22.001-10.518l-31.231 11.024c-7.276-6.932-17.874-15.91-31.84-27.636-13.368-11.22-31.667-26.59-35.391-31.556-5.713-7.622-16.518-9.162-24.139-3.449s-9.161 16.52-3.448 24.141c5.689 7.599 19.218 19.153 40.805 37.282 13.368 11.22 31.668 26.59 35.392 31.556a17.26 17.26 0 0 0 13.794 6.897zM201.061 410.816a17.2 17.2 0 0 0 11.38-4.288c7.149-6.288 7.85-17.186 1.563-24.337l-43.668-49.673c-6.287-7.151-17.184-7.852-24.334-1.564s-7.851 17.187-1.563 24.337l43.668 49.674a17.23 17.23 0 0 0 12.954 5.863zm-78.532-143.847c.597 0 1.195-.035 1.804-.092 9.472-.989 16.357-9.461 15.369-18.934l-4.345-41.856c-.989-9.473-9.46-16.359-18.932-15.37-9.471.988-16.357 9.461-15.368 18.933l4.345 41.857c.919 8.863 8.402 15.462 17.127 15.462M56.71 192.406a17.2 17.2 0 0 0 6.77-1.391c8.76-3.736 12.829-13.876 9.081-22.635l-32.46-76c-3.736-8.76-13.874-12.83-22.633-9.082-8.76 3.736-12.828 13.876-9.08 22.636l32.46 75.999c2.793 6.553 9.173 10.473 15.862 10.473m3.81 315.413c5.08 0 10.103-2.23 13.505-6.518 5.92-7.461 4.679-18.301-2.77-24.233-41.012-32.591-56.657-95.692-35.622-143.665 3.828-8.725-.149-18.887-8.862-22.716-8.724-3.828-18.886.15-22.713 8.864-27.472 62.641-7.805 141.974 45.748 184.521a17.2 17.2 0 0 0 10.713 3.747m126.608 105.429c7.494 0 14.391-4.931 16.563-12.496l9.219-32.142c2.621-9.151-2.667-18.704-11.816-21.337-9.15-2.621-18.702 2.667-21.323 11.818l-9.218 32.143c-2.621 9.15 2.666 18.703 11.816 21.324 1.586.46 3.184.667 4.759.667zm599.044-456.651c1.471 0 2.965-.184 4.448-.586 9.196-2.449 14.667-11.898 12.219-21.107-9.495-35.591-38.714-64.377-74.439-73.332-9.242-2.31-18.598 3.3-20.909 12.542s3.299 18.6 12.541 20.911c23.391 5.863 43.288 25.452 49.496 48.766 2.057 7.714 9.023 12.806 16.644 12.806M426.686 19.68c5.242 0 10.426-2.38 13.817-6.91 12.885-17.198 19.092-39.523 18.977-68.262-.034-9.703-.724-19.256-1.402-28.487-.805-11.06-1.552-21.498-1.23-31.809.437-13.773 3.368-32.798 14.897-45.191 8.104-8.714 23.357-13.761 33.139-7.369 7.977 5.208 18.656 2.966 23.863-5.012s2.965-18.658-5.012-23.866c-11.828-7.725-26.621-10.265-41.691-7.173-13.575 2.794-26.196 9.864-35.552 19.922-14.886 16.003-23.22 39.374-24.116 67.596-.379 12.106.471 23.946 1.31 35.396.655 9.06 1.276 17.6 1.311 26.13.08 20.67-3.989 36.638-12.093 47.456-5.712 7.621-4.161 18.428 3.46 24.141a17.18 17.18 0 0 0 10.322 3.449zm335.471 439.673a17.18 17.18 0 0 0 12.23-5.093c14-14.105 31.438-31.66 38.162-55.491 6.08-21.543 1.954-43.569-1.368-61.261l-25.771-137.48c-1.759-9.358-10.77-15.531-20.127-13.772s-15.529 10.76-13.77 20.129l25.77 137.48c2.794 14.887 5.955 31.763 2.069 45.535-4.298 15.232-17.655 28.682-29.437 40.546-6.713 6.76-6.678 17.681.08 24.383a17.18 17.18 0 0 0 12.15 5.012zm31.944 357.556c4.874 0 9.713-2.057 13.116-6.046 29.058-34.04 45.047-79.23 43.851-123.972s-19.563-89.002-50.403-121.443c-4.874-5.127-10.07-10.071-15.104-14.841-16.15-15.347-31.403-29.832-32.932-47.157-.839-9.484-9.196-16.485-18.69-15.669-9.483.84-16.495 9.209-15.667 18.693 2.666 30.315 24.38 50.938 43.541 69.136 4.931 4.691 9.598 9.116 13.862 13.6 25.036 26.337 39.956 62.273 40.921 98.6.966 36.327-12 73.011-35.599 100.647-6.184 7.243-5.322 18.129 1.92 24.314a17.2 17.2 0 0 0 11.184 4.127zM-.724 224.894c1.08 0 2.172-.104 3.264-.311 9.357-1.793 15.484-10.829 13.69-20.187L6.334 152.78c-1.794-9.358-10.828-15.485-20.185-13.692s-15.483 10.829-13.69 20.187l9.897 51.617c1.586 8.254 8.805 14.002 16.908 14.002zM323.396 96.76c21.092 0 36.185-6.874 45.001-20.52 8.253-12.772 8.828-29.809 1.552-45.546-5.495-11.899-14.058-20.762-21.622-28.568-6.621-6.851-17.529-7.035-24.38-.414s-7.034 17.532-.413 24.383c5.931 6.139 12.057 12.473 15.103 19.072 2.15 4.656 2.472 9.748.782 12.37-2.862 4.437-13.242 5.874-27.748 3.84a443.8 443.8 0 0 1-128.785-38.57c-8.61-4.08-18.886-.414-22.966 8.197s-.414 18.888 8.195 22.969A478.3 478.3 0 0 0 306.889 95.53c5.851.817 11.357 1.23 16.507 1.23m-84.205 79.369c3.656 0 7.334-1.15 10.46-3.541 7.564-5.783 9.012-16.6 3.23-24.176l-24.471-32.039c-5.782-7.564-16.599-9.013-24.174-3.231-7.563 5.783-9.011 16.601-3.23 24.176l24.472 32.039c3.391 4.438 8.529 6.772 13.713 6.772m138.265 195.475c1.069 0 2.15-.103 3.23-.31 27.932-5.3 54.082-19.578 73.646-40.201 6.552-6.909 6.264-17.819-.644-24.383-6.908-6.553-17.816-6.265-24.38.644-14.621 15.416-34.173 26.095-55.059 30.05-9.356 1.77-15.506 10.795-13.724 20.152 1.574 8.266 8.804 14.037 16.92 14.037zm-12.54-141.664c8.748 0 16.242-6.633 17.139-15.531l2.46-24.59c.942-9.472-5.966-17.922-15.438-18.876-9.483-.943-17.92 5.966-18.874 15.439l-2.46 24.59c-.942 9.472 5.966 17.922 15.438 18.876.586.058 1.161.092 1.735.092m210.996 14.186c4 0 7.977-.747 11.632-2.299 14.667-6.208 21.242-20.268 25.162-28.671l25.253-54.042c4.035-8.634.311-18.888-8.322-22.923-8.621-4.035-18.885-.311-22.92 8.323l-25.253 54.042c-.748 1.61-2.207 4.713-3.771 7.311a17.2 17.2 0 0 0-11.046-8.208c-9.276-2.161-18.541 3.61-20.702 12.887-2.241 9.645 1.15 19.382 9.081 26.062 5.839 4.92 13.414 7.529 20.874 7.529zm-9.106-176.37c7.886 0 15.012-5.45 16.805-13.473L595.761.16c2.081-9.289-3.759-18.52-13.046-20.6-9.299-2.081-18.518 3.759-20.599 13.047L549.967 46.73c-2.081 9.289 3.758 18.52 13.046 20.6 1.276.288 2.54.426 3.793.426M64.976 601.179a17.2 17.2 0 0 0 3.403-.334c9.334-1.862 15.391-10.955 13.529-20.29l-4.92-24.59c-1.862-9.334-10.954-15.393-20.288-13.53-9.333 1.862-15.391 10.955-13.529 20.29l4.92 24.59c1.644 8.196 8.84 13.864 16.885 13.864M805.517 53.237c.942 0 1.908-.08 2.873-.241 9.391-1.575 15.725-10.461 14.15-19.854-7.805-46.558-5.161-95.174 7.667-140.606 2.586-9.162-2.747-18.692-11.908-21.279-9.162-2.587-18.691 2.748-21.277 11.91-14.196 50.306-17.127 104.141-8.483 155.678 1.414 8.426 8.713 14.392 16.989 14.392zM3.548 50.467c3.127 0 6.276-.85 9.127-2.621l19.667-12.29c8.081-5.046 10.53-15.68 5.483-23.761-5.046-8.082-15.678-10.53-23.76-5.484L-5.6 18.601c-8.07 5.046-10.53 15.68-5.483 23.761a17.23 17.23 0 0 0 14.632 8.105"/><path d="M154.522 32.867c2.057 0 4.138-.368 6.172-1.15 8.886-3.414 13.334-13.392 9.92-22.279-16.334-42.535-20.219-90.53-10.943-135.146 1.943-9.323-4.046-18.451-13.368-20.393-9.322-1.932-18.449 4.046-20.391 13.369-10.61 51.008-6.161 105.89 12.506 154.528 2.632 6.864 9.173 11.071 16.104 11.071"/></g></g><defs><radialGradient id="c" cx="0" cy="0" r="1" gradientTransform="rotate(90 -137.357 421.086)scale(558.773)" gradientUnits="userSpaceOnUse"><stop stop-color="#d6d6d6"/><stop offset="1" stop-color="#d1d1d1"/></radialGradient><clipPath id="b"><path fill="#fff" d="m-272.112-3.247 1118.025 5.85-2.928 559.512-1118.025-5.85z"/></clipPath></defs></svg>