<svg width="843" height="556" viewBox="0 0 843 556" fill="none" xmlns="http://www.w3.org/2000/svg">
<mask id="mask0_286_42117" style="mask-type:alpha" maskUnits="userSpaceOnUse" x="-276" y="0" width="1119" height="1119">
<circle cx="283.26" cy="559.184" r="559.018" fill="#D9D9D9"/>
</mask>
<g mask="url(#mask0_286_42117)">
<g clip-path="url(#clip0_286_42117)">
<circle cx="283.729" cy="558.443" r="558.773" transform="rotate(0.299816 283.729 558.443)" fill="url(#paint0_radial_286_42117)"/>
</g>
<g style="mix-blend-mode:soft-light">
<path d="M353.661 815.979C369.374 815.979 385.018 815.105 400.536 813.346C495.355 802.598 579.943 759.304 632.6 694.571C661.819 658.646 682.923 615.502 697.108 562.678C708.258 521.155 714.855 475.125 717.878 417.818C719.074 395.068 719.741 371.915 720.384 349.532C722.396 279.465 724.476 207.018 743.431 139.767C745.787 131.397 741.546 122.58 733.534 119.2C725.522 115.821 716.246 118.947 711.901 126.477C660.107 216.352 586.967 294.053 500.378 351.165C448.997 385.055 407.168 399.62 368.754 396.999C322.132 393.815 274.751 362.661 242.026 313.654C211.209 267.509 195.07 212.283 179.472 158.884C176.805 149.745 167.231 144.491 158.092 147.17C148.954 149.837 143.713 159.413 146.379 168.552C162.713 224.457 179.599 282.258 213.358 332.806C231.209 359.534 253.681 382.583 278.36 399.448C306.338 418.577 335.959 429.326 366.42 431.406C427.307 435.568 482.872 404.035 519.379 379.962C586.208 335.875 645.417 280.143 693.717 216.237C688.464 260.393 687.176 304.917 685.935 348.544C685.303 370.719 684.636 393.654 683.464 416.002C679.234 496.37 666.59 598.189 605.875 672.809C558.862 730.61 482.607 769.34 396.674 779.089C382.628 780.687 368.466 781.468 354.305 781.468C236.198 781.468 116.942 727.162 41.4338 636.551C-43.1203 535.076 -73.0178 387.814 -34.7293 261.393C-31.9706 252.277 -37.1202 242.655 -46.2354 239.896C-55.3506 237.137 -64.9716 242.287 -67.7302 251.403C-88.2711 319.229 -91.3976 393.182 -76.765 465.25C-62.1324 537.318 -30.4188 604.19 14.9503 658.634C60.3194 713.079 120.367 756.327 188.61 783.71C241.819 805.058 298.096 816.002 353.684 816.002L353.661 815.979Z" fill="white"/>
<path d="M478.679 620.41C487.933 620.41 495.576 613.076 495.898 603.764C496.22 594.245 488.772 586.267 479.254 585.934C381.343 582.565 286.605 545.411 212.499 481.321C138.394 417.231 87.9671 328.839 70.5183 232.423C68.8171 223.054 59.8514 216.835 50.4833 218.524C41.1152 220.226 34.8966 229.193 36.5863 238.562C45.9199 290.087 64.0353 339.691 90.4499 385.997C116.864 432.302 150.337 473.147 189.936 507.405C229.534 541.652 274.777 568.897 324.411 588.359C374.033 607.822 425.735 618.605 478.059 620.41C478.266 620.41 478.461 620.41 478.668 620.41H478.679Z" fill="white"/>
<path d="M362.149 155.792C391.495 155.792 421.818 146.641 447.508 128.742C485.383 102.359 513.521 58.6288 526.717 5.58664C538.752 -42.7882 537.545 -93.2207 534.775 -136.181C534.166 -145.688 525.97 -152.896 516.464 -152.275C506.958 -151.666 499.751 -143.458 500.372 -133.962C502.969 -93.6576 504.165 -46.5358 493.268 -2.74791C482.084 42.1781 458.842 78.8271 427.818 100.428C393.334 124.443 348.643 128.225 316.596 109.855C308.332 105.118 297.803 107.981 293.067 116.235C288.331 124.5 291.182 135.031 299.446 139.767C318.16 150.504 339.884 155.781 362.161 155.781L362.149 155.792Z" fill="white"/>
<path d="M283.613 21.5082C288.751 21.5082 293.832 19.2206 297.234 14.8521C303.085 7.3338 301.74 -3.49537 294.223 -9.34679L183.53 -95.5316C176.012 -101.383 165.185 -100.038 159.334 -92.5197C153.483 -85.0014 154.828 -74.1722 162.345 -68.3208L273.038 17.8641C276.188 20.3127 279.912 21.4968 283.613 21.4968V21.5082Z" fill="white"/>
<path d="M-265.397 8.35712C-264.972 8.35712 -264.547 8.34564 -264.11 8.31116L-21.7696 -9.51901C-15.9763 -9.94437 -10.7923 -13.2552 -7.96463 -18.3364C-5.13696 -23.4176 -5.06799 -29.5679 -7.75772 -34.7181C-45.7358 -107.303 -31.8963 -202.673 25.1283 -261.486C82.1644 -320.288 177.052 -337.026 250.755 -301.274C259.319 -297.124 269.641 -300.699 273.791 -309.263C277.94 -317.828 274.365 -328.151 265.802 -332.301C179.098 -374.353 67.4628 -354.672 0.368958 -285.49C-60.7592 -222.469 -79.7023 -123.754 -48.8048 -42.1099L-266.639 -26.0846C-276.133 -25.3834 -283.271 -17.1178 -282.57 -7.62219C-281.903 1.44806 -274.34 8.35712 -265.397 8.35712Z" fill="white"/>
<path d="M104.624 76.0105C106.072 76.0105 107.544 75.8265 109.015 75.4357C118.222 73.0215 123.728 63.5949 121.314 54.3752L85.1982 -83.2884C82.7844 -92.4966 73.3589 -98.0146 64.1402 -95.589C54.9331 -93.1748 49.4271 -83.7482 51.841 -74.5285L87.957 63.1351C89.9915 70.8833 96.9802 76.0105 104.624 76.0105Z" fill="white"/>
<path d="M749.928 30.269C758.515 30.269 765.952 23.8542 767.021 15.1058C778.757 -81.1264 728.319 -182.176 644.362 -230.631C560.406 -279.086 447.69 -272.212 370.251 -213.916C362.641 -208.191 361.113 -197.373 366.848 -189.763C372.573 -182.153 383.389 -180.624 390.999 -186.36C457.713 -236.586 554.819 -242.506 627.143 -200.764C699.467 -159.023 742.917 -71.9642 732.813 10.9328C731.663 20.3824 738.388 28.9814 747.836 30.1425C748.549 30.2344 749.25 30.269 749.94 30.269H749.928Z" fill="white"/>
<path d="M126.668 640.333C128.99 640.333 131.357 639.861 133.622 638.861C142.335 635.022 146.277 624.836 142.438 616.122C131.151 590.532 131.702 560.241 143.921 535.088C148.082 526.523 144.507 516.2 135.944 512.038C127.38 507.877 117.058 511.452 112.897 520.016C96.3105 554.171 95.5518 595.303 110.886 630.055C113.736 636.505 120.047 640.344 126.668 640.344V640.333Z" fill="white"/>
<path d="M657.158 54.1561C659.515 54.1561 661.917 53.6733 664.204 52.6386C672.894 48.7415 676.779 38.5331 672.883 29.8537L623.353 -80.622C619.456 -89.3129 609.26 -93.1985 600.57 -89.3014C591.88 -85.4043 587.995 -75.2074 591.892 -66.5165L641.422 43.9592C644.296 50.3624 650.583 54.1561 657.17 54.1561H657.158Z" fill="white"/>
<path d="M509.703 177.91C512.772 177.91 515.887 177.094 518.703 175.358L619.327 113.625C627.442 108.647 629.982 98.0249 625.005 89.9088C620.028 81.7927 609.407 79.2521 601.292 84.2298L500.668 145.963C492.553 150.941 490.013 161.563 494.99 169.679C498.243 174.979 503.91 177.91 509.703 177.91Z" fill="white"/>
<path d="M497.679 281.234C506.633 281.234 514.196 274.314 514.851 265.243C515.541 255.748 508.414 247.482 498.908 246.792C473.827 244.953 449.746 229.56 437.539 207.568C432.918 199.245 422.423 196.233 414.101 200.855C405.779 205.476 402.768 215.972 407.389 224.295C425.355 256.679 459.459 278.475 496.391 281.177C496.816 281.211 497.242 281.223 497.667 281.223L497.679 281.234Z" fill="white"/>
<path d="M363.032 309.802C369.308 309.802 375.365 306.353 378.411 300.375C382.733 291.891 379.354 281.51 370.859 277.188C338.249 260.588 312.249 229.836 301.317 194.912C298.467 185.818 288.8 180.772 279.707 183.611C270.615 186.462 265.558 196.13 268.408 205.223C282.259 249.471 313.904 286.902 355.215 307.928C357.721 309.204 360.388 309.802 363.02 309.802H363.032Z" fill="white"/>
<path d="M624.857 558.631C626.892 558.631 628.915 558.631 630.938 558.608C636.593 558.562 641.857 555.746 645.041 551.078C648.225 546.411 648.915 540.468 646.892 535.191C626.294 481.448 627.064 420.094 649.007 366.879C652.639 358.074 648.444 347.992 639.639 344.359C630.834 340.726 620.753 344.922 617.121 353.728C595.017 407.334 591.569 468.101 606.937 523.914C552.418 522.546 498.175 514.901 445.369 501.14C436.15 498.738 426.736 504.267 424.334 513.475C421.932 522.695 427.461 532.11 436.668 534.513C498.095 550.515 561.372 558.631 624.845 558.631H624.857Z" fill="white"/>
<path d="M549.141 504.865C550.532 504.865 551.946 504.693 553.348 504.348C559.038 502.922 563.705 498.818 565.854 493.369C570.153 482.437 564.142 473.171 550.969 452.869C547.992 448.271 543.417 441.224 541.095 437.039C541.106 435.188 540.831 433.303 540.221 431.464C537.382 422.888 528.416 417.967 519.658 420.163C518.589 420.428 517.554 420.795 516.566 421.244L473.403 439.189C464.61 442.845 460.449 452.938 464.104 461.732C467.76 470.527 477.852 474.688 486.645 471.033L514.301 459.525C516.497 463.112 519.083 467.101 522.037 471.642C525.014 476.24 529.589 483.287 531.911 487.472C531.899 488.909 532.072 490.369 532.428 491.829C534.394 499.657 541.417 504.877 549.141 504.877V504.865Z" fill="white"/>
<path d="M335.395 520.051C337.315 520.051 339.246 519.73 341.131 519.063L382.925 504.314C391.902 501.141 396.615 491.289 393.443 482.31C390.27 473.332 380.419 468.619 371.442 471.792L340.211 482.816C332.935 475.884 322.337 466.906 308.371 455.18C295.003 443.96 276.704 428.59 272.98 423.624C267.267 416.002 256.462 414.462 248.841 420.175C241.22 425.888 239.68 436.695 245.393 444.316C251.082 451.915 264.611 463.469 286.198 481.598C299.566 492.818 317.866 508.188 321.59 513.154C324.912 517.58 330.073 520.051 335.384 520.051H335.395Z" fill="white"/>
<path d="M201.061 410.816C205.107 410.816 209.165 409.402 212.441 406.528C219.59 400.24 220.291 389.342 214.004 382.191L170.336 332.518C164.049 325.367 153.152 324.666 146.002 330.954C138.852 337.242 138.151 348.141 144.439 355.291L188.107 404.965C191.521 408.839 196.279 410.828 201.061 410.828V410.816Z" fill="white"/>
<path d="M122.529 266.969C123.126 266.969 123.724 266.934 124.333 266.877C133.805 265.888 140.69 257.416 139.702 247.943L135.357 206.087C134.368 196.614 125.897 189.728 116.425 190.717C106.954 191.705 100.068 200.178 101.057 209.65L105.402 251.507C106.321 260.37 113.804 266.969 122.529 266.969Z" fill="white"/>
<path d="M56.7103 192.406C58.9748 192.406 61.2622 191.958 63.4807 191.015C72.2395 187.279 76.3086 177.139 72.5613 168.38L40.1007 92.3801C36.3649 83.6202 26.2267 79.5506 17.4678 83.2983C8.70895 87.0345 4.63991 97.1739 8.38715 105.934L40.8478 181.933C43.641 188.486 50.0205 192.406 56.7103 192.406Z" fill="white"/>
<path d="M60.5192 507.819C65.5998 507.819 70.6229 505.589 74.0253 501.301C79.945 493.84 78.7036 483 71.2551 477.068C30.2425 444.477 14.5983 381.376 35.6334 333.403C39.4611 324.678 35.484 314.516 26.7711 310.687C18.0467 306.859 7.88548 310.837 4.05778 319.551C-23.4143 382.192 -3.74706 461.525 49.8062 504.072C52.9787 506.589 56.7604 507.819 60.5192 507.819Z" fill="white"/>
<path d="M187.127 613.248C194.621 613.248 201.518 608.317 203.69 600.752L212.909 568.61C215.53 559.459 210.242 549.906 201.093 547.273C191.943 544.652 182.391 549.94 179.77 559.091L170.552 591.234C167.931 600.384 173.218 609.937 182.368 612.558C183.954 613.018 185.552 613.225 187.127 613.225V613.248Z" fill="white"/>
<path d="M786.171 156.597C787.642 156.597 789.136 156.413 790.619 156.011C799.815 153.562 805.286 144.113 802.838 134.904C793.343 99.313 764.124 70.5273 728.399 61.572C719.157 59.2613 709.801 64.8713 707.49 74.114C705.18 83.3567 710.789 92.7144 720.031 95.0251C743.422 100.888 763.319 120.477 769.527 143.791C771.584 151.505 778.55 156.597 786.171 156.597Z" fill="white"/>
<path d="M426.686 19.6793C431.928 19.6793 437.112 17.2997 440.503 12.7703C453.388 -4.42757 459.595 -26.7526 459.48 -55.4924C459.446 -65.195 458.756 -74.7481 458.078 -83.9793C457.273 -95.0383 456.526 -105.477 456.848 -115.788C457.285 -129.561 460.216 -148.586 471.745 -160.979C479.849 -169.693 495.102 -174.74 504.884 -168.348C512.861 -163.14 523.54 -165.382 528.747 -173.36C533.954 -181.338 531.712 -192.018 523.735 -197.226C511.907 -204.951 497.114 -207.491 482.044 -204.399C468.469 -201.605 455.848 -194.535 446.492 -184.477C431.606 -168.474 423.272 -145.103 422.376 -116.881C421.997 -104.775 422.847 -92.9346 423.686 -81.4847C424.341 -72.4259 424.962 -63.8844 424.997 -55.3545C425.077 -34.6848 421.008 -18.717 412.904 -7.89935C407.192 -0.277557 408.743 10.5286 416.364 16.2421C419.468 18.5642 423.089 19.6908 426.686 19.6908V19.6793Z" fill="white"/>
<path d="M762.157 459.353C766.594 459.353 771.019 457.651 774.387 454.26C788.387 440.155 805.825 422.6 812.549 398.769C818.629 377.226 814.503 355.2 811.181 337.508L785.41 200.028C783.651 190.67 774.64 184.497 765.283 186.256C755.927 188.015 749.754 197.016 751.513 206.385L777.283 343.865C780.077 358.752 783.238 375.628 779.352 389.4C775.054 404.632 761.697 418.082 749.915 429.946C743.202 436.706 743.237 447.627 749.995 454.329C753.363 457.674 757.754 459.341 762.145 459.341L762.157 459.353Z" fill="white"/>
<path d="M794.101 816.909C798.975 816.909 803.814 814.852 807.217 810.863C836.275 776.823 852.264 731.633 851.068 686.891C849.873 642.149 831.505 597.889 800.665 565.448C795.791 560.321 790.595 555.377 785.561 550.607C769.411 535.26 754.158 520.775 752.629 503.45C751.79 493.966 743.433 486.965 733.939 487.781C724.456 488.621 717.444 496.99 718.272 506.474C720.938 536.789 742.652 557.412 761.813 575.61C766.744 580.301 771.411 584.726 775.675 589.21C800.711 615.547 815.631 651.483 816.596 687.81C817.562 724.137 804.596 760.821 780.997 788.457C774.813 795.7 775.675 806.586 782.917 812.771C786.17 815.541 790.147 816.898 794.101 816.898V816.909Z" fill="white"/>
<path d="M-0.724064 224.894C0.356426 224.894 1.44844 224.79 2.54043 224.583C11.897 222.79 18.0236 213.754 16.2304 204.396L6.33363 152.78C4.54047 143.422 -4.49427 137.295 -13.8509 139.088C-23.2074 140.881 -29.334 149.917 -27.5409 159.275L-17.6441 210.892C-16.0578 219.146 -8.83918 224.894 -0.7355 224.894H-0.724064Z" fill="white"/>
<path d="M323.396 96.7605C344.488 96.7605 359.581 89.8859 368.397 76.2403C376.65 63.4683 377.225 46.4314 369.949 30.6935C364.454 18.7952 355.891 9.93186 348.327 2.12613C341.706 -4.72543 330.798 -4.90938 323.947 1.71226C317.097 8.33391 316.913 19.2436 323.534 26.0951C329.465 32.2339 335.591 38.5682 338.637 45.1668C340.787 49.8227 341.109 54.9153 339.419 57.5364C336.557 61.9738 326.177 63.4109 311.671 61.3761C266.992 55.1223 223.657 42.1434 182.886 22.8073C174.276 18.7262 164 22.3934 159.92 31.0039C155.839 39.6143 159.506 49.8917 168.115 53.9727C212.048 74.8033 258.739 88.7938 306.889 95.5304C312.74 96.3466 318.246 96.7605 323.396 96.7605Z" fill="white"/>
<path d="M239.191 176.129C242.847 176.129 246.525 174.979 249.651 172.588C257.215 166.805 258.663 155.988 252.881 148.412L228.41 116.373C222.628 108.809 211.811 107.36 204.236 113.142C196.673 118.925 195.225 129.743 201.006 137.318L225.478 169.357C228.869 173.795 234.007 176.129 239.191 176.129Z" fill="white"/>
<path d="M377.456 371.604C378.525 371.604 379.606 371.501 380.686 371.294C408.618 365.994 434.768 351.716 454.332 331.093C460.884 324.184 460.596 313.274 453.688 306.71C446.78 300.157 435.872 300.445 429.308 307.354C414.687 322.77 395.135 333.449 374.249 337.404C364.893 339.174 358.743 348.199 360.525 357.556C362.099 365.822 369.329 371.593 377.445 371.593L377.456 371.604Z" fill="white"/>
<path d="M364.916 229.94C373.664 229.94 381.158 223.307 382.055 214.409L384.515 189.819C385.457 180.347 378.549 171.897 369.077 170.943C359.594 170 351.157 176.909 350.203 186.382L347.743 210.972C346.801 220.444 353.709 228.894 363.181 229.848C363.767 229.906 364.342 229.94 364.916 229.94Z" fill="white"/>
<path d="M575.912 244.126C579.912 244.126 583.889 243.379 587.544 241.827C602.211 235.619 608.786 221.559 612.706 213.156L637.959 159.114C641.994 150.48 638.27 140.226 629.637 136.191C621.016 132.156 610.752 135.88 606.717 144.514L581.464 198.556C580.716 200.166 579.257 203.269 577.693 205.867C575.394 201.867 571.498 198.786 566.647 197.659C557.371 195.498 548.106 201.269 545.945 210.546C543.704 220.191 547.095 229.928 555.026 236.608C560.865 241.528 568.44 244.137 575.9 244.137L575.912 244.126Z" fill="white"/>
<path d="M566.806 67.756C574.692 67.756 581.818 62.3069 583.611 54.2828L595.761 0.160063C597.842 -9.12863 592.002 -18.3599 582.715 -20.4406C573.416 -22.5214 564.197 -16.6815 562.116 -7.39276L549.967 46.73C547.886 56.0187 553.725 65.2499 563.013 67.3307C564.289 67.6181 565.553 67.756 566.806 67.756Z" fill="white"/>
<path d="M64.9764 601.179C66.1029 601.179 67.2294 601.075 68.3788 600.845C77.7125 598.983 83.77 589.89 81.9079 580.555L76.9883 555.965C75.1262 546.631 66.0339 540.572 56.7003 542.435C47.3667 544.297 41.309 553.39 43.1712 562.725L48.0909 587.315C49.7346 595.511 56.9302 601.179 64.9764 601.179Z" fill="white"/>
<path d="M805.517 53.2373C806.459 53.2373 807.425 53.1569 808.39 52.9959C817.781 51.421 824.115 42.5347 822.54 33.1425C814.735 -13.4159 817.379 -62.0322 830.207 -107.464C832.793 -116.626 827.46 -126.156 818.299 -128.743C809.137 -131.33 799.608 -125.995 797.022 -116.833C782.826 -66.5271 779.895 -12.6917 788.539 38.8445C789.953 47.271 797.252 53.2373 805.528 53.2373H805.517Z" fill="white"/>
<path d="M3.54836 50.4668C6.67488 50.4668 9.8244 49.6161 12.6751 47.8457L32.3423 35.5566C40.423 30.5099 42.8713 19.8762 37.8252 11.7945C32.7791 3.7129 22.1466 1.26425 14.0659 6.31096L-5.60136 18.6001C-13.6706 23.6468 -16.1303 34.2805 -11.0842 42.3622C-7.80827 47.5928 -2.19894 50.4668 3.54836 50.4668Z" fill="white"/>
<path d="M154.522 32.867C156.579 32.867 158.66 32.4991 160.694 31.7174C169.58 28.3031 174.028 18.3246 170.614 9.43829C154.28 -33.0966 150.395 -81.092 159.671 -125.708C161.614 -135.031 155.625 -144.159 146.303 -146.101C136.981 -148.033 127.854 -142.055 125.912 -132.732C115.302 -81.7243 119.751 -26.8428 138.418 21.7964C141.05 28.6595 147.591 32.867 154.522 32.867Z" fill="white"/>
</g>
</g>
<defs>
<radialGradient id="paint0_radial_286_42117" cx="0" cy="0" r="1" gradientUnits="userSpaceOnUse" gradientTransform="translate(283.729 558.443) rotate(90) scale(558.773)">
<stop stop-color="#D6D6D6"/>
<stop offset="1" stop-color="#D1D1D1"/>
</radialGradient>
<clipPath id="clip0_286_42117">
<rect width="1118.04" height="559.519" fill="white" transform="translate(-272.112 -3.24658) rotate(0.299816)"/>
</clipPath>
</defs>
</svg>
