<svg xmlns="http://www.w3.org/2000/svg" width="1921" height="918" fill="none" viewBox="0 0 1921 918"><path fill="url(#a)" d="M0 0h1921v918H0z"/><g fill="#fff" opacity=".1" style="mix-blend-mode:soft-light"><path d="M745.178 604.28c0 15.713.874 31.357 2.632 46.875 10.749 94.819 54.043 179.407 118.776 232.064 35.925 29.219 79.069 50.323 131.893 64.508 41.521 11.15 87.551 17.747 144.861 20.77 22.75 1.196 45.9 1.863 68.28 2.506 70.07 2.012 142.52 4.092 209.77 23.047 8.37 2.356 17.19-1.885 20.57-9.897s.25-17.288-7.28-21.633c-89.88-51.794-167.58-124.934-224.69-211.523-33.89-51.381-48.45-93.21-45.83-131.624 3.18-46.622 34.34-94.003 83.34-126.728 46.15-30.817 101.37-46.956 154.77-62.554 9.14-2.667 14.4-12.241 11.72-21.38-2.67-9.138-12.25-14.379-21.39-11.713-55.9 16.334-113.7 33.22-164.25 66.979-26.73 17.851-49.78 40.323-66.64 65.002-19.13 27.978-29.88 57.599-31.96 88.06-4.16 60.887 27.37 116.452 51.44 152.959 44.09 66.829 99.82 126.038 163.73 174.338-44.16-5.253-88.68-6.541-132.31-7.782-22.17-.632-45.11-1.299-67.45-2.471-80.37-4.23-182.192-16.874-256.812-77.589-57.802-47.013-96.531-123.268-106.28-209.201a375 375 0 0 1-2.379-42.369c0-118.107 54.306-237.363 144.917-312.871 101.474-84.554 248.734-114.452 375.154-76.163 9.12 2.758 18.74-2.391 21.5-11.506s-2.39-18.737-11.51-21.495c-67.82-20.541-141.78-23.668-213.84-9.035-72.07 14.633-138.943 46.346-193.388 91.715s-97.692 105.417-125.075 173.66c-21.348 53.209-32.292 109.486-32.292 165.074z"/><path d="M940.748 729.297c0 9.254 7.334 16.897 16.646 17.219 9.518.322 17.497-7.126 17.83-16.644 3.368-97.911 40.526-192.649 104.616-266.755s152.48-124.532 248.89-141.981c9.37-1.701 15.59-10.667 13.9-20.035-1.7-9.368-10.66-15.586-20.03-13.897-51.53 9.334-101.13 27.449-147.44 53.864-46.3 26.414-87.15 59.887-121.41 99.486-34.24 39.598-61.489 84.841-80.952 134.475-19.462 49.622-30.245 101.324-32.05 153.648zm464.612-116.53c0 29.346 9.15 59.669 27.05 85.359 26.39 37.875 70.12 66.014 123.16 79.209 48.37 12.035 98.81 10.828 141.77 8.058 9.5-.609 16.71-8.805 16.09-18.311-.61-9.506-8.82-16.713-18.31-16.092-40.31 2.598-87.43 3.793-131.22-7.104-44.92-11.184-81.57-34.426-103.17-65.45-24.02-34.484-27.8-79.175-9.43-111.222 4.74-8.264 1.88-18.793-6.38-23.529s-18.79-1.885-23.53 6.379c-10.74 18.714-16.01 40.438-16.01 62.715zm175.32 5.722c0 3.288.93 6.598 2.9 9.541 5.27 7.931 15.98 10.069 23.91 4.793a312 312 0 0 0 110.43-129.003c3.99-8.644.22-18.886-8.43-22.886-8.64-3.989-18.89-.219-22.89 8.425-21.21 45.956-56.1 86.704-98.23 114.751-4.99 3.322-7.69 8.793-7.69 14.368zm-41.03-84.258c0 5.138 2.29 10.219 6.65 13.621 7.52 5.851 18.35 4.506 24.2-3.011l86.19-110.693c5.85-7.517 4.5-18.345-3.01-24.196-7.52-5.851-18.35-4.506-24.2 3.011l-86.19 110.693a17.16 17.16 0 0 0-3.63 10.575zM1552.8-14.78c0 .426.01.851.05 1.288l17.83 242.34a17.22 17.22 0 0 0 8.81 13.805 17.26 17.26 0 0 0 16.39.207c72.58-37.978 167.95-24.138 226.76 32.886 58.81 57.036 75.54 151.924 39.79 225.627-4.15 8.564-.57 18.886 7.99 23.036 8.57 4.149 18.89.574 23.04-7.989 42.05-86.704 22.37-198.339-46.81-265.433-63.02-61.128-161.74-80.071-243.38-49.174l-16.03-217.834c-.7-9.494-8.96-16.632-18.46-15.931-9.07.667-15.98 8.23-15.98 17.173m-336.3 48.896c0 9.276 7.37 16.932 16.7 17.22 82.2 2.55 163.19 25.816 234.21 67.265 8.22 4.805 18.79 2.023 23.59-6.195 4.79-8.23 2.02-18.782-6.2-23.587-75.97-44.335-162.59-69.209-250.51-71.945-9.52-.299-17.48 7.185-17.78 16.702v.552z"/><path d="M1485.15 355.242c0 1.448.18 2.92.57 4.391 2.42 9.207 11.84 14.713 21.06 12.299l137.67-36.116c9.21-2.414 14.72-11.839 12.3-21.058-2.42-9.207-11.84-14.713-21.06-12.299l-137.67 36.116c-7.74 2.035-12.87 9.023-12.87 16.667m45.74 645.308c0 8.58 6.41 16.02 15.16 17.09 96.23 11.74 197.28-38.702 245.74-122.659 48.45-83.956 41.58-196.672-16.72-274.111-5.72-7.61-16.54-9.138-24.15-3.403-7.61 5.725-9.14 16.541-3.4 24.151 50.22 66.714 56.14 163.82 14.4 236.144s-128.8 115.774-211.7 105.67c-9.45-1.15-18.05 5.575-19.21 15.023a17 17 0 0 0-.12 2.105zm327.77-368.26c0 1.679.24 3.368.76 5.058 10.35 33.806 28.1 65.772 51.32 92.428 23.58 27.07 49.96 38.61 74.27 32.518 27.1-6.793 42.05-33.15 44.86-56.266 2.69-22.23-3.35-43.173-8.68-61.645-2.64-9.15-12.2-14.426-21.35-11.782s-14.43 12.196-11.78 21.345c4.63 16.058 9.43 32.668 7.57 47.944-1.37 11.38-8.34 24.3-19 26.966-15.53 3.897-33.07-13.897-39.89-21.724-20.07-23.035-35.41-50.657-44.35-79.876-2.78-9.104-12.43-14.23-21.53-11.437-7.43 2.276-12.2 9.103-12.2 16.483zm-54.12 392.51c0 8.94 6.91 16.51 15.98 17.17 9.49.7 17.76-6.42 18.46-15.92 2.17-29.459 4.43-59.931 12.95-87.805 6.32-20.667 19.12-48.956 44.27-66.347 21.77-15.058 49.7-17.748 69.51-6.678 8.31 4.644 18.82 1.666 23.47-6.644 4.64-8.311 1.66-18.817-6.65-23.461-31.04-17.333-73.62-13.943-105.96 8.426-33.28 23.024-49.71 58.726-57.61 84.623-9.66 31.564-12.05 63.99-14.36 95.346-.04.44-.05.86-.05 1.29zm-28.89-932.468c0 4.288 1.59 8.575 4.78 11.92 6.59 6.874 17.5 7.115 24.38.54 22.75-21.77 57.05-30.392 87.38-21.966 30.34 8.426 55.29 33.484 63.55 63.864 7.59 27.851 1.92 57.68-4.07 89.255-5.02 26.461-10.22 53.829-7.82 81.83 2.54 29.84 13.38 57.14 23.86 83.531 2.17 5.46 4.42 11.116 6.52 16.622 10.3 27.023 19.9 58.564 12.93 87.6-5.63 23.472-28.46 47.243-52.23 43.817-9.43-1.356-18.17 5.184-19.54 14.61-1.35 9.425 5.19 18.173 14.61 19.529 44.14 6.368 81.44-31.334 90.7-69.91 9.2-38.392-2.77-77.841-14.25-107.923-2.18-5.735-4.47-11.494-6.69-17.069-10-25.173-19.45-48.956-21.55-73.726-1.98-23.3 2.55-47.186 7.34-72.474 6.46-34.024 13.14-69.22 3.46-104.75-11.4-41.875-45.78-76.427-87.61-88.025-41.82-11.61-89.09.276-120.45 30.276a17.2 17.2 0 0 0-5.32 12.46zM426.052 1040.24c0 3.68 1.172 7.37 3.552 10.47 4.932 6.45 13.692 8.59 21.026 5.13l277.569-130.445c8.622-4.046 12.323-14.322 8.277-22.943s-14.324-12.322-22.946-8.265L493.154 997.753c5.196-11.448 9.461-23.196 13.657-34.782 13.703-37.817 23.463-61.439 50.283-70.221 9.047-2.965 13.979-12.701 11.024-21.747-2.966-9.047-12.703-13.978-21.75-11.024-44.144 14.449-58.928 55.255-71.976 91.244-8.013 22.127-16.301 45.002-30.705 61.937l-13.52 15.9a17.26 17.26 0 0 0-4.104 11.18zM132.78 974.657a17.24 17.24 0 0 0 8.484 14.862c8.196 4.84 18.772 2.115 23.612-6.08 46.835-79.336 119.592-142.246 204.869-177.132s181.256-41.024 270.28-17.276c9.197 2.46 18.647-3.012 21.107-12.219 2.46-9.195-3.012-18.644-12.22-21.104-96.256-25.679-200.041-19.046-292.238 18.679S185.81 880.125 135.171 965.909a17.2 17.2 0 0 0-2.391 8.748M286.571 711.95c0 6.437 3.622 12.61 9.818 15.576 8.599 4.103 18.888.459 22.992-8.127l54.352-113.808c4.104-8.598.46-18.886-8.127-22.989-8.599-4.104-18.888-.46-22.992 8.126l-54.353 113.808a17.1 17.1 0 0 0-1.69 7.414m171.509-77.103c0 7.886 5.449 15.001 13.461 16.805 9.289 2.092 18.52-3.747 20.613-13.034l22.175-98.509c2.092-9.288-3.748-18.518-13.036-20.61s-18.52 3.747-20.612 13.035l-22.176 98.509a17.3 17.3 0 0 0-.425 3.804"/><path d="M265.568 1057.1c0 7.45 4.863 14.32 12.381 16.53 9.139 2.69 18.727-2.53 21.417-11.67 18.934-64.256 63.595-119.338 122.558-151.143 8.38-4.518 11.507-14.978 6.99-23.357-4.518-8.38-14.98-11.506-23.36-6.989-32.695 17.644-62.641 42.576-86.599 72.117-23.957 29.541-42.167 63.992-52.663 99.622a17.1 17.1 0 0 0-.712 4.89zM-65.111 475.988c0 10.644 2.356 21.081 7.116 30.173 19.393 37.059 63.653 49.381 98.91 45.151 35.385-4.242 66.389-22.07 93.75-37.806L507.96 298.799c21.635-12.437 42.604-23.242 61.446-18.828 29.406 6.897 40.661 47.656 41.362 80.462.138 6.391.127 12.816.104 19.621-.081 35.266-.173 75.209 23.578 106.463 5.759 7.586 16.577 9.058 24.164 3.299s9.059-16.575 3.299-24.162c-16.692-21.966-16.634-52.829-16.554-85.508.012-6.713.035-13.644-.115-20.437-1.011-47.312-19.393-101.911-67.964-113.302-31.062-7.276-59.767 7.126-86.506 22.506L117.478 483.62c-25.693 14.771-52.26 30.059-80.655 33.461-22.739 2.724-52.536-4.529-64.25-26.897-4.967-9.483-4.162-22.989 1.988-33.622 2.667-4.598 8.565-12.368 18.221-12.759 9.519-.379 16.888-8.414 16.554-17.908-.379-9.518-8.392-16.92-17.91-16.553-19.106.759-36.132 11.667-46.708 29.944-6.518 11.253-9.818 24.127-9.818 36.713z"/><path d="M373.804 482c0 .816.057 1.632.172 2.46 1.345 9.425 10.082 15.977 19.509 14.633l65.63-9.38c9.427-1.345 15.968-10.081 14.634-19.506-1.345-9.426-10.082-15.978-19.508-14.633l-65.63 9.38c-8.599 1.23-14.807 8.609-14.807 17.046m-8.876-345.329a17.263 17.263 0 0 0 19.003 17.15l159.954-16.311c9.472-.966 16.37-9.426 15.404-18.897-.966-9.472-9.427-16.369-18.911-15.403l-101.945 10.403c95.956-64.761 223.066-82.014 332.197-41.657 16.336 6.046 69.826 28.898 72.229 69.381 1.793 30.369-27.625 56.358-57.135 63.945-34.534 8.874-73.332.701-107.567-6.529-9.323-1.966-18.463 4-20.428 13.311-1.966 9.322 4 18.46 13.312 20.426 37.925 8 80.92 17.069 123.271 6.184 42.442-10.909 85.954-49.439 82.977-99.383-2.506-42.012-37.017-78.347-94.692-99.68-139.031-51.416-304.722-17.438-412.289 84.554a17.27 17.27 0 0 0-5.38 12.517zM-42.406 98.55c0 8.967 6.943 16.542 16.025 17.185l110.74 7.863c-13.254 29.035-25.383 60.84-26.97 94.933-1.976 42.496 16.383 94.359 61.918 114.486 21.267 9.403 45.259 10.598 71.309 3.541 20.279-5.483 41.776-16.162 62.181-30.875 10.209-7.356 20.049-15.31 29.568-22.989 22.658-18.299 44.052-35.576 69.09-44.702 8.944-3.265 13.554-13.162 10.301-22.104-3.265-8.943-13.163-13.552-22.107-10.3-30.43 11.093-55.1 31.013-78.954 50.266-9.576 7.736-18.623 15.047-28.073 21.851-17.497 12.622-62.204 40.186-99.359 23.76-30.441-13.46-42.8-51.599-41.408-81.336 1.701-36.3 18.324-70.979 34.407-104.509a17.21 17.21 0 0 0-.644-16.115 17.29 17.29 0 0 0-13.691-8.54l-135.86-9.645c-9.495-.678-17.749 6.483-18.416 15.978-.034.414-.046.828-.046 1.241z"/><path d="M161.887 196.591c0 3.241.92 6.517 2.828 9.437 5.219 7.965 15.911 10.184 23.877 4.965 40.592-26.598 72.746-66.117 90.531-111.279 3.483-8.862-.863-18.874-9.726-22.357-8.863-3.494-18.876.862-22.36 9.725-15.197 38.576-42.661 72.347-77.344 95.071-5.047 3.311-7.794 8.817-7.794 14.438zM-81.298 896.713c0 6.368 3.54 12.495 9.645 15.495 8.553 4.195 18.876.667 23.084-7.874a703.17 703.17 0 0 1 254.335-283.767c8.036-5.103 10.415-15.759 5.311-23.793-5.104-8.035-15.761-10.415-23.796-5.311-56.698 36.001-108.453 79.922-153.816 130.544s-83.38 106.854-112.981 167.131a17.25 17.25 0 0 0-1.77 7.587zm.966 73.442c0 7.69 5.184 14.702 12.978 16.691 28.867 7.368 60.458 3.724 88.979-10.265s50.743-36.748 62.572-64.082c5.668-13.104 8.944-26.553 12.117-39.553 3.403-13.989 6.621-27.196 12.484-38.726 15.37-30.207 52.088-48.265 85.404-41.989 9.357 1.758 18.37-4.391 20.14-13.748 1.759-9.356-4.391-18.368-13.749-20.138-23.325-4.391-48.535-.724-70.998 10.31-22.463 11.047-40.765 28.771-51.525 49.933-7.69 15.104-11.53 30.92-15.255 46.208-2.955 12.138-5.748 23.598-10.254 34.013-17.854 41.242-67.815 65.76-111.361 54.633-9.232-2.356-18.624 3.219-20.98 12.437a17.2 17.2 0 0 0-.54 4.276zM522.652 425.33c0 35.346 18.347 66.876 34.614 90.67 3.23 4.735 6.575 9.471 9.806 14.046 14.243 20.173 27.693 39.231 34.361 60.645 2.598 8.357 4.886 20.265 1 29.564-2.563 6.139-9.139 10.828-13.795 9.84-9.312-1.977-18.474 3.965-20.451 13.276-1.989 9.311 3.966 18.472 13.278 20.449 21.037 4.471 43.73-8.552 52.8-30.288 6.312-15.127 6.346-32.99.092-53.071-8.277-26.621-23.957-48.817-39.12-70.289-3.162-4.472-6.426-9.092-9.507-13.61-13.956-20.426-29.786-47.346-28.522-74.404.449-9.518-6.886-17.587-16.404-18.047-9.507-.459-17.589 6.886-18.049 16.403a98 98 0 0 0-.115 4.828zm348.199 43.662a17.23 17.23 0 0 0 6.483 13.483l39.995 31.955c7.438 5.942 18.29 4.735 24.233-2.702s4.736-18.287-2.701-24.23l-39.995-31.955c-7.438-5.943-18.29-4.736-24.233 2.701a17.15 17.15 0 0 0-3.771 10.759zm49.974-91.706c0 2.322.471 4.689 1.471 6.954 3.84 8.713 14.025 12.655 22.739 8.816 25.59-11.287 55.885-10.736 81.035 1.483 8.56 4.161 18.89.586 23.05-7.977s.59-18.886-7.98-23.047c-34.15-16.586-75.286-17.345-110.038-2.011-6.449 2.85-10.289 9.161-10.289 15.782zM1507 907.776c0 2.357.48 4.759 1.52 7.046 3.9 8.69 14.1 12.575 22.78 8.679l110.48-49.53c8.69-3.897 12.58-14.093 8.68-22.783s-14.1-12.575-22.79-8.678l-110.47 49.53c-6.41 2.874-10.2 9.161-10.2 15.748zm-123.75-147.455c0 3.069.82 6.184 2.55 9l61.73 100.624c4.98 8.115 15.6 10.655 23.72 5.678s10.66-15.598 5.68-23.713l-61.73-100.624c-4.98-8.115-15.6-10.655-23.72-5.678a17.25 17.25 0 0 0-8.23 14.713m-103.32-12.024c0 8.954 6.92 16.517 15.99 17.173 9.49.689 17.76-6.437 18.45-15.944 1.84-25.081 17.23-49.162 39.22-61.369 8.32-4.621 11.34-15.115 6.71-23.438-4.62-8.322-15.11-11.333-23.44-6.712-32.38 17.966-54.18 52.07-56.88 89.002-.03.426-.04.851-.04 1.276zm-28.58-134.647c0 6.276 3.45 12.333 9.43 15.379 8.49 4.322 18.87.943 23.19-7.551 16.6-32.611 47.35-58.611 82.27-69.543 9.1-2.85 14.14-12.517 11.31-21.609-2.86-9.093-12.52-14.15-21.62-11.3-44.24 13.851-81.68 45.496-102.7 86.807a17.1 17.1 0 0 0-1.88 7.805zm-248.82 261.825c0 2.035 0 4.058.02 6.081a17.22 17.22 0 0 0 7.53 14.104 17.25 17.25 0 0 0 15.89 1.85c53.74-20.598 115.09-19.828 168.31 2.115 8.8 3.632 18.89-.563 22.52-9.368s-.57-18.886-9.37-22.518c-53.61-22.104-114.37-25.552-170.19-10.184a712 712 0 0 1 22.78-161.568c2.4-9.219-3.13-18.633-12.34-21.035-9.22-2.402-18.63 3.127-21.04 12.334a746.8 746.8 0 0 0-24.11 188.178z"/><path d="M1056.29 799.759c0 1.391.17 2.805.52 4.207a18.22 18.22 0 0 0 10.98 12.506c10.93 4.299 20.2-1.712 40.5-14.885 4.6-2.977 11.64-7.552 15.83-9.874 1.85.012 3.73-.264 5.57-.874 8.58-2.839 13.5-11.804 11.3-20.563a17.4 17.4 0 0 0-1.08-3.092l-17.94-43.163c-3.66-8.793-13.75-12.954-22.55-9.299-8.79 3.656-12.95 13.748-9.3 22.541l11.51 27.656c-3.58 2.196-7.57 4.782-12.11 7.736-4.6 2.977-11.65 7.552-15.83 9.874-1.44-.012-2.9.161-4.36.517-7.83 1.966-13.05 8.989-13.05 16.713zM843.493 699.488c0 21.231 4.207 47.542 20.29 70.554 17.244 24.69 45.489 40.553 75.551 42.438 9.507.598 17.692-6.621 18.29-16.127.575-9.506-6.622-17.69-16.129-18.288-19.382-1.218-38.316-11.851-49.444-27.771-10.714-15.333-15.565-37.047-13.668-61.139 1.839-23.334 9.346-46.91 16.611-69.703 2.886-9.07-2.126-18.771-11.197-21.656s-18.772 2.126-21.658 11.195c-7.852 24.668-15.979 50.163-18.129 77.462a165 165 0 0 0-.517 13.058zm197.617-113.475c0 1.92.32 3.851.99 5.736l14.74 41.794c3.18 8.978 13.03 13.69 22.01 10.518 8.98-3.173 13.69-13.024 10.52-22.001l-11.03-31.231c6.93-7.276 15.91-17.874 27.64-31.84 11.22-13.368 26.59-31.667 31.55-35.391 7.63-5.713 9.17-16.518 3.45-24.139-5.71-7.621-16.52-9.161-24.14-3.448-7.6 5.689-19.15 19.219-37.28 40.805-11.22 13.369-26.59 31.668-31.56 35.392a17.27 17.27 0 0 0-6.89 13.794zm109.23-134.334c0 4.046 1.42 8.104 4.29 11.38 6.29 7.149 17.19 7.851 24.34 1.563l49.67-43.668c7.15-6.287 7.85-17.184 1.56-24.334-6.28-7.15-17.18-7.851-24.33-1.563l-49.68 43.668a17.24 17.24 0 0 0-5.86 12.954zm143.85-78.532c0 .597.03 1.195.09 1.804.99 9.472 9.46 16.357 18.93 15.369l41.86-4.345c9.47-.989 16.36-9.46 15.37-18.932s-9.46-16.357-18.93-15.368l-41.86 4.345c-8.86.919-15.46 8.402-15.46 17.127m74.56-65.819c0 2.265.45 4.552 1.39 6.771 3.74 8.759 13.88 12.828 22.64 9.08l76-32.46c8.76-3.736 12.83-13.874 9.08-22.633-3.74-8.759-13.88-12.828-22.64-9.081l-76 32.461c-6.55 2.793-10.47 9.173-10.47 15.862m-10.95-112.677c0 4.138 1.48 8.276 4.47 11.587 6.4 7.046 17.3 7.586 24.36 1.184 23.65-21.461 63.26-22.806 88.32-3.012 7.47 5.908 18.32 4.632 24.22-2.839 5.91-7.472 4.64-18.311-2.84-24.219-18.41-14.552-42.29-22.104-67.23-21.254-24.95.851-48.25 10.001-65.65 25.783a17.23 17.23 0 0 0-5.65 12.77M1063.05 98.68c0 1.564.22 3.161.67 4.736 3.73 13.092 15.74 23.449 30.58 26.38 10.67 2.115 20.95.414 30.48-1.724 11.09-2.494 22.03-5.563 32.62-8.541 21.78-6.115 42.36-11.896 63.26-12.736 26.44-1.069 57.89 8.748 68.56 33.093 3.82 8.725 13.99 12.702 22.72 8.874 8.72-3.816 12.7-13.989 8.87-22.713-8.02-18.334-23.05-33.047-43.44-42.553-17.21-8.023-37.84-11.989-58.1-11.173-24.94 1.012-48.44 7.61-71.19 13.99-10.63 2.976-20.66 5.804-30.87 8.091-5.44 1.219-11.62 2.449-16.23 1.54-2.23-.436-3.79-1.597-4.15-2.137-2.67-9.081-12.17-14.334-21.28-11.725-7.58 2.161-12.52 9.07-12.52 16.575z"/><path d="M948.071 100.682c0 4.77.667 9.541 2.047 14.104 3.368 11.23 10.679 20.024 20.566 24.759 8.587 4.115 18.888.483 23.003-8.103 4.116-8.587.483-18.886-8.104-23.001-1.311-.632-2.047-2.287-2.438-3.575-1.138-3.77-.528-8.736 1.472-12.069 5.495-9.161 18.053-14.897 28.363-18.863 40.24-15.506 84.17-21.138 127.03-16.287 9.46 1.069 18-5.736 19.07-15.196s-5.74-18-15.2-19.07c-48.35-5.471-97.9.885-143.31 18.369-15.47 5.954-34.622 15.126-45.532 33.288-4.598 7.655-6.978 16.656-6.978 25.633zm105.269 210.455c0 5.081 2.23 10.104 6.52 13.506 7.46 5.92 18.3 4.679 24.23-2.77 32.59-41.013 95.69-56.657 143.66-35.622 8.73 3.828 18.89-.149 22.72-8.862 3.83-8.724-.15-18.885-8.86-22.713-62.64-27.472-141.98-7.805-184.52 45.748a17.17 17.17 0 0 0-3.75 10.713M947.91 437.745c0 7.494 4.932 14.391 12.496 16.563l32.143 9.219c9.151 2.621 18.701-2.667 21.341-11.816 2.62-9.15-2.67-18.702-11.82-21.323l-32.145-9.218c-9.151-2.621-18.704 2.666-21.325 11.816a17 17 0 0 0-.667 4.759zm-145.114 94.89c0 4.046.862 8.161 2.598 12.093 4.484 10.184 14.497 18.391 25.487 20.897 9.415 2.149 18.002 1 25.578 0 2.943-.391 5.737-.759 8.22-.885 14.611-.702 29.521 7.885 36.235 20.885 6.725 13.001 5.116 30.116-3.909 41.645-5.874 7.495-4.552 18.334 2.943 24.208 7.496 5.873 18.336 4.552 24.211-2.943 17.324-22.127 20.29-53.772 7.38-78.738s-40.443-40.84-68.527-39.495c-3.955.184-7.599.678-11.128 1.149-5.15.69-10.002 1.334-13.359.575a2.5 2.5 0 0 1-.459-.207c1.954-7.379-1.207-15.426-8.151-19.38-8.277-4.713-18.807-1.816-23.509 6.46-2.414 4.242-3.621 8.954-3.621 13.759zm-.587 102.521c0 8.667 6.519 16.127 15.324 17.116 9.462 1.057 17.992-5.759 19.049-15.219l2.472-22.116c1.058-9.471-5.76-17.989-15.221-19.058-9.461-1.057-17.991 5.759-19.06 15.219l-2.472 22.127a18 18 0 0 0-.103 1.931zm816.741 310.09c0 4.15 1.49 8.322 4.52 11.633 6.42 7.023 17.33 7.517 24.36 1.092a576.2 576.2 0 0 0 94.72-111.912c5.18-8 2.9-18.667-5.1-23.839-7.99-5.173-18.67-2.897-23.84 5.103a541.3 541.3 0 0 1-89.06 105.21c-3.73 3.402-5.61 8.058-5.61 12.725zm-77.47-267.942c0 5.242 2.38 10.426 6.91 13.817 17.2 12.885 39.52 19.092 68.26 18.977 9.7-.034 19.26-.724 28.49-1.402 11.06-.805 21.49-1.552 31.81-1.23 13.77.437 32.79 3.368 45.19 14.897 8.71 8.104 13.76 23.357 7.37 33.139-5.21 7.977-2.97 18.656 5.01 23.863s18.66 2.965 23.86-5.012c7.73-11.828 10.27-26.621 7.18-41.691-2.8-13.575-9.87-26.196-19.93-35.552-16-14.886-39.37-23.219-67.59-24.116-12.11-.379-23.95.471-35.4 1.31-9.06.656-17.6 1.276-26.13 1.311-20.67.08-36.63-3.989-47.45-12.093-7.62-5.712-18.43-4.161-24.14 3.46a17.13 17.13 0 0 0-3.45 10.322zM697.16 806.267c0 1.758.276 3.552.839 5.322 16.509 50.944 52.629 95.428 99.095 122.061 5.806 3.322 11.714 6.368 17.428 9.299 14.14 7.264 27.498 14.127 37.109 24.15 10.059 10.483 15.094 29.38 6.518 38.031-6.702 6.77-6.645 17.68.115 24.38 6.771 6.71 17.681 6.65 24.383-.11 11.381-11.49 16.255-27.64 13.726-45.507-2.104-14.886-9.346-29.702-19.865-40.668-13.6-14.185-30.188-22.702-46.237-30.944-5.621-2.885-10.932-5.609-16.036-8.552-39.121-22.426-69.528-59.886-83.438-102.773-2.931-9.057-12.657-14.023-21.716-11.092-7.288 2.368-11.932 9.127-11.932 16.403zm-110.67 79.747c0 6.621 3.828 12.932 10.277 15.782 8.714 3.851 18.888-.08 22.75-8.793 3.851-8.701 13.554-14.897 23.061-14.748 9.519.161 17.37-7.425 17.531-16.954v-.299c0-9.391-7.529-17.081-16.956-17.23-23.498-.391-45.673 13.782-55.18 35.265a17.2 17.2 0 0 0-1.483 6.966zm65.871-170.613c0 3.713.391 7.586 1.391 11.518 8.265 32.092 47.202 38.265 60.008 40.288 9.404 1.494 18.244-4.931 19.727-14.334 1.495-9.402-4.931-18.242-14.335-19.724-24.279-3.851-30.809-10.185-31.993-14.828-.92-3.552.356-9.426 1.471-14.599l16.531-76.381c2.001-9.311-3.897-18.483-13.208-20.495-9.312-2.011-18.486 3.897-20.498 13.207l-16.531 76.382c-1.138 5.276-2.563 11.828-2.563 18.966m19.267-158.889c0 9.357 7.495 17.046 16.899 17.23 9.518.196 17.393-7.368 17.589-16.885.448-22.024 9.714-43.519 25.417-58.967 6.794-6.679 6.886-17.599.207-24.38-6.679-6.794-17.6-6.886-24.383-.207-22.072 21.702-35.097 51.898-35.718 82.853v.356zm-4.392-270.378a17.24 17.24 0 0 0 8.703 14.989c17.324 9.885 35.246 20.115 47.455 34.518 11.576 13.667 16.117 30.667 11.565 43.323-2.196 6.092-7.944 11.621-14.646 14.081-2.794 1.023-8.174 2.345-12.772-.299-8.254-4.747-18.796-1.908-23.544 6.345s-1.908 18.794 6.346 23.541c12.404 7.138 27.268 8.127 41.845 2.782 16.382-6.012 29.544-19.013 35.223-34.783 8.795-24.415 2.012-54.025-17.692-77.29-16.14-19.046-37.672-31.334-56.675-42.173-8.277-4.725-18.807-1.839-23.52 6.425a17.15 17.15 0 0 0-2.265 8.529zm96.268 13.531c0 .919.069 1.85.23 2.781 1.529 9.403 10.381 15.782 19.785 14.254 46.236-7.506 88.058-36.059 111.866-76.394 4.84-8.195 2.116-18.77-6.081-23.609s-18.773-2.115-23.613 6.08c-18.658 31.622-51.444 54.002-87.69 59.887-8.461 1.368-14.485 8.69-14.485 17.001zm112.693-222.33c0 4.104 1.449 8.219 4.415 11.506 13.335 14.863 20.118 35.587 18.14 55.461-.942 9.472 5.978 17.92 15.451 18.863 9.472.943 17.922-5.977 18.865-15.449 2.92-29.334-7.105-59.955-26.797-81.899-6.358-7.092-17.267-7.678-24.349-1.321a17.2 17.2 0 0 0-5.725 12.839m110.626 92.681c0 1.885.31 3.794.966 5.667 3.127 8.989 12.951 13.748 21.961 10.621l56.54-19.679c8.99-3.126 13.75-12.954 10.63-21.954-3.13-8.989-12.96-13.748-21.96-10.621l-56.549 19.679c-7.116 2.471-11.577 9.149-11.577 16.287zm349.447 79.878c0 1.08.1 2.172.31 3.264 1.79 9.357 10.83 15.484 20.18 13.69l51.62-9.896c9.36-1.793 15.48-10.828 13.69-20.185s-10.83-15.483-20.19-13.69l-51.61 9.897c-8.26 1.586-14 8.805-14 16.909zm339.11 65.826c0 6.632 3.84 12.943 10.3 15.793 22.69 9.989 46.16 20.323 66.04 34.438 14.6 10.357 33.8 27.679 42.37 51.393 7.64 21.15 6.49 46.736-3.23 72.07-8.11 21.128-21.88 42.278-43.33 66.554-6.31 7.138-5.63 18.035 1.5 24.334 7.14 6.299 18.04 5.632 24.34-1.506 24.26-27.46 40.04-51.932 49.68-77.025 12.69-33.07 13.92-67.209 3.46-96.14-9.19-25.415-28.15-48.864-54.85-67.796-22.74-16.138-47.84-27.184-72.1-37.874-8.72-3.839-18.89.115-22.73 8.828a17.1 17.1 0 0 0-1.47 6.942z"/><path d="M1704.87 442.681c0 .311 0 .621.02.931.51 9.506 8.64 16.806 18.14 16.3l39.35-2.104c9.51-.506 16.82-8.632 16.31-18.138s-8.64-16.805-18.15-16.3l-39.35 2.104c-9.19.494-16.32 8.104-16.32 17.207M1464.4 574.014c0 21.092 6.87 36.185 20.52 45.001 12.77 8.253 29.81 8.828 45.54 1.552 11.9-5.495 20.77-14.058 28.57-21.622 6.85-6.62 7.04-17.529.41-24.38-6.62-6.85-17.53-7.034-24.38-.413-6.14 5.931-12.47 12.057-19.07 15.103-4.66 2.15-9.75 2.472-12.37.782-4.44-2.862-5.87-13.242-3.84-27.748a443.6 443.6 0 0 1 38.57-128.785c4.08-8.61.41-18.886-8.2-22.966s-18.88-.414-22.97 8.195c-20.83 43.933-34.82 90.624-41.55 138.774-.82 5.851-1.23 11.357-1.23 16.507m-79.37-84.205c0 3.656 1.15 7.334 3.54 10.461 5.78 7.563 16.6 9.011 24.18 3.23l32.04-24.472c7.56-5.782 9.01-16.599 3.23-24.174-5.79-7.563-16.6-9.011-24.18-3.23l-32.04 24.472c-4.44 3.391-6.77 8.529-6.77 13.713m-195.48 138.265c0 1.069.11 2.15.31 3.23 5.3 27.932 19.58 54.082 40.2 73.646 6.91 6.552 17.82 6.264 24.39-.644 6.55-6.908 6.26-17.816-.65-24.38-15.41-14.621-26.09-34.173-30.05-55.059-1.77-9.356-10.79-15.506-20.15-13.724-8.26 1.574-14.04 8.804-14.04 16.92zm141.67-12.54c0 8.748 6.63 16.242 15.53 17.139l24.59 2.46c9.47.942 17.92-5.966 18.87-15.438.95-9.483-5.96-17.92-15.43-18.874l-24.59-2.459c-9.48-.943-17.93 5.965-18.88 15.437-.06.586-.09 1.161-.09 1.735m-14.19 210.996c0 4 .75 7.977 2.3 11.632 6.21 14.667 20.27 21.242 28.67 25.162l54.04 25.254c8.64 4.034 18.89.31 22.93-8.323 4.03-8.621.31-18.885-8.33-22.92l-54.04-25.253c-1.61-.748-4.71-2.207-7.31-3.771 4-2.299 7.08-6.195 8.21-11.046 2.16-9.276-3.61-18.541-12.89-20.702-9.64-2.241-19.38 1.15-26.06 9.081-4.92 5.839-7.53 13.414-7.53 20.874zm521.8-90.235c0 1.426.17 2.874.55 4.311 7.94 30.863 31.5 56.783 61.47 67.646 8.95 3.241 18.84-1.38 22.08-10.334s-1.38-18.84-10.33-22.081c-19.12-6.931-34.75-24.127-39.82-43.818-2.37-9.218-11.78-14.77-21.01-12.402-7.78 2-12.94 9.012-12.94 16.69zm35.72 213.523c0 4.989 2.16 9.943 6.32 13.357 7.37 6.034 18.23 4.942 24.27-2.426l22.13-27.035c6.03-7.368 4.94-18.23-2.43-24.265s-18.23-4.943-24.27 2.425l-22.13 27.036a17.18 17.18 0 0 0-3.89 10.908M1850 181.823c0 3.851.37 7.713 1.13 11.541 4.02 20.345 18.58 37.553 37.98 44.875 8.91 3.368 18.87-1.127 22.22-10.035 3.37-8.908-1.12-18.862-10.03-22.219-8.09-3.057-14.66-10.816-16.34-19.311-1.68-8.483 1.45-18.161 7.77-24.07 6.96-6.494 7.34-17.414.83-24.368-6.5-6.954-17.41-7.334-24.37-.828-12.31 11.495-19.19 27.794-19.19 44.404zm-206.2-67.601c0 5.954 3.1 11.747 8.62 14.943 8.25 4.77 18.8 1.942 23.56-6.299 13.23-22.886 40.89-37.737 67.27-36.128 9.51.575 17.68-6.655 18.26-16.161.59-9.483-6.66-17.679-16.16-18.254-39.54-2.413-79.42 19.012-99.24 53.301a17.14 17.14 0 0 0-2.32 8.609zm73.38 44.56c0 9.116 7.15 16.737 16.36 17.208l46.72 2.391c9.51.482 17.61-6.828 18.11-16.334.47-9.529-6.83-17.61-16.34-18.104l-46.72-2.391c-9.51-.483-17.61 6.828-18.11 16.334-.01.299-.02.598-.02.896M1613.95 28.016c0 7.909 5.47 15.024 13.5 16.817l44.26 9.828c9.3 2.069 18.51-3.793 20.58-13.093 2.07-9.299-3.79-18.506-13.09-20.575l-44.25-9.828c-9.3-2.069-18.51 3.794-20.58 13.093a18 18 0 0 0-.41 3.758zm115.52-5.475c0 .265 0 .54.02.805.44 9.518 8.51 16.874 18.02 16.437l51.63-2.368c9.52-.436 16.86-8.529 16.44-18.012-.44-9.517-8.51-16.874-18.02-16.437l-51.63 2.368c-9.24.425-16.45 8.046-16.45 17.207zm191.14-25.404c0 3.632 1.15 7.3 3.51 10.414l57.38 75.577c5.75 7.586 16.57 9.07 24.16 3.31 7.59-5.758 9.07-16.575 3.31-24.161L1951.58-13.3c-5.76-7.587-16.57-9.07-24.16-3.31-4.47 3.39-6.82 8.54-6.82 13.747zm-9.19 505.477c0 9.161 7.22 16.793 16.46 17.207 17.28.782 33.78-11.207 38.38-27.874 2.53-9.184-2.86-18.679-12.03-21.208-9.19-2.528-18.68 2.863-21.21 12.035-.35 1.242-2.28 2.656-3.58 2.598-9.52-.425-17.58 6.931-18 16.449-.01.264-.02.529-.02.793m-113.39 89.841c0 1.758.28 3.551.84 5.322 2.93 9.057 12.66 14.023 21.71 11.092l46.61-15.093c9.06-2.931 14.02-12.655 11.09-21.713s-12.65-14.023-21.71-11.092l-46.61 15.092c-7.29 2.368-11.93 9.127-11.93 16.403zm-137.37 30.449c0 3.287.94 6.609 2.89 9.552 5.29 7.92 15.99 10.069 23.91 4.782l36.88-24.587c7.92-5.288 10.06-15.989 4.79-23.909-5.29-7.92-16-10.069-23.92-4.782l-36.88 24.587c-4.98 3.322-7.67 8.793-7.67 14.357m-167.26 194.52c0 7.886 5.45 15.012 13.48 16.805l54.12 12.15c9.29 2.081 18.52-3.759 20.6-13.046 2.08-9.299-3.76-18.518-13.05-20.598l-54.12-12.15c-9.29-2.081-18.52 3.758-20.6 13.046a17 17 0 0 0-.43 3.793M357.167 717.639c0 2.449.529 4.932 1.632 7.3 4.035 8.62 14.301 12.345 22.923 8.31 29.958-14.023 66.377-20.633 108.246-19.667 38.396.885 77.471 7.874 115.258 14.621 9.38 1.678 18.336-4.563 20.014-13.943 1.667-9.379-4.564-18.334-13.945-20-39.074-6.978-79.471-14.196-120.523-15.15-47.236-1.092-88.84 6.609-123.661 22.908-6.265 2.931-9.944 9.139-9.944 15.633zm35.501-69.771c0 5.518 2.644 10.943 7.553 14.277 7.875 5.356 18.601 3.31 23.958-4.564 17.163-25.242 23.176-58.036 16.106-87.726-2.208-9.265-11.508-14.978-20.774-12.771-9.265 2.207-14.99 11.518-12.772 20.771 4.863 20.426.725 42.978-11.07 60.346a17.2 17.2 0 0 0-2.989 9.679zm-177.831-16.837c0 17.668 2.736 34.565 4.931 48.163 1.518 9.402 10.381 15.782 19.773 14.264 9.404-1.517 15.784-10.368 14.267-19.77-5.07-31.323-8.507-61.243 4.989-82.911 8.243-13.241 23.555-23.69 43.098-29.414 19.187-5.621 40.512-6.518 61.124-7.38 9.519-.402 16.887-8.414 16.508-17.954-.402-9.518-8.438-16.909-17.957-16.506-22.693.954-46.156 1.931-69.377 8.735-27.694 8.116-49.95 23.84-62.688 44.289-11.3 18.15-14.691 38.794-14.691 58.484zm-4.829-111.719c0 1.793.288 3.621.874 5.414 2.989 9.046 12.737 13.954 21.785 10.966 30.291-10.012 57.043-31.449 73.401-58.841 4.886-8.173 2.207-18.759-5.966-23.644-8.174-4.886-18.761-2.207-23.647 5.965-12.163 20.38-32.074 36.335-54.606 43.772-7.242 2.391-11.841 9.138-11.841 16.368m179.591-105.369c0 9.517 7.725 17.242 17.244 17.242h61.468c22.107 0 47.214-21.081 83.001-53.232 13.002-11.678 26.452-23.771 33.464-27.633 8.335-4.598 11.37-15.081 6.783-23.426-4.598-8.345-15.083-11.379-23.429-6.782-10.484 5.771-24.107 18.012-39.879 32.185-12.508 11.242-25.452 22.874-37.362 31.771-16.611 12.403-22.359 12.621-22.589 12.633h-61.457c-9.519 0-17.244 7.724-17.244 17.242m150.089-208.836c0 4.448 1.713 8.896 5.127 12.276 6.782 6.69 17.692 6.621 24.383-.161 45.466-46.071 111.2-71.278 175.818-67.45 9.507.563 17.669-6.69 18.233-16.196.563-9.518-6.691-17.667-16.198-18.231-74.39-4.414-150.056 24.622-202.397 77.646a17.2 17.2 0 0 0-4.966 12.116m-140.26 14.634c0 9.517 7.725 17.241 17.244 17.241h66.377c9.519 0 17.244-7.724 17.244-17.241 0-9.518-7.725-17.242-17.244-17.242h-66.377c-9.519 0-17.244 7.724-17.244 17.242M586.259 91.728c0 .666.035 1.345.115 2.023 1.104 9.46 9.68 16.23 19.129 15.115l59.055-6.92c9.461-1.103 16.221-9.666 15.117-19.126s-9.668-16.23-19.129-15.116l-59.055 6.92c-8.771 1.023-15.243 8.483-15.243 17.104zm190.109 82.229a17.14 17.14 0 0 0 4.069 11.115c6.151 7.276 17.026 8.184 24.303 2.046l14.668-12.391c7.277-6.149 8.186-17.023 2.047-24.299-6.151-7.276-17.026-8.185-24.303-2.035l-14.668 12.391a17.22 17.22 0 0 0-6.116 13.185zM298.401 312.412c0 1.701.253 3.425.782 5.127 2.828 9.092 12.496 14.173 21.589 11.345l56.445-17.552c9.093-2.828 14.174-12.495 11.346-21.587s-12.496-14.173-21.589-11.345l-56.445 17.552c-7.392 2.299-12.128 9.104-12.128 16.46m-116.443 85.372a17.14 17.14 0 0 0 3.701 10.656c5.898 7.483 16.738 8.758 24.222 2.873l63.331-49.909c7.484-5.897 8.76-16.736 2.874-24.219-5.897-7.483-16.738-8.759-24.222-2.874l-63.331 49.909a17.23 17.23 0 0 0-6.575 13.553zM-7.574 334.858c0 5.633 2.747 11.139 7.817 14.449l123.305 80.543c7.978 5.207 18.658 2.965 23.866-5.001 5.207-7.977 2.966-18.655-5.001-23.862L19.108 320.444c-7.978-5.207-18.658-2.965-23.866 5a17.2 17.2 0 0 0-2.805 9.414zm20.347 119.547c0 2.564.575 5.161 1.782 7.61 4.208 8.54 14.554 12.046 23.095 7.839l39.443-19.449c8.541-4.207 12.048-14.552 7.84-23.092-4.208-8.541-14.554-12.047-23.095-7.84l-39.443 19.449c-6.093 3-9.622 9.115-9.622 15.483m-97.806-157.74c0 8.161 5.817 15.414 14.14 16.943 35.925 6.586 74.344-17.633 83.91-52.875 6.287-23.185-.61-48.553-15.842-66.749.62-.265 1.264-.529 1.908-.805 8.61-3.632 21.36-9.023 25.693-10.322 7.668-.655 14.22-6.414 15.543-14.345 1.552-9.391-4.782-18.277-14.175-19.84-6.851-1.138-12.392.885-40.488 12.747-8.61 3.644-21.371 9.035-25.694 10.323a17.26 17.26 0 0 0-15.209 12.805c-2.276 8.621 2.414 17.54 10.795 20.586 17.543 6.368 29.073 28.564 24.176 46.576-4.886 18.012-26.05 31.346-44.409 27.978-9.369-1.712-18.347 4.483-20.072 13.851a17 17 0 0 0-.287 3.127zm49.306-124.762h-.023zM20.5 182.661h-.023zm140.801-83.233c0 6.574 3.782 12.862 10.174 15.736 8.679 3.908 18.888.034 22.796-8.644 7.277-16.162 20.797-29.415 37.086-36.38 8.76-3.748 12.818-13.875 9.082-22.633-3.748-8.76-13.876-12.817-22.635-9.081-24.165 10.322-44.202 29.978-54.985 53.932a17.2 17.2 0 0 0-1.529 7.07zm139.951-54.062a17.23 17.23 0 0 0 4.771 11.909c6.576 6.885 17.497 7.138 24.383.563 6.162-5.885 15.853-8.621 25.9-7.3 10.047 1.311 18.704 6.45 23.141 13.725 4.967 8.127 15.577 10.69 23.705 5.736 8.127-4.966 10.691-15.575 5.736-23.702-9.978-16.334-27.509-27.253-48.099-29.943-20.6-2.701-40.35 3.333-54.191 16.552a17.18 17.18 0 0 0-5.334 12.472zm-12.45 112.903c0 .311 0 .621.023.943.506 9.506 8.634 16.805 18.141 16.299l6.943-.367a17.22 17.22 0 0 0 15.692-12.61l5.346-19.288c2.54-9.173-2.84-18.679-12.014-21.219s-18.68 2.839-21.221 12.012l-2.311 8.356c-6.265 2.61-10.599 8.805-10.599 15.897zM171.014 259.983c0 1.38.161 2.77.518 4.161 2.287 9.242 11.645 14.874 20.888 12.587 33.993-8.426 63.664-30.587 81.391-60.795 4.817-8.207 2.069-18.782-6.151-23.598s-18.784-2.069-23.601 6.149c-12.864 21.92-35.269 38.657-59.951 44.783-7.852 1.943-13.094 8.989-13.094 16.725zm-61.951-45.104c0 1.414.173 2.839.541 4.265l7.495 29.472c2.345 9.23 11.737 14.805 20.968 12.46s14.807-11.736 12.462-20.966l-7.495-29.472c-2.346-9.23-11.738-14.805-20.969-12.461-7.806 1.989-12.99 9.001-12.99 16.702zm-200.947-71.391c0 10.966 2.77 20.299 9.978 27.173 6.898 6.575 17.808 6.311 24.383-.586 6.243-6.552 6.323-16.736.391-23.369-.299-1.448-.828-6.391 1.897-18.506 2.46-10.931 6.553-23.495 10.519-35.656 3.828-11.748 7.323-22.472 9.369-31.69 50.915-9.599 105.52-1.817 151.527 21.874 8.473 4.356 18.865 1.034 23.222-7.437 4.357-8.46 1.035-18.863-7.438-23.22-56.698-29.207-124.765-37.334-186.75-22.3A17.24 17.24 0 0 0-67.962 46.52c0 6.046-5.3 22.288-9.553 35.345-7.312 22.438-14.37 44.117-14.37 61.623m40.247 535.323c0 6.208 3.368 12.219 9.254 15.288 8.438 4.414 18.853 1.15 23.268-7.287C.46 649.385 43.524 625.787 85.6 629.419c9.484.816 17.842-6.207 18.658-15.701.816-9.472-6.208-17.84-15.704-18.656-55.548-4.793-112.395 26.369-138.238 75.772a17.2 17.2 0 0 0-1.966 7.977zm13.498-97.968c0 8.092 5.713 15.299 13.956 16.908l12.3 2.391c9.346 1.816 18.405-4.287 20.222-13.632 1.805-9.357-4.288-18.403-13.635-20.219l-12.312-2.391c-9.346-1.816-18.405 4.287-20.221 13.632a17 17 0 0 0-.322 3.311zm-70.862 131.348c0 2.172.414 4.368 1.276 6.506 8.093 19.851 25.06 35.771 45.386 42.587 20.324 6.816 43.466 4.345 61.894-6.621 8.185-4.873 10.875-15.448 6-23.633-4.874-8.184-15.45-10.873-23.635-6-9.76 5.805-22.52 7.173-33.292 3.564s-20.13-12.392-24.418-22.909c-3.598-8.817-13.657-13.047-22.474-9.46-6.691 2.724-10.737 9.172-10.737 15.977z"/><path d="M8.522 689.273c0 3.897 1.31 7.805 4 11.023 6.093 7.311 16.968 8.299 24.29 2.207l14.75-12.287c7.312-6.093 8.3-16.966 2.207-24.288-6.092-7.311-16.968-8.3-24.29-2.207l-14.75 12.287a17.2 17.2 0 0 0-6.207 13.254zM-8.689 873.611c0 5.333 2.46 10.586 7.105 13.954 7.702 5.598 18.485 3.897 24.084-3.805l19.67-27.035c5.598-7.701 3.896-18.483-3.806-24.081s-18.485-3.897-24.084 3.805l-19.67 27.035a17.13 17.13 0 0 0-3.299 10.127m147.4-144.993c0 .288 0 .564.023.851.46 9.506 8.553 16.839 18.06 16.38l58.985-2.886c9.508-.459 16.842-8.54 16.382-18.057-.46-9.506-8.553-16.84-18.06-16.38l-58.985 2.885c-9.232.448-16.405 8.069-16.405 17.207m278.431 98.831a17.18 17.18 0 0 0 4.748 11.886c6.564 6.897 17.486 7.161 24.383.598 5.185-4.943 13.059-7.139 20.06-5.598 7.001 1.54 13.221 6.839 15.853 13.506 3.507 8.851 13.519 13.196 22.371 9.69s13.198-13.518 9.691-22.369c-6.84-17.288-22.359-30.506-40.511-34.495-18.152-4-37.787 1.483-51.249 14.288a17.18 17.18 0 0 0-5.357 12.494zM276.72 913.022c0 8.184 5.84 15.437 14.175 16.943 9.369 1.701 18.347-4.529 20.037-13.897 2.069-11.437 9.519-22.23 20.428-29.621 10.922-7.391 23.705-10.299 35.097-7.978 9.335 1.909 18.44-4.115 20.337-13.448 1.908-9.334-4.116-18.437-13.451-20.334-20.428-4.161-42.776.655-61.33 13.207-18.543 12.564-31.315 31.53-35.028 52.036a17.7 17.7 0 0 0-.276 3.092zm-167.507-7.613c0 2.712.643 5.459 1.988 8.023 4.438 8.425 14.865 11.655 23.291 7.218 25.958-13.667 37.891-46.817 26.59-73.898-3.667-8.794-13.76-12.943-22.555-9.276s-12.944 13.759-9.277 22.552c4.368 10.472-.793 24.828-10.841 30.116-5.862 3.092-9.208 9.08-9.208 15.265zM959.98 315.594c0 1.127.104 2.253.333 3.403 1.863 9.333 10.956 15.391 20.291 13.529l24.586-4.92c9.34-1.862 15.4-10.954 13.53-20.288-1.86-9.333-10.95-15.391-20.286-13.529l-24.59 4.92c-8.196 1.644-13.864 8.839-13.864 16.885M109.329 571.27c0 9.517 7.725 17.242 17.244 17.242h31.959c9.518 0 17.243-7.725 17.243-17.242s-7.725-17.242-17.243-17.242h-31.959c-9.519 0-17.244 7.724-17.244 17.242M1510.69 254.166c0 3.127.85 6.276 2.62 9.127l12.29 19.667c5.05 8.081 15.68 10.529 23.76 5.483 8.09-5.046 10.53-15.678 5.49-23.759l-12.29-19.667c-5.05-8.07-15.68-10.529-23.76-5.483a17.24 17.24 0 0 0-8.11 14.632m182.6 22.673c0 7.104 4.43 13.759 11.51 16.254l46.94 16.563c8.98 3.173 18.83-1.54 22-10.517s-1.54-18.828-10.52-22.001l-46.94-16.563c-8.97-3.173-18.83 1.54-22 10.517a17.2 17.2 0 0 0-.99 5.736zm117.33 70.749a17.13 17.13 0 0 0 3.78 10.759l19.67 24.587c5.94 7.437 16.8 8.644 24.23 2.689 7.44-5.942 8.65-16.793 2.69-24.23l-19.67-24.587c-5.94-7.437-16.79-8.644-24.23-2.69a17.22 17.22 0 0 0-6.47 13.472m-282.33 57.552c0 2.057.37 4.138 1.15 6.172 3.41 8.886 13.39 13.334 22.28 9.92 42.53-16.334 90.53-20.219 135.14-10.943 9.33 1.943 18.46-4.046 20.4-13.368 1.93-9.322-4.05-18.449-13.37-20.391-51.01-10.61-105.89-6.161-154.53 12.506-6.86 2.632-11.07 9.173-11.07 16.104"/></g><defs><radialGradient id="a" cx="0" cy="0" r="1" gradientTransform="matrix(0 459 -960.5 0 960.5 459)" gradientUnits="userSpaceOnUse"><stop stop-color="#fff2ba"/><stop offset="1" stop-color="#fcd52c"/></radialGradient></defs></svg>