<svg xmlns="http://www.w3.org/2000/svg" width="1921" height="918" fill="none" viewBox="0 0 1921 918"><path fill="url(#a)" d="M0 0h1921v918H0z"/><g fill="#fff" opacity=".1" style="mix-blend-mode:soft-light"><path d="M745.181 604.281c0 15.713.874 31.357 2.633 46.875 10.749 94.819 54.042 179.407 118.775 232.064 35.925 29.219 79.069 50.323 131.893 64.508 41.528 11.149 87.548 17.747 144.858 20.77 22.75 1.196 45.91 1.863 68.29 2.506 70.07 2.012 142.51 4.092 209.76 23.047 8.37 2.356 17.19-1.885 20.57-9.897s.25-17.288-7.28-21.633c-89.87-51.794-167.57-124.934-224.68-211.523-33.89-51.381-48.46-93.21-45.84-131.625 3.19-46.622 34.34-94.002 83.35-126.727 46.14-30.817 101.37-46.956 154.77-62.554 9.14-2.667 14.39-12.241 11.71-21.38-2.67-9.138-12.24-14.379-21.38-11.713-55.91 16.334-113.71 33.22-164.26 66.979-26.72 17.851-49.77 40.323-66.64 65.002-19.13 27.978-29.88 57.599-31.96 88.06-4.16 60.887 27.38 116.452 51.45 152.959 44.08 66.829 99.82 126.038 163.72 174.338-44.15-5.253-88.68-6.541-132.3-7.782-22.18-.632-45.11-1.299-67.46-2.471-80.37-4.23-182.189-16.874-256.809-77.589-57.801-47.013-96.531-123.268-106.279-209.201a375 375 0 0 1-2.38-42.369c0-118.107 54.307-237.363 144.917-312.871 101.471-84.554 248.741-114.452 375.161-76.163 9.11 2.758 18.74-2.391 21.49-11.506 2.76-9.116-2.39-18.737-11.5-21.495-67.83-20.541-141.78-23.668-213.85-9.035s-138.94 46.346-193.384 91.715c-54.445 45.369-97.693 105.417-125.076 173.66-21.348 53.209-32.292 109.486-32.292 165.074z"/><path d="M940.75 729.298c0 9.254 7.335 16.897 16.646 17.219 9.519.322 17.497-7.126 17.83-16.644 3.369-97.911 40.524-192.649 104.614-266.755s152.48-124.532 248.9-141.981c9.37-1.701 15.59-10.667 13.9-20.035-1.71-9.368-10.67-15.586-20.04-13.897-51.53 9.334-101.13 27.449-147.44 53.864-46.3 26.414-87.15 59.887-121.41 99.486-34.24 39.598-61.487 84.841-80.949 134.475-19.463 49.622-30.246 101.324-32.051 153.648zm464.62-116.531c0 29.346 9.15 59.669 27.05 85.359 26.38 37.875 70.11 66.014 123.15 79.209 48.38 12.035 98.81 10.828 141.77 8.058 9.51-.609 16.72-8.805 16.1-18.311-.61-9.506-8.82-16.713-18.32-16.092-40.3 2.598-87.42 3.793-131.21-7.104-44.93-11.184-81.58-34.426-103.18-65.45-24.01-34.484-27.79-79.175-9.42-111.222 4.73-8.264 1.87-18.793-6.38-23.529-8.27-4.736-18.8-1.885-23.54 6.379-10.73 18.714-16.01 40.438-16.01 62.715zm175.31 5.724c0 3.288.93 6.598 2.9 9.541 5.27 7.931 15.98 10.069 23.91 4.793a312 312 0 0 0 110.43-129.003c3.99-8.644.22-18.886-8.43-22.886-8.64-3.989-18.89-.219-22.89 8.425-21.21 45.956-56.1 86.704-98.23 114.751-4.99 3.322-7.69 8.793-7.69 14.368zm-41.03-84.26c0 5.138 2.29 10.219 6.66 13.621 7.52 5.851 18.35 4.506 24.2-3.011l86.18-110.693c5.85-7.517 4.51-18.345-3.01-24.196s-18.35-4.506-24.2 3.011l-86.18 110.693a17.17 17.17 0 0 0-3.64 10.575zM1552.8-14.78c0 .425.01.85.05 1.287l17.83 242.34a17.2 17.2 0 0 0 8.82 13.805 17.24 17.24 0 0 0 16.38.207c72.58-37.978 167.95-24.138 226.77 32.886 58.8 57.036 75.54 151.924 39.78 225.628-4.15 8.563-.57 18.885 7.99 23.035 8.57 4.149 18.89.574 23.04-7.989 42.05-86.704 22.37-198.339-46.81-265.433-63.02-61.128-161.74-80.071-243.38-49.174l-16.03-217.834c-.7-9.494-8.96-16.632-18.46-15.931-9.07.667-15.98 8.23-15.98 17.173m-336.3 48.898c0 9.276 7.37 16.932 16.71 17.22 82.19 2.55 163.18 25.816 234.2 67.265 8.22 4.805 18.79 2.023 23.59-6.195 4.8-8.23 2.03-18.782-6.19-23.587-75.98-44.335-162.6-69.209-250.52-71.945-9.52-.299-17.48 7.185-17.78 16.702v.552z"/><path d="M1485.15 355.242c0 1.448.18 2.92.57 4.391 2.42 9.207 11.85 14.713 21.07 12.299l137.66-36.116c9.21-2.414 14.72-11.839 12.3-21.058-2.41-9.207-11.84-14.713-21.06-12.299l-137.66 36.116c-7.75 2.035-12.88 9.023-12.88 16.667m45.74 645.308c0 8.58 6.42 16.02 15.16 17.09 96.24 11.73 197.29-38.704 245.74-122.661 48.46-83.956 41.58-196.672-16.71-274.111-5.73-7.61-16.55-9.138-24.16-3.403-7.61 5.725-9.14 16.541-3.4 24.151 50.23 66.714 56.15 163.82 14.4 236.144-41.74 72.324-128.8 115.774-211.69 105.67-9.45-1.149-18.05 5.575-19.21 15.023-.09.713-.13 1.414-.13 2.107zm327.77-368.261c0 1.679.24 3.368.76 5.058 10.35 33.806 28.1 65.772 51.32 92.428 23.58 27.07 49.96 38.61 74.27 32.518 27.1-6.793 42.06-33.15 44.86-56.266 2.69-22.23-3.34-43.173-8.68-61.645-2.64-9.15-12.2-14.426-21.35-11.782s-14.42 12.196-11.78 21.345c4.63 16.058 9.43 32.668 7.58 47.944-1.38 11.38-8.35 24.3-19.01 26.966-15.53 3.897-33.07-13.897-39.89-21.724-20.07-23.035-35.4-50.657-44.35-79.876-2.78-9.104-12.43-14.23-21.53-11.437-7.43 2.276-12.2 9.103-12.2 16.483zm-54.12 392.511c0 8.94 6.91 16.51 15.98 17.17 9.5.7 17.76-6.42 18.46-15.92 2.17-29.459 4.43-59.931 12.95-87.805 6.32-20.667 19.13-48.956 44.27-66.347 21.77-15.058 49.71-17.748 69.51-6.678 8.31 4.644 18.82 1.666 23.47-6.644 4.64-8.311 1.66-18.817-6.65-23.461-31.04-17.333-73.62-13.943-105.96 8.426-33.28 23.024-49.7 58.726-57.61 84.623-9.66 31.564-12.05 63.99-14.36 95.346-.04.44-.05.86-.05 1.29zm-28.89-932.468c0 4.288 1.59 8.575 4.78 11.92 6.59 6.874 17.5 7.115 24.39.54 22.75-21.77 57.04-30.392 87.38-21.966s55.28 33.484 63.55 63.864c7.58 27.851 1.92 57.68-4.07 89.255-5.03 26.461-10.22 53.829-7.83 81.83 2.54 29.84 13.38 57.14 23.86 83.531 2.18 5.46 4.42 11.116 6.52 16.622 10.3 27.023 19.9 58.564 12.94 87.6-5.64 23.472-28.47 47.243-52.24 43.817-9.43-1.356-18.17 5.184-19.53 14.61s5.18 18.173 14.61 19.529c44.13 6.368 81.43-31.334 90.69-69.91 9.21-38.392-2.77-77.841-14.24-107.923-2.19-5.735-4.48-11.494-6.7-17.069-10-25.173-19.45-48.956-21.55-73.726-1.98-23.3 2.55-47.186 7.35-72.474 6.46-34.024 13.14-69.22 3.46-104.75-11.41-41.875-45.79-76.427-87.61-88.025-41.83-11.61-89.1.276-120.46 30.276a17.2 17.2 0 0 0-5.32 12.46zM426.054 1040.24c0 3.68 1.173 7.37 3.553 10.47 4.931 6.45 13.691 8.59 21.026 5.13l277.568-130.444c8.622-4.046 12.324-14.322 8.277-22.943-4.046-8.621-14.324-12.322-22.945-8.265L493.156 997.754c5.196-11.448 9.461-23.196 13.657-34.782 13.703-37.817 23.463-61.439 50.283-70.221 9.048-2.965 13.979-12.701 11.025-21.747-2.966-9.047-12.703-13.978-21.751-11.024-44.144 14.449-58.928 55.255-71.975 91.244-8.013 22.127-16.302 45.002-30.706 61.936l-13.519 15.91a17.2 17.2 0 0 0-4.104 11.17zm-293.272-65.584a17.24 17.24 0 0 0 8.484 14.862c8.196 4.84 18.772 2.115 23.612-6.08 46.835-79.336 119.592-142.246 204.869-177.132s181.256-41.024 270.28-17.276c9.197 2.46 18.647-3.012 21.107-12.219 2.46-9.195-3.012-18.644-12.22-21.104-96.256-25.679-200.041-19.046-292.238 18.679S185.812 880.124 135.173 965.909a17.2 17.2 0 0 0-2.391 8.747m153.792-262.707c0 6.437 3.621 12.61 9.818 15.576 8.599 4.103 18.888.459 22.992-8.127l54.352-113.808c4.104-8.598.46-18.886-8.127-22.989-8.599-4.104-18.888-.46-22.992 8.127l-54.353 113.807a17.1 17.1 0 0 0-1.69 7.414m171.508-77.101c0 7.886 5.449 15.001 13.462 16.805 9.288 2.092 18.52-3.747 20.612-13.034l22.176-98.509c2.092-9.288-3.748-18.518-13.037-20.61-9.288-2.092-18.52 3.747-20.612 13.035l-22.176 98.509a17.3 17.3 0 0 0-.425 3.804"/><path d="M265.571 1057.1c0 7.44 4.863 14.32 12.381 16.52 9.139 2.69 18.727-2.52 21.417-11.66 18.933-64.257 63.595-119.339 122.558-151.144 8.38-4.518 11.507-14.978 6.989-23.357-4.518-8.38-14.979-11.506-23.36-6.989-32.694 17.644-62.641 42.576-86.598 72.117s-42.167 63.993-52.663 99.623a17 17 0 0 0-.713 4.89zM-65.11 475.987c0 10.644 2.357 21.081 7.117 30.173 19.393 37.059 63.653 49.381 98.91 45.151 35.385-4.241 66.389-22.07 93.75-37.806l373.295-214.707c21.635-12.437 42.604-23.242 61.446-18.828 29.406 6.897 40.661 47.656 41.362 80.462.138 6.391.126 12.816.103 19.621-.08 35.266-.172 75.209 23.578 106.463 5.76 7.587 16.578 9.058 24.165 3.299s9.059-16.575 3.299-24.162c-16.692-21.966-16.634-52.829-16.554-85.508.012-6.713.035-13.644-.115-20.437-1.011-47.312-19.393-101.911-67.964-113.302-31.062-7.276-59.767 7.126-86.506 22.506L117.48 483.619c-25.693 14.771-52.26 30.059-80.655 33.461-22.739 2.724-52.536-4.529-64.25-26.897-4.967-9.483-4.162-22.989 1.988-33.622 2.667-4.598 8.565-12.368 18.221-12.759 9.519-.379 16.888-8.414 16.554-17.908-.379-9.518-8.392-16.92-17.91-16.553-19.107.759-36.132 11.667-46.708 29.944-6.518 11.253-9.818 24.127-9.818 36.713z"/><path d="M373.806 482.002c0 .816.057 1.632.172 2.46 1.345 9.425 10.082 15.977 19.509 14.633l65.63-9.38c9.427-1.345 15.968-10.081 14.634-19.506-1.345-9.426-10.082-15.978-19.508-14.633l-65.631 9.38c-8.598 1.23-14.806 8.609-14.806 17.046m-8.875-345.33a17.263 17.263 0 0 0 19.002 17.15l159.955-16.311c9.472-.966 16.37-9.426 15.404-18.897-.966-9.472-9.427-16.369-18.911-15.403l-101.945 10.402c95.956-64.76 223.066-82.013 332.197-41.656 16.336 6.046 69.826 28.898 72.229 69.381 1.793 30.369-27.625 56.358-57.135 63.945-34.534 8.874-73.332.701-107.567-6.529-9.323-1.966-18.463 4-20.429 13.311-1.965 9.322 4.001 18.46 13.313 20.426 37.925 8 80.92 17.069 123.27 6.184 42.443-10.909 85.955-49.439 82.978-99.383-2.506-42.012-37.017-78.347-94.692-99.68-139.031-51.416-304.722-17.438-412.289 84.554a17.27 17.27 0 0 0-5.38 12.517zM-42.404 98.553c0 8.966 6.944 16.541 16.026 17.184l110.74 7.863c-13.255 29.035-25.383 60.84-26.97 94.933-1.977 42.496 16.382 94.359 61.917 114.486 21.268 9.403 45.26 10.598 71.309 3.541 20.279-5.483 41.777-16.162 62.182-30.875 10.208-7.356 20.049-15.311 29.567-22.989 22.659-18.299 44.053-35.576 69.091-44.702 8.944-3.265 13.553-13.162 10.3-22.104-3.265-8.943-13.163-13.553-22.107-10.3-30.429 11.093-55.099 31.013-78.954 50.266-9.576 7.736-18.623 15.047-28.072 21.851-17.497 12.621-62.205 40.186-99.36 23.76-30.441-13.46-42.799-51.599-41.408-81.336 1.701-36.3 18.325-70.979 34.407-104.509a17.21 17.21 0 0 0-.643-16.115 17.29 17.29 0 0 0-13.692-8.54L-23.93 81.322c-9.495-.679-17.75 6.482-18.416 15.977a15 15 0 0 0-.046 1.241z"/><path d="M161.89 196.592c0 3.241.919 6.517 2.828 9.437 5.219 7.965 15.91 10.184 23.877 4.965 40.592-26.598 72.746-66.117 90.53-111.279 3.483-8.862-.862-18.874-9.725-22.357-8.864-3.494-18.877.862-22.36 9.725-15.198 38.575-42.661 72.347-77.345 95.071a17.24 17.24 0 0 0-7.794 14.438zM-81.296 896.714c0 6.368 3.54 12.495 9.645 15.495 8.553 4.195 18.877.666 23.084-7.874a703.17 703.17 0 0 1 254.336-283.767c8.035-5.103 10.415-15.759 5.311-23.793-5.104-8.035-15.761-10.415-23.797-5.311-56.698 36.001-108.452 79.922-153.815 130.544s-83.38 106.854-112.982 167.131a17.25 17.25 0 0 0-1.77 7.587zm.966 73.443c0 7.69 5.185 14.702 12.98 16.69 28.866 7.369 60.456 3.725 88.978-10.264S72.37 939.835 84.2 912.501c5.668-13.104 8.944-26.553 12.117-39.553 3.403-13.989 6.621-27.197 12.484-38.726 15.37-30.207 52.088-48.265 85.403-41.989 9.358 1.758 18.371-4.391 20.141-13.748 1.759-9.356-4.391-18.368-13.749-20.138-23.325-4.391-48.535-.724-70.998 10.31-22.463 11.047-40.765 28.771-51.525 49.933-7.691 15.104-11.53 30.92-15.255 46.208-2.955 12.138-5.748 23.598-10.255 34.012-17.853 41.243-67.814 65.761-111.36 54.634-9.232-2.356-18.624 3.219-20.98 12.437a17.2 17.2 0 0 0-.54 4.276zm602.984-544.828c0 35.346 18.348 66.876 34.614 90.67 3.231 4.735 6.576 9.471 9.806 14.046 14.244 20.173 27.694 39.231 34.362 60.645 2.598 8.357 4.885 20.265 1 29.564-2.564 6.139-9.14 10.828-13.795 9.84-9.312-1.977-18.474 3.965-20.452 13.276-1.988 9.311 3.966 18.472 13.278 20.449 21.038 4.471 43.731-8.552 52.801-30.288 6.311-15.127 6.346-32.99.092-53.071-8.277-26.621-23.958-48.817-39.121-70.289-3.161-4.472-6.426-9.092-9.507-13.61-13.956-20.426-29.786-47.346-28.521-74.404.448-9.518-6.886-17.587-16.405-18.047-9.507-.459-17.589 6.886-18.048 16.403a97 97 0 0 0-.115 4.828zm348.199 43.663a17.23 17.23 0 0 0 6.484 13.483l39.994 31.955c7.438 5.942 18.29 4.735 24.233-2.702s4.737-18.287-2.701-24.23l-39.994-31.955c-7.438-5.943-18.29-4.736-24.234 2.701a17.16 17.16 0 0 0-3.77 10.759zm49.974-91.704c0 2.322.472 4.689 1.472 6.954 3.84 8.713 14.025 12.655 22.739 8.816 25.59-11.287 55.882-10.736 81.032 1.483 8.57 4.161 18.89.586 23.05-7.977s.59-18.886-7.98-23.047c-34.15-16.587-75.283-17.345-110.035-2.011-6.449 2.85-10.289 9.161-10.289 15.782zM1507 907.777c0 2.357.49 4.759 1.52 7.046 3.9 8.69 14.11 12.575 22.79 8.679l110.47-49.53c8.69-3.897 12.58-14.093 8.68-22.783s-14.09-12.575-22.78-8.678l-110.48 49.53c-6.4 2.874-10.2 9.161-10.2 15.748zm-123.75-147.454c0 3.069.82 6.184 2.55 9l61.74 100.624c4.97 8.115 15.6 10.655 23.71 5.678 8.12-4.977 10.66-15.598 5.68-23.713l-61.73-100.624c-4.98-8.115-15.6-10.655-23.72-5.678a17.25 17.25 0 0 0-8.23 14.713m-103.32-12.026c0 8.954 6.92 16.517 15.99 17.173 9.49.689 17.76-6.437 18.45-15.944 1.84-25.081 17.23-49.162 39.22-61.369 8.32-4.621 11.34-15.115 6.72-23.438-4.63-8.322-15.12-11.333-23.44-6.712-32.39 17.966-54.18 52.07-56.89 89.002-.03.426-.04.851-.04 1.276zm-28.57-134.647c0 6.276 3.45 12.333 9.43 15.379 8.48 4.322 18.86.943 23.18-7.551 16.6-32.611 47.35-58.611 82.28-69.543 9.09-2.85 14.14-12.517 11.3-21.609-2.85-9.093-12.52-14.15-21.61-11.3-44.25 13.851-81.68 45.496-102.71 86.807a17.2 17.2 0 0 0-1.87 7.805zm-248.83 261.826c0 2.035 0 4.058.02 6.081a17.244 17.244 0 0 0 23.42 15.954c53.74-20.598 115.1-19.828 168.31 2.115 8.81 3.632 18.89-.563 22.52-9.368s-.56-18.886-9.37-22.518c-53.6-22.104-114.37-25.552-170.18-10.184a711.3 711.3 0 0 1 22.77-161.568c2.4-9.219-3.13-18.633-12.34-21.035-9.22-2.402-18.63 3.127-21.03 12.334a746.4 746.4 0 0 0-24.12 188.177z"/><path d="M1056.3 799.76c0 1.391.17 2.805.51 4.207a18.24 18.24 0 0 0 10.98 12.506c10.93 4.299 20.2-1.712 40.5-14.885 4.6-2.977 11.65-7.552 15.83-9.874 1.85.011 3.74-.264 5.58-.874 8.57-2.839 13.49-11.805 11.3-20.563a19 19 0 0 0-1.08-3.092l-17.95-43.163c-3.65-8.793-13.75-12.954-22.54-9.299-8.8 3.656-12.96 13.748-9.3 22.541l11.5 27.656c-3.58 2.196-7.57 4.782-12.11 7.736-4.6 2.977-11.65 7.552-15.83 9.874-1.44-.012-2.9.161-4.36.517-7.83 1.966-13.05 8.989-13.05 16.713zM843.494 699.489c0 21.231 4.208 47.542 20.29 70.554 17.244 24.69 45.49 40.553 75.552 42.438 9.507.598 17.692-6.621 18.29-16.127.574-9.506-6.622-17.69-16.129-18.288-19.382-1.218-38.316-11.851-49.444-27.771-10.714-15.333-15.566-37.047-13.669-61.139 1.84-23.334 9.346-46.91 16.612-69.703 2.885-9.07-2.127-18.771-11.197-21.656s-18.773 2.126-21.658 11.195c-7.852 24.668-15.98 50.163-18.13 77.462a166 166 0 0 0-.517 13.058zm197.616-113.475c0 1.92.32 3.851.99 5.736l14.75 41.794c3.17 8.977 13.02 13.69 22 10.518 8.98-3.173 13.69-13.024 10.52-22.001l-11.03-31.231c6.94-7.276 15.91-17.874 27.64-31.84 11.22-13.368 26.59-31.667 31.56-35.391 7.62-5.713 9.16-16.518 3.45-24.139-5.72-7.621-16.52-9.161-24.15-3.448-7.6 5.689-19.15 19.218-37.28 40.805-11.22 13.369-26.59 31.668-31.55 35.392a17.25 17.25 0 0 0-6.9 13.794zm109.23-134.336c0 4.046 1.42 8.104 4.29 11.38 6.29 7.149 17.19 7.851 24.34 1.563l49.67-43.668c7.15-6.287 7.85-17.184 1.57-24.334-6.29-7.15-17.19-7.851-24.34-1.563l-49.67 43.668a17.2 17.2 0 0 0-5.87 12.954zm143.85-78.531c0 .597.04 1.195.09 1.804.99 9.472 9.46 16.357 18.94 15.369l41.85-4.345c9.48-.989 16.36-9.46 15.37-18.932s-9.46-16.357-18.93-15.368l-41.86 4.345c-8.86.919-15.46 8.402-15.46 17.127m74.56-65.818c0 2.265.45 4.552 1.4 6.771 3.73 8.759 13.87 12.828 22.63 9.08l76-32.46c8.76-3.736 12.83-13.874 9.08-22.633-3.73-8.759-13.87-12.828-22.63-9.081l-76 32.461c-6.56 2.793-10.48 9.173-10.48 15.862m-10.95-112.677c0 4.138 1.48 8.276 4.47 11.587 6.4 7.046 17.3 7.586 24.36 1.184 23.65-21.461 63.26-22.806 88.32-3.012 7.48 5.908 18.32 4.632 24.23-2.839 5.9-7.472 4.63-18.311-2.84-24.219-18.42-14.552-42.3-22.104-67.24-21.254-24.95.851-48.25 10-65.65 25.783a17.23 17.23 0 0 0-5.65 12.77M1063.05 98.68c0 1.564.22 3.161.67 4.736 3.74 13.092 15.74 23.449 30.58 26.38 10.67 2.115 20.96.414 30.49-1.724 11.08-2.494 22.02-5.563 32.61-8.541 21.79-6.115 42.36-11.896 63.26-12.736 26.44-1.069 57.9 8.748 68.56 33.093 3.82 8.725 14 12.702 22.72 8.874 8.73-3.816 12.7-13.989 8.88-22.713-8.03-18.334-23.05-33.047-43.45-42.553-17.21-8.023-37.84-11.989-58.1-11.173-24.93 1.012-48.44 7.61-71.19 13.99-10.62 2.976-20.66 5.804-30.87 8.091-5.44 1.219-11.62 2.449-16.23 1.54-2.23-.436-3.78-1.597-4.15-2.137-2.67-9.081-12.16-14.334-21.28-11.725-7.58 2.161-12.52 9.07-12.52 16.575z"/><path d="M948.073 100.683c0 4.77.667 9.541 2.046 14.104 3.368 11.23 10.68 20.024 20.566 24.759 8.588 4.115 18.888.483 23.004-8.103s.483-18.886-8.105-23.001c-1.31-.632-2.046-2.287-2.437-3.575-1.138-3.77-.529-8.736 1.471-12.07 5.495-9.16 18.052-14.896 28.362-18.862 40.25-15.506 84.17-21.138 127.03-16.288 9.46 1.07 18-5.735 19.07-15.195s-5.74-18-15.2-19.07c-48.35-5.471-97.9.885-143.31 18.369-15.469 5.954-34.621 15.126-45.531 33.288-4.598 7.655-6.978 16.656-6.978 25.633zm105.267 210.453c0 5.081 2.23 10.104 6.52 13.506 7.46 5.92 18.3 4.679 24.23-2.77 32.59-41.012 95.69-56.657 143.67-35.622 8.72 3.828 18.88-.149 22.71-8.862 3.83-8.724-.15-18.885-8.86-22.713-62.64-27.472-141.98-7.805-184.52 45.748a17.17 17.17 0 0 0-3.75 10.713m-105.428 126.61c0 7.494 4.932 14.391 12.496 16.563l32.143 9.219c9.149 2.621 18.699-2.667 21.339-11.816 2.62-9.15-2.67-18.702-11.82-21.323l-32.143-9.218c-9.151-2.621-18.704 2.666-21.325 11.816a17 17 0 0 0-.667 4.759zm-145.113 94.891c0 4.046.862 8.161 2.598 12.092 4.484 10.185 14.496 18.392 25.487 20.898 9.415 2.149 18.002 1 25.578 0 2.943-.391 5.737-.759 8.22-.885 14.611-.702 29.521 7.885 36.235 20.885 6.725 13.001 5.115 30.116-3.909 41.645-5.874 7.495-4.552 18.334 2.943 24.208s18.336 4.552 24.211-2.943c17.324-22.127 20.29-53.772 7.38-78.738s-40.443-40.84-68.527-39.495c-3.955.184-7.599.678-11.128 1.149-5.151.69-10.002 1.334-13.359.575a2.5 2.5 0 0 1-.459-.207c1.954-7.379-1.207-15.426-8.151-19.38-8.277-4.713-18.807-1.816-23.509 6.46-2.414 4.242-3.621 8.954-3.621 13.759zm-.587 102.518c0 8.667 6.518 16.127 15.324 17.116 9.461 1.057 17.991-5.759 19.049-15.219l2.471-22.116c1.058-9.471-5.759-17.989-15.22-19.058-9.461-1.057-17.991 5.759-19.061 15.219l-2.471 22.127a18 18 0 0 0-.104 1.931zm816.738 310.09c0 4.15 1.5 8.322 4.52 11.633 6.42 7.023 17.33 7.517 24.36 1.092a575.8 575.8 0 0 0 94.72-111.912c5.18-8 2.9-18.667-5.1-23.839-7.99-5.173-18.67-2.897-23.84 5.103a541.3 541.3 0 0 1-89.06 105.21c-3.73 3.402-5.61 8.058-5.61 12.725zm-77.47-267.942c0 5.242 2.38 10.426 6.91 13.817 17.2 12.885 39.52 19.092 68.26 18.977 9.7-.034 19.26-.724 28.49-1.402 11.06-.804 21.5-1.552 31.81-1.23 13.77.437 32.8 3.368 45.19 14.897 8.71 8.104 13.76 23.357 7.37 33.139-5.21 7.977-2.97 18.656 5.01 23.863s18.66 2.965 23.87-5.012c7.72-11.828 10.26-26.621 7.17-41.691-2.79-13.575-9.86-26.196-19.92-35.552-16.01-14.886-39.38-23.219-67.6-24.116-12.1-.379-23.95.471-35.4 1.31-9.05.656-17.6 1.276-26.13 1.311-20.67.08-36.63-3.989-47.45-12.093-7.62-5.712-18.43-4.161-24.14 3.46a17.2 17.2 0 0 0-3.45 10.322zM697.162 806.266c0 1.759.276 3.552.84 5.322 16.508 50.944 52.628 95.428 99.094 122.061 5.806 3.322 11.715 6.368 17.428 9.299 14.14 7.264 27.498 14.127 37.109 24.15 10.059 10.483 15.094 29.38 6.518 38.032-6.702 6.77-6.644 17.68.115 24.38 6.771 6.7 17.681 6.65 24.383-.11 11.381-11.5 16.255-27.65 13.726-45.508-2.104-14.886-9.346-29.702-19.865-40.668-13.599-14.185-30.188-22.702-46.236-30.944-5.622-2.885-10.933-5.609-16.037-8.552-39.121-22.426-69.527-59.886-83.438-102.773-2.931-9.057-12.657-14.023-21.715-11.092-7.289 2.368-11.933 9.127-11.933 16.403zm-110.671 79.747c0 6.621 3.828 12.932 10.277 15.782 8.714 3.851 18.888-.08 22.751-8.793 3.851-8.701 13.553-14.897 23.061-14.748 9.518.161 17.37-7.425 17.531-16.954v-.299c0-9.391-7.53-17.081-16.957-17.23-23.497-.391-45.673 13.782-55.18 35.265a17.2 17.2 0 0 0-1.483 6.966zM652.363 715.4c0 3.713.39 7.586 1.391 11.518 8.265 32.092 47.202 38.265 60.008 40.288 9.404 1.494 18.244-4.931 19.727-14.334 1.495-9.402-4.931-18.242-14.335-19.724-24.279-3.851-30.809-10.185-31.993-14.828-.92-3.552.356-9.426 1.471-14.598l16.531-76.382c2.001-9.311-3.897-18.483-13.208-20.495-9.312-2.011-18.486 3.897-20.498 13.207l-16.531 76.382c-1.138 5.276-2.563 11.828-2.563 18.966m19.267-158.888c0 9.357 7.495 17.046 16.899 17.23 9.518.196 17.393-7.368 17.588-16.885.449-22.024 9.714-43.519 25.418-58.967 6.794-6.679 6.886-17.599.207-24.38-6.679-6.794-17.6-6.886-24.383-.207-22.072 21.702-35.097 51.898-35.718 82.853v.356zm-4.392-270.376a17.24 17.24 0 0 0 8.703 14.989c17.324 9.885 35.246 20.115 47.455 34.518 11.576 13.667 16.117 30.667 11.564 43.323-2.195 6.092-7.943 11.621-14.645 14.081-2.794 1.023-8.174 2.345-12.772-.299-8.254-4.747-18.796-1.908-23.544 6.345s-1.908 18.794 6.346 23.541c12.404 7.138 27.268 8.126 41.845 2.781 16.382-6.011 29.544-19.012 35.223-34.782 8.795-24.415 2.012-54.025-17.692-77.29-16.14-19.046-37.672-31.334-56.675-42.173-8.277-4.725-18.807-1.839-23.52 6.425a17.15 17.15 0 0 0-2.265 8.529zm96.268 13.529c0 .919.069 1.85.23 2.781 1.529 9.403 10.38 15.782 19.784 14.254 46.237-7.506 88.059-36.059 111.867-76.394 4.84-8.195 2.115-18.77-6.082-23.609s-18.772-2.115-23.612 6.08c-18.658 31.622-51.444 54.002-87.691 59.887-8.461 1.368-14.485 8.69-14.485 17.001zM876.199 77.336c0 4.103 1.448 8.219 4.414 11.506 13.335 14.863 20.118 35.587 18.141 55.461-.943 9.472 5.978 17.92 15.45 18.863 9.473.943 17.922-5.977 18.865-15.449 2.92-29.334-7.104-59.955-26.797-81.899-6.357-7.092-17.267-7.678-24.348-1.322a17.2 17.2 0 0 0-5.725 12.84m110.625 92.681c0 1.885.311 3.794.966 5.667 3.127 8.989 12.96 13.748 21.96 10.621l56.55-19.679c8.99-3.126 13.74-12.954 10.62-21.954-3.13-8.989-12.96-13.748-21.96-10.621l-56.548 19.679c-7.116 2.471-11.576 9.149-11.576 16.287zm349.446 79.877c0 1.08.1 2.172.31 3.264 1.79 9.357 10.83 15.484 20.18 13.69l51.62-9.896c9.36-1.793 15.49-10.828 13.69-20.185-1.79-9.356-10.83-15.483-20.18-13.69l-51.62 9.897c-8.26 1.586-14 8.805-14 16.909zm339.11 65.826c0 6.632 3.84 12.943 10.3 15.793 22.7 9.989 46.16 20.323 66.05 34.438 14.6 10.357 33.8 27.679 42.36 51.393 7.65 21.15 6.5 46.736-3.23 72.07-8.1 21.128-21.88 42.278-43.33 66.554-6.31 7.138-5.63 18.035 1.51 24.334s18.04 5.632 24.34-1.506c24.25-27.46 40.04-51.932 49.67-77.025 12.69-33.07 13.92-67.209 3.46-96.14-9.19-25.415-28.14-48.864-54.85-67.796-22.74-16.138-47.83-27.184-72.1-37.874-8.71-3.839-18.89.115-22.73 8.828a17.1 17.1 0 0 0-1.47 6.942z"/><path d="M1704.87 442.682c0 .311 0 .621.02.931.51 9.506 8.64 16.805 18.15 16.3l39.35-2.104c9.5-.506 16.81-8.632 16.3-18.138s-8.64-16.805-18.14-16.3l-39.35 2.104c-9.2.494-16.33 8.104-16.33 17.207M1464.4 574.013c0 21.092 6.87 36.185 20.52 45.001 12.77 8.253 29.81 8.828 45.55 1.552 11.89-5.495 20.76-14.058 28.56-21.622 6.86-6.62 7.04-17.529.42-24.38s-17.53-7.034-24.38-.413c-6.14 5.931-12.48 12.057-19.08 15.104-4.65 2.149-9.75 2.471-12.37.781-4.43-2.862-5.87-13.242-3.84-27.748a444.2 444.2 0 0 1 38.57-128.785c4.08-8.609.42-18.886-8.19-22.966s-18.89-.414-22.97 8.195a478.4 478.4 0 0 0-41.56 138.774c-.82 5.851-1.23 11.357-1.23 16.507m-79.37-84.203c0 3.656 1.15 7.334 3.54 10.461 5.78 7.563 16.6 9.011 24.18 3.229l32.04-24.471c7.56-5.782 9.01-16.599 3.23-24.174-5.78-7.563-16.6-9.011-24.18-3.23l-32.04 24.472a17.25 17.25 0 0 0-6.77 13.713m-195.47 138.266c0 1.069.1 2.15.31 3.23 5.3 27.932 19.57 54.082 40.2 73.646 6.91 6.552 17.82 6.264 24.38-.644 6.55-6.908 6.27-17.816-.64-24.38-15.42-14.621-26.1-34.173-30.05-55.059-1.77-9.356-10.8-15.506-20.16-13.724-8.26 1.574-14.03 8.804-14.03 16.92zm141.66-12.542c0 8.748 6.63 16.242 15.53 17.139l24.59 2.46c9.47.942 17.92-5.966 18.88-15.438.94-9.483-5.97-17.92-15.44-18.874l-24.59-2.459c-9.47-.943-17.92 5.965-18.88 15.437-.06.586-.09 1.161-.09 1.735m-14.19 210.998c0 4 .75 7.977 2.3 11.632 6.21 14.667 20.27 21.242 28.67 25.162l54.05 25.253c8.63 4.035 18.88.311 22.92-8.322 4.03-8.621.31-18.885-8.32-22.92l-54.05-25.253c-1.61-.748-4.71-2.207-7.31-3.771 4-2.299 7.08-6.195 8.21-11.046 2.16-9.276-3.61-18.541-12.89-20.702-9.64-2.241-19.38 1.15-26.06 9.081-4.92 5.839-7.53 13.414-7.53 20.874zm521.8-90.235c0 1.426.18 2.874.55 4.311 7.95 30.863 31.5 56.783 61.47 67.645 8.96 3.242 18.85-1.379 22.09-10.333s-1.38-18.84-10.34-22.081c-19.12-6.931-34.75-24.127-39.82-43.818-2.37-9.218-11.77-14.77-21-12.402-7.79 2-12.95 9.012-12.95 16.69zm35.72 213.521c0 4.989 2.16 9.943 6.32 13.357 7.37 6.034 18.24 4.942 24.27-2.426l22.13-27.035c6.04-7.368 4.94-18.23-2.42-24.265-7.37-6.035-18.24-4.943-24.27 2.425l-22.13 27.036a17.2 17.2 0 0 0-3.9 10.908m-24.54-767.995c0 3.851.37 7.713 1.12 11.541 4.03 20.345 18.58 37.553 37.99 44.875 8.91 3.368 18.86-1.127 22.22-10.035 3.37-8.908-1.13-18.862-10.04-22.219-8.09-3.057-14.65-10.816-16.33-19.311-1.68-8.483 1.45-18.161 7.77-24.07 6.95-6.494 7.33-17.414.83-24.368-6.51-6.954-17.42-7.334-24.38-.828-12.31 11.495-19.18 27.794-19.18 44.404zm-206.2-67.6c0 5.954 3.09 11.747 8.62 14.943 8.24 4.77 18.79 1.942 23.55-6.299 13.23-22.886 40.89-37.737 67.28-36.128 9.5.575 17.68-6.655 18.25-16.161.59-9.483-6.65-17.679-16.16-18.254-39.54-2.413-79.42 19.012-99.23 53.301a17.05 17.05 0 0 0-2.33 8.609zm73.37 44.56c0 9.116 7.15 16.737 16.36 17.208l46.72 2.391c9.51.482 17.61-6.828 18.11-16.334.47-9.529-6.83-17.61-16.34-18.104l-46.72-2.391c-9.51-.483-17.61 6.828-18.1 16.334q-.03.449-.03.896M1613.95 28.016c0 7.909 5.47 15.024 13.51 16.817l44.26 9.828c9.3 2.069 18.5-3.793 20.57-13.093 2.07-9.299-3.79-18.506-13.09-20.575l-44.25-9.828c-9.3-2.069-18.51 3.794-20.58 13.093a18 18 0 0 0-.41 3.758zm115.52-5.474c0 .265 0 .54.03.805.43 9.517 8.5 16.874 18.01 16.437l51.63-2.368c9.52-.436 16.86-8.529 16.44-18.012-.44-9.517-8.51-16.874-18.02-16.437l-51.63 2.368c-9.24.425-16.45 8.046-16.45 17.207zm191.14-25.404c0 3.632 1.15 7.3 3.51 10.414l57.38 75.577c5.76 7.586 16.57 9.07 24.16 3.31 7.59-5.758 9.07-16.575 3.31-24.161L1951.58-13.3c-5.75-7.587-16.57-9.07-24.16-3.31-4.47 3.39-6.82 8.54-6.82 13.747zm-9.19 505.478c0 9.161 7.22 16.793 16.46 17.207 17.28.782 33.79-11.207 38.38-27.874 2.53-9.184-2.86-18.679-12.03-21.208-9.19-2.528-18.68 2.863-21.21 12.035-.35 1.242-2.28 2.656-3.58 2.598-9.52-.425-17.57 6.931-18 16.449-.01.264-.02.529-.02.793m-113.39 89.839c0 1.758.28 3.551.84 5.322 2.93 9.057 12.66 14.023 21.72 11.092l46.6-15.093c9.06-2.931 14.03-12.655 11.1-21.713s-12.66-14.023-21.72-11.092l-46.6 15.092c-7.29 2.368-11.94 9.127-11.94 16.403zm-137.37 30.449c0 3.287.94 6.609 2.89 9.552 5.29 7.92 16 10.069 23.92 4.782l36.88-24.587c7.92-5.288 10.05-15.989 4.78-23.909-5.29-7.92-15.99-10.069-23.91-4.782l-36.88 24.587c-4.99 3.322-7.68 8.793-7.68 14.357M1493.4 817.425c0 7.886 5.45 15.012 13.48 16.805l54.12 12.15c9.29 2.081 18.52-3.759 20.6-13.046 2.08-9.299-3.76-18.518-13.05-20.598l-54.12-12.15c-9.29-2.081-18.52 3.758-20.6 13.046a17 17 0 0 0-.43 3.793M357.17 717.641c0 2.449.529 4.932 1.632 7.299 4.035 8.621 14.301 12.346 22.923 8.311 29.958-14.023 66.377-20.633 108.246-19.667 38.396.885 77.47 7.874 115.258 14.621 9.38 1.678 18.336-4.563 20.014-13.943 1.667-9.38-4.564-18.334-13.945-20.001-39.074-6.977-79.471-14.195-120.523-15.149-47.237-1.092-88.84 6.609-123.661 22.908-6.266 2.931-9.944 9.138-9.944 15.633zm35.5-69.771c0 5.518 2.644 10.943 7.553 14.277 7.875 5.356 18.601 3.31 23.958-4.564 17.163-25.242 23.176-58.036 16.106-87.726-2.208-9.265-11.508-14.978-20.774-12.771-9.265 2.207-14.99 11.518-12.772 20.771 4.863 20.426.725 42.978-11.07 60.346a17.2 17.2 0 0 0-2.989 9.679zm-177.83-16.837c0 17.668 2.736 34.565 4.931 48.163 1.518 9.402 10.381 15.782 19.773 14.264 9.404-1.517 15.784-10.368 14.267-19.77-5.07-31.323-8.507-61.243 4.989-82.911 8.243-13.241 23.555-23.69 43.098-29.414 19.187-5.621 40.512-6.518 61.124-7.38 9.518-.402 16.887-8.414 16.508-17.954-.402-9.518-8.438-16.909-17.957-16.507-22.693.955-46.156 1.932-69.377 8.736-27.694 8.115-49.95 23.84-62.688 44.289-11.3 18.15-14.691 38.794-14.691 58.484zm-4.83-111.722c0 1.793.288 3.621.874 5.414 2.989 9.046 12.737 13.954 21.785 10.966 30.291-10.012 57.043-31.449 73.401-58.841 4.886-8.173 2.207-18.759-5.966-23.644-8.174-4.886-18.762-2.207-23.647 5.965-12.163 20.38-32.074 36.335-54.606 43.772-7.242 2.391-11.841 9.138-11.841 16.368m179.591-105.369c0 9.517 7.725 17.242 17.243 17.242h61.469c22.107 0 47.214-21.081 83.001-53.232 13.002-11.678 26.452-23.771 33.464-27.633 8.335-4.598 11.37-15.081 6.783-23.426-4.599-8.345-15.083-11.379-23.429-6.782-10.484 5.771-24.107 18.012-39.879 32.185-12.508 11.242-25.452 22.875-37.362 31.771-16.612 12.403-22.359 12.621-22.589 12.633h-61.458c-9.518 0-17.243 7.724-17.243 17.242m150.09-208.835c0 4.449 1.712 8.897 5.127 12.277 6.782 6.69 17.692 6.621 24.383-.161 45.466-46.071 111.2-71.278 175.818-67.45 9.507.563 17.669-6.69 18.233-16.196.563-9.518-6.691-17.667-16.198-18.231-74.39-4.414-150.056 24.622-202.397 77.646a17.2 17.2 0 0 0-4.966 12.115m-140.262 14.634c0 9.517 7.726 17.241 17.244 17.241h66.378c9.518 0 17.243-7.724 17.243-17.241 0-9.518-7.725-17.242-17.243-17.242h-66.378c-9.518 0-17.244 7.724-17.244 17.242M586.262 91.728c0 .666.034 1.345.115 2.023 1.103 9.46 9.679 16.23 19.129 15.115l59.054-6.92c9.461-1.103 16.221-9.666 15.117-19.126s-9.668-16.23-19.129-15.116l-59.054 6.92c-8.772 1.023-15.244 8.483-15.244 17.104zm190.107 82.23a17.14 17.14 0 0 0 4.07 11.115c6.15 7.276 17.025 8.184 24.302 2.046l14.669-12.391c7.277-6.149 8.185-17.023 2.046-24.299-6.15-7.276-17.025-8.185-24.302-2.035l-14.669 12.391a17.22 17.22 0 0 0-6.116 13.184zM298.403 312.414c0 1.701.253 3.425.782 5.127 2.828 9.092 12.496 14.172 21.589 11.345l56.445-17.552c9.093-2.828 14.174-12.495 11.346-21.587s-12.496-14.173-21.589-11.345l-56.445 17.552c-7.392 2.299-12.128 9.104-12.128 16.46m-116.442 85.372c0 3.736 1.207 7.494 3.701 10.656 5.898 7.482 16.738 8.758 24.222 2.873l63.331-49.909c7.484-5.897 8.76-16.736 2.874-24.219-5.897-7.483-16.738-8.759-24.222-2.874l-63.331 49.909a17.23 17.23 0 0 0-6.575 13.553zM-7.572 334.86c0 5.633 2.748 11.139 7.818 14.449l123.305 80.543c7.978 5.207 18.658 2.965 23.865-5.001 5.208-7.977 2.966-18.655-5.001-23.862L19.11 320.446c-7.978-5.207-18.658-2.965-23.865 5a17.2 17.2 0 0 0-2.805 9.414zm20.348 119.544c0 2.564.575 5.161 1.782 7.61 4.207 8.54 14.554 12.046 23.095 7.839l39.443-19.449c8.541-4.207 12.048-14.552 7.84-23.092-4.208-8.541-14.554-12.047-23.095-7.84l-39.443 19.449c-6.093 3-9.622 9.115-9.622 15.483M-85.03 296.665c0 8.161 5.816 15.414 14.14 16.943 35.924 6.586 74.343-17.633 83.908-52.875 6.288-23.185-.61-48.553-15.841-66.749.62-.265 1.264-.529 1.908-.805 8.61-3.632 21.36-9.023 25.693-10.322 7.668-.655 14.22-6.414 15.543-14.345 1.552-9.391-4.782-18.277-14.175-19.84-6.851-1.138-12.392.885-40.488 12.747-8.61 3.644-21.371 9.035-25.694 10.323a17.26 17.26 0 0 0-15.209 12.805c-2.276 8.621 2.414 17.54 10.795 20.586 17.543 6.368 29.073 28.564 24.176 46.576-4.886 18.012-26.05 31.346-44.409 27.978-9.369-1.712-18.347 4.483-20.072 13.851a17 17 0 0 0-.287 3.127zm49.305-124.762h-.023zm56.227 10.758h-.023zm140.802-83.232c0 6.574 3.782 12.862 10.173 15.736 8.68 3.908 18.888.034 22.797-8.644 7.277-16.162 20.796-29.415 37.086-36.38 8.76-3.748 12.818-13.875 9.081-22.634-3.747-8.758-13.875-12.816-22.635-9.08-24.164 10.322-44.202 29.978-54.985 53.932a17.2 17.2 0 0 0-1.529 7.07zm139.951-54.062c0 4.276 1.586 8.564 4.771 11.909 6.576 6.885 17.497 7.138 24.383.563 6.161-5.885 15.853-8.621 25.9-7.3 10.047 1.311 18.704 6.45 23.141 13.725 4.966 8.127 15.577 10.69 23.705 5.736 8.127-4.966 10.691-15.575 5.736-23.702-9.978-16.334-27.509-27.254-48.099-29.943-20.6-2.702-40.35 3.333-54.191 16.552a17.18 17.18 0 0 0-5.334 12.472zm-12.45 112.903c0 .311 0 .621.023.943.505 9.506 8.633 16.805 18.14 16.299l6.944-.368a17.22 17.22 0 0 0 15.692-12.609l5.345-19.288c2.541-9.173-2.839-18.679-12.013-21.219s-18.681 2.839-21.221 12.012l-2.311 8.356c-6.265 2.61-10.599 8.805-10.599 15.897zM171.017 259.983c0 1.38.161 2.77.517 4.161 2.288 9.242 11.645 14.874 20.888 12.587 33.994-8.426 63.664-30.587 81.391-60.795 4.817-8.207 2.069-18.782-6.15-23.598s-18.784-2.069-23.601 6.149c-12.864 21.92-35.27 38.657-59.951 44.783-7.852 1.943-13.094 8.989-13.094 16.725zm-61.952-45.104c0 1.414.173 2.839.54 4.265l7.496 29.472c2.345 9.23 11.737 14.805 20.968 12.46s14.807-11.736 12.462-20.966l-7.495-29.472c-2.346-9.23-11.738-14.805-20.969-12.461-7.806 1.989-12.99 9.001-12.99 16.702zm-200.947-71.39c0 10.966 2.77 20.299 9.978 27.173 6.898 6.575 17.808 6.311 24.383-.586 6.243-6.552 6.323-16.736.391-23.369-.299-1.448-.828-6.391 1.897-18.506 2.46-10.931 6.553-23.495 10.519-35.656 3.828-11.748 7.323-22.472 9.369-31.69 50.915-9.599 105.52-1.817 151.527 21.873 8.473 4.357 18.865 1.035 23.222-7.436 4.357-8.46 1.035-18.863-7.438-23.22-56.698-29.207-124.765-37.334-186.75-22.3a17.24 17.24 0 0 0-13.176 16.75c0 6.046-5.3 22.287-9.553 35.345-7.312 22.438-14.37 44.117-14.37 61.623m40.248 535.321c0 6.208 3.368 12.219 9.254 15.288 8.438 4.414 18.853 1.15 23.268-7.287 19.577-37.427 62.64-61.025 104.716-57.393 9.484.816 17.841-6.207 18.658-15.701.816-9.472-6.208-17.84-15.704-18.656-55.548-4.793-112.395 26.369-138.238 75.772a17.2 17.2 0 0 0-1.966 7.977zm13.496-97.969c0 8.092 5.714 15.299 13.956 16.908l12.3 2.391c9.347 1.816 18.406-4.287 20.222-13.632 1.805-9.357-4.288-18.403-13.634-20.219l-12.312-2.391c-9.346-1.816-18.405 4.287-20.221 13.632a17 17 0 0 0-.322 3.311zM-109 712.193c0 2.172.413 4.368 1.276 6.506 8.093 19.851 25.06 35.771 45.386 42.587 20.324 6.816 43.466 4.345 61.894-6.621 8.185-4.874 10.875-15.449 6-23.633-4.874-8.184-15.45-10.874-23.635-6-9.76 5.805-22.52 7.173-33.292 3.563s-20.13-12.391-24.418-22.908c-3.598-8.817-13.657-13.047-22.474-9.46-6.691 2.724-10.737 9.172-10.737 15.977z"/><path d="M8.523 689.272c0 3.897 1.31 7.805 4 11.023 6.093 7.311 16.969 8.299 24.291 2.207l14.75-12.287c7.311-6.093 8.3-16.966 2.207-24.288-6.093-7.311-16.968-8.3-24.291-2.207l-14.75 12.287a17.2 17.2 0 0 0-6.207 13.254zm-17.21 184.34c0 5.333 2.46 10.586 7.104 13.954 7.703 5.598 18.486 3.897 24.084-3.805l19.67-27.035c5.598-7.701 3.897-18.483-3.805-24.081-7.703-5.598-18.486-3.897-24.084 3.805l-19.67 27.035a17.13 17.13 0 0 0-3.3 10.127M138.714 728.62c0 .288 0 .563.023.851.46 9.506 8.553 16.839 18.06 16.38l58.985-2.886c9.508-.459 16.842-8.54 16.382-18.058-.46-9.506-8.553-16.839-18.06-16.379l-58.986 2.885c-9.231.448-16.404 8.069-16.404 17.207m278.431 98.83a17.18 17.18 0 0 0 4.748 11.886c6.564 6.897 17.485 7.161 24.383.598 5.184-4.943 13.059-7.139 20.06-5.598 7.001 1.54 13.22 6.839 15.853 13.506 3.506 8.851 13.519 13.196 22.371 9.69s13.197-13.518 9.691-22.369c-6.84-17.288-22.36-30.506-40.512-34.495-18.152-4-37.787 1.483-51.249 14.288a17.18 17.18 0 0 0-5.357 12.494zm-140.423 85.573c0 8.184 5.84 15.437 14.175 16.943 9.369 1.701 18.347-4.529 20.037-13.897 2.069-11.437 9.519-22.23 20.428-29.621 10.921-7.391 23.705-10.299 35.097-7.978 9.335 1.909 18.44-4.115 20.337-13.448 1.908-9.334-4.116-18.437-13.451-20.334-20.428-4.161-42.776.655-61.33 13.207-18.543 12.564-31.315 31.53-35.028 52.036a17.7 17.7 0 0 0-.276 3.092zm-167.507-7.614c0 2.712.644 5.459 1.989 8.023 4.437 8.425 14.864 11.655 23.291 7.218 25.957-13.667 37.89-46.817 26.59-73.898-3.668-8.794-13.761-12.943-22.555-9.276s-12.945 13.759-9.278 22.552c4.369 10.472-.793 24.828-10.84 30.116-5.863 3.092-9.208 9.08-9.208 15.265zm850.766-589.814c0 1.127.104 2.253.334 3.403 1.862 9.333 10.955 15.391 20.29 13.529l24.585-4.92c9.34-1.862 15.4-10.954 13.54-20.288-1.87-9.333-10.96-15.391-20.295-13.529l-24.589 4.92c-8.197 1.644-13.865 8.839-13.865 16.885M109.331 571.27c0 9.517 7.725 17.242 17.243 17.242h31.959c9.519 0 17.244-7.725 17.244-17.242s-7.725-17.242-17.244-17.242h-31.959c-9.518 0-17.243 7.724-17.243 17.242M1510.69 254.167c0 3.127.85 6.276 2.62 9.127l12.29 19.667c5.05 8.081 15.68 10.529 23.77 5.483 8.08-5.046 10.53-15.678 5.48-23.759l-12.29-19.667c-5.05-8.07-15.68-10.529-23.76-5.483a17.24 17.24 0 0 0-8.11 14.632m182.6 22.673c0 7.104 4.43 13.759 11.51 16.254l46.94 16.563c8.98 3.173 18.83-1.54 22-10.517 3.18-8.977-1.54-18.828-10.52-22.001l-46.93-16.563c-8.98-3.173-18.83 1.54-22.01 10.517a17.5 17.5 0 0 0-.99 5.736zm117.33 70.748a17.13 17.13 0 0 0 3.78 10.759l19.67 24.587c5.95 7.437 16.8 8.644 24.24 2.689 7.43-5.942 8.64-16.793 2.69-24.23l-19.67-24.587c-5.95-7.437-16.8-8.644-24.24-2.69a17.22 17.22 0 0 0-6.47 13.472m-282.33 57.553c0 2.057.37 4.138 1.15 6.172 3.42 8.886 13.4 13.334 22.28 9.92 42.54-16.334 90.53-20.219 135.15-10.943 9.32 1.943 18.45-4.046 20.39-13.368 1.93-9.322-4.05-18.449-13.37-20.391-51.01-10.61-105.89-6.161-154.53 12.506-6.86 2.632-11.07 9.173-11.07 16.104"/></g><defs><radialGradient id="a" cx="0" cy="0" r="1" gradientTransform="matrix(0 459 -960.5 0 960.5 459)" gradientUnits="userSpaceOnUse"><stop stop-color="#4687ee"/><stop offset="1" stop-color="#1c4fa0"/></radialGradient></defs></svg>